%TF.GenerationSoftware,KiCad,Pcbnew,8.0.1*%
%TF.CreationDate,2024-04-05T21:06:31+06:30*%
%TF.ProjectId,STM32_base,53544d33-325f-4626-9173-652e6b696361,rev?*%
%TF.SameCoordinates,PX48ab840PY853a720*%
%TF.FileFunction,Soldermask,Bot*%
%TF.FilePolarity,Negative*%
%FSLAX46Y46*%
G04 Gerber Fmt 4.6, Leading zero omitted, Abs format (unit mm)*
G04 Created by KiCad (PCBNEW 8.0.1) date 2024-04-05 21:06:31*
%MOMM*%
%LPD*%
G01*
G04 APERTURE LIST*
%ADD10C,0.800000*%
%ADD11C,6.400000*%
%ADD12C,1.800000*%
%ADD13R,1.700000X1.700000*%
%ADD14O,1.700000X1.700000*%
%ADD15R,2.600000X2.600000*%
%ADD16C,2.600000*%
%ADD17C,2.400000*%
%ADD18C,0.990600*%
%ADD19C,0.650000*%
%ADD20O,1.000000X2.100000*%
%ADD21O,1.000000X1.600000*%
%ADD22R,2.000000X2.000000*%
%ADD23C,2.000000*%
%ADD24C,3.000000*%
%ADD25C,2.500000*%
%ADD26R,2.000000X1.700000*%
%ADD27O,2.000000X1.700000*%
G04 APERTURE END LIST*
D10*
%TO.C,H3*%
X86500000Y5080000D03*
X87202944Y6777056D03*
X87202944Y3382944D03*
X88900000Y7480000D03*
D11*
X88900000Y5080000D03*
D10*
X88900000Y2680000D03*
X90597056Y6777056D03*
X90597056Y3382944D03*
X91300000Y5080000D03*
%TD*%
D12*
%TO.C,TH1*%
X20260000Y55642000D03*
X12760000Y57642000D03*
%TD*%
D13*
%TO.C,J4*%
X43688000Y3302000D03*
D14*
X46228000Y3302000D03*
X48768000Y3302000D03*
X51308000Y3302000D03*
%TD*%
D15*
%TO.C,J6*%
X6604000Y35565000D03*
D16*
X6604000Y30485000D03*
X6604000Y25405000D03*
%TD*%
D17*
%TO.C,C10*%
X61722000Y57030000D03*
X61722000Y42030000D03*
%TD*%
D18*
%TO.C,J1*%
X38862000Y12065000D03*
X43942000Y13081000D03*
X43942000Y11049000D03*
%TD*%
D19*
%TO.C,J5*%
X56800000Y7680000D03*
X62580000Y7680000D03*
D20*
X55370000Y8210000D03*
D21*
X55370000Y4030000D03*
D20*
X64010000Y8210000D03*
D21*
X64010000Y4030000D03*
%TD*%
D15*
%TO.C,J3*%
X6299000Y48392000D03*
D16*
X6299000Y43312000D03*
%TD*%
D22*
%TO.C,FL1*%
X41624500Y54387500D03*
D23*
X51624500Y54387500D03*
X41624500Y44387500D03*
X51624500Y44387500D03*
%TD*%
D13*
%TO.C,J2*%
X30988000Y3302000D03*
D14*
X33528000Y3302000D03*
X36068000Y3302000D03*
X38608000Y3302000D03*
%TD*%
D24*
%TO.C,K1*%
X31930000Y30480000D03*
D25*
X29980000Y36530000D03*
D24*
X17780000Y36530000D03*
X17730000Y24480000D03*
D25*
X29980000Y24530000D03*
%TD*%
D23*
%TO.C,SW1*%
X13058000Y13680000D03*
X19558000Y13680000D03*
X13058000Y9180000D03*
X19558000Y9180000D03*
%TD*%
D10*
%TO.C,H4*%
X2680000Y55880000D03*
X3382944Y57577056D03*
X3382944Y54182944D03*
X5080000Y58280000D03*
D11*
X5080000Y55880000D03*
D10*
X5080000Y53480000D03*
X6777056Y57577056D03*
X6777056Y54182944D03*
X7480000Y55880000D03*
%TD*%
D17*
%TO.C,C9*%
X31750000Y57030000D03*
X31750000Y42030000D03*
%TD*%
D12*
%TO.C,RV1*%
X22844000Y49724000D03*
X20844000Y42224000D03*
%TD*%
D10*
%TO.C,H2*%
X86500000Y55880000D03*
X87202944Y57577056D03*
X87202944Y54182944D03*
X88900000Y58280000D03*
D11*
X88900000Y55880000D03*
D10*
X88900000Y53480000D03*
X90597056Y57577056D03*
X90597056Y54182944D03*
X91300000Y55880000D03*
%TD*%
%TO.C,H1*%
X2680000Y5080000D03*
X3382944Y6777056D03*
X3382944Y3382944D03*
X5080000Y7480000D03*
D11*
X5080000Y5080000D03*
D10*
X5080000Y2680000D03*
X6777056Y6777056D03*
X6777056Y3382944D03*
X7480000Y5080000D03*
%TD*%
D26*
%TO.C,PS1*%
X83820000Y47517500D03*
D27*
X78820000Y47517500D03*
X88820000Y18437500D03*
X73820000Y18437500D03*
%TD*%
M02*
