%TF.GenerationSoftware,KiCad,Pcbnew,8.0.1*%
%TF.CreationDate,2024-04-05T21:06:31+06:30*%
%TF.ProjectId,STM32_base,53544d33-325f-4626-9173-652e6b696361,rev?*%
%TF.SameCoordinates,PX48ab840PY853a720*%
%TF.FileFunction,Copper,L2,Bot*%
%TF.FilePolarity,Positive*%
%FSLAX46Y46*%
G04 Gerber Fmt 4.6, Leading zero omitted, Abs format (unit mm)*
G04 Created by KiCad (PCBNEW 8.0.1) date 2024-04-05 21:06:31*
%MOMM*%
%LPD*%
G01*
G04 APERTURE LIST*
%TA.AperFunction,ComponentPad*%
%ADD10C,0.800000*%
%TD*%
%TA.AperFunction,ComponentPad*%
%ADD11C,6.400000*%
%TD*%
%TA.AperFunction,ComponentPad*%
%ADD12C,1.800000*%
%TD*%
%TA.AperFunction,ComponentPad*%
%ADD13R,1.700000X1.700000*%
%TD*%
%TA.AperFunction,ComponentPad*%
%ADD14O,1.700000X1.700000*%
%TD*%
%TA.AperFunction,ComponentPad*%
%ADD15R,2.600000X2.600000*%
%TD*%
%TA.AperFunction,ComponentPad*%
%ADD16C,2.600000*%
%TD*%
%TA.AperFunction,ComponentPad*%
%ADD17C,2.400000*%
%TD*%
%TA.AperFunction,ComponentPad*%
%ADD18O,1.000000X2.100000*%
%TD*%
%TA.AperFunction,ComponentPad*%
%ADD19O,1.000000X1.600000*%
%TD*%
%TA.AperFunction,ComponentPad*%
%ADD20R,2.000000X2.000000*%
%TD*%
%TA.AperFunction,ComponentPad*%
%ADD21C,2.000000*%
%TD*%
%TA.AperFunction,ComponentPad*%
%ADD22C,3.000000*%
%TD*%
%TA.AperFunction,ComponentPad*%
%ADD23C,2.500000*%
%TD*%
%TA.AperFunction,ComponentPad*%
%ADD24R,2.000000X1.700000*%
%TD*%
%TA.AperFunction,ComponentPad*%
%ADD25O,2.000000X1.700000*%
%TD*%
%TA.AperFunction,ViaPad*%
%ADD26C,0.800000*%
%TD*%
%TA.AperFunction,Conductor*%
%ADD27C,0.200000*%
%TD*%
%TA.AperFunction,Conductor*%
%ADD28C,0.254000*%
%TD*%
%TA.AperFunction,Conductor*%
%ADD29C,0.250000*%
%TD*%
%TA.AperFunction,Conductor*%
%ADD30C,2.540000*%
%TD*%
%TA.AperFunction,Conductor*%
%ADD31C,0.762000*%
%TD*%
G04 APERTURE END LIST*
D10*
%TO.P,H3,1,1*%
%TO.N,unconnected-(H3-Pad1)_3*%
X86500000Y5080000D03*
%TO.N,unconnected-(H3-Pad1)_6*%
X87202944Y6777056D03*
%TO.N,unconnected-(H3-Pad1)*%
X87202944Y3382944D03*
%TO.N,unconnected-(H3-Pad1)_5*%
X88900000Y7480000D03*
D11*
%TO.N,unconnected-(H3-Pad1)_7*%
X88900000Y5080000D03*
D10*
%TO.N,unconnected-(H3-Pad1)_0*%
X88900000Y2680000D03*
%TO.N,unconnected-(H3-Pad1)_2*%
X90597056Y6777056D03*
%TO.N,unconnected-(H3-Pad1)_4*%
X90597056Y3382944D03*
%TO.N,unconnected-(H3-Pad1)_1*%
X91300000Y5080000D03*
%TD*%
D12*
%TO.P,TH1,1*%
%TO.N,Net-(C9-Pad1)*%
X20260000Y55642000D03*
%TO.P,TH1,2*%
%TO.N,LINE*%
X12760000Y57642000D03*
%TD*%
D13*
%TO.P,J4,1,Pin_1*%
%TO.N,+3V3*%
X43688000Y3302000D03*
D14*
%TO.P,J4,2,Pin_2*%
%TO.N,I2C1_SCL*%
X46228000Y3302000D03*
%TO.P,J4,3,Pin_3*%
%TO.N,I2C1_SDA*%
X48768000Y3302000D03*
%TO.P,J4,4,Pin_4*%
%TO.N,GND*%
X51308000Y3302000D03*
%TD*%
D15*
%TO.P,J6,1,Pin_1*%
%TO.N,Net-(J6-Pin_1)*%
X6604000Y35565000D03*
D16*
%TO.P,J6,2,Pin_2*%
%TO.N,Net-(J6-Pin_2)*%
X6604000Y30485000D03*
%TO.P,J6,3,Pin_3*%
%TO.N,Net-(J6-Pin_3)*%
X6604000Y25405000D03*
%TD*%
D17*
%TO.P,C10,1*%
%TO.N,/LINE-OUT*%
X61722000Y57030000D03*
%TO.P,C10,2*%
%TO.N,/NEUT-OUT*%
X61722000Y42030000D03*
%TD*%
D18*
%TO.P,J5,S1,SHIELD*%
%TO.N,GND*%
X55370000Y8210000D03*
D19*
X55370000Y4030000D03*
D18*
X64010000Y8210000D03*
D19*
X64010000Y4030000D03*
%TD*%
D15*
%TO.P,J3,1,Pin_1*%
%TO.N,LINE*%
X6299000Y48392000D03*
D16*
%TO.P,J3,2,Pin_2*%
%TO.N,NEUT*%
X6299000Y43312000D03*
%TD*%
D20*
%TO.P,FL1,1,1*%
%TO.N,Net-(C9-Pad1)*%
X41624500Y54387500D03*
D21*
%TO.P,FL1,2,2*%
%TO.N,/LINE-OUT*%
X51624500Y54387500D03*
%TO.P,FL1,3,3*%
%TO.N,NEUT*%
X41624500Y44387500D03*
%TO.P,FL1,4,4*%
%TO.N,/NEUT-OUT*%
X51624500Y44387500D03*
%TD*%
D13*
%TO.P,J2,1,Pin_1*%
%TO.N,+3V3*%
X30988000Y3302000D03*
D14*
%TO.P,J2,2,Pin_2*%
%TO.N,USART1_TX*%
X33528000Y3302000D03*
%TO.P,J2,3,Pin_3*%
%TO.N,USART1_RX*%
X36068000Y3302000D03*
%TO.P,J2,4,Pin_4*%
%TO.N,GND*%
X38608000Y3302000D03*
%TD*%
D22*
%TO.P,K1,1*%
%TO.N,Net-(J6-Pin_2)*%
X31930000Y30480000D03*
D23*
%TO.P,K1,2*%
%TO.N,Net-(D2-K)*%
X29980000Y36530000D03*
D22*
%TO.P,K1,3*%
%TO.N,Net-(J6-Pin_1)*%
X17780000Y36530000D03*
%TO.P,K1,4*%
%TO.N,Net-(J6-Pin_3)*%
X17730000Y24480000D03*
D23*
%TO.P,K1,5*%
%TO.N,+5V*%
X29980000Y24530000D03*
%TD*%
D21*
%TO.P,SW1,1*%
%TO.N,GND*%
X13058000Y13680000D03*
X19558000Y13680000D03*
%TO.P,SW1,2*%
%TO.N,NRST*%
X13058000Y9180000D03*
X19558000Y9180000D03*
%TD*%
D10*
%TO.P,H4,1,1*%
%TO.N,unconnected-(H4-Pad1)_1*%
X2680000Y55880000D03*
%TO.N,unconnected-(H4-Pad1)_4*%
X3382944Y57577056D03*
%TO.N,unconnected-(H4-Pad1)_2*%
X3382944Y54182944D03*
%TO.N,unconnected-(H4-Pad1)*%
X5080000Y58280000D03*
D11*
%TO.N,unconnected-(H4-Pad1)_3*%
X5080000Y55880000D03*
D10*
%TO.N,unconnected-(H4-Pad1)_5*%
X5080000Y53480000D03*
%TO.N,unconnected-(H4-Pad1)_7*%
X6777056Y57577056D03*
%TO.N,unconnected-(H4-Pad1)_6*%
X6777056Y54182944D03*
%TO.N,unconnected-(H4-Pad1)_0*%
X7480000Y55880000D03*
%TD*%
D17*
%TO.P,C9,1*%
%TO.N,Net-(C9-Pad1)*%
X31750000Y57030000D03*
%TO.P,C9,2*%
%TO.N,NEUT*%
X31750000Y42030000D03*
%TD*%
D12*
%TO.P,RV1,1*%
%TO.N,Net-(C9-Pad1)*%
X22844000Y49724000D03*
%TO.P,RV1,2*%
%TO.N,NEUT*%
X20844000Y42224000D03*
%TD*%
D10*
%TO.P,H2,1,1*%
%TO.N,unconnected-(H2-Pad1)_6*%
X86500000Y55880000D03*
%TO.N,unconnected-(H2-Pad1)*%
X87202944Y57577056D03*
%TO.N,unconnected-(H2-Pad1)_2*%
X87202944Y54182944D03*
%TO.N,unconnected-(H2-Pad1)_1*%
X88900000Y58280000D03*
D11*
%TO.N,unconnected-(H2-Pad1)_0*%
X88900000Y55880000D03*
D10*
%TO.N,unconnected-(H2-Pad1)_5*%
X88900000Y53480000D03*
%TO.N,unconnected-(H2-Pad1)_3*%
X90597056Y57577056D03*
%TO.N,unconnected-(H2-Pad1)_7*%
X90597056Y54182944D03*
%TO.N,unconnected-(H2-Pad1)_4*%
X91300000Y55880000D03*
%TD*%
%TO.P,H1,1,1*%
%TO.N,unconnected-(H1-Pad1)_0*%
X2680000Y5080000D03*
%TO.N,unconnected-(H1-Pad1)_4*%
X3382944Y6777056D03*
%TO.N,unconnected-(H1-Pad1)_6*%
X3382944Y3382944D03*
%TO.N,unconnected-(H1-Pad1)_5*%
X5080000Y7480000D03*
D11*
%TO.N,unconnected-(H1-Pad1)_1*%
X5080000Y5080000D03*
D10*
%TO.N,unconnected-(H1-Pad1)_3*%
X5080000Y2680000D03*
%TO.N,unconnected-(H1-Pad1)_2*%
X6777056Y6777056D03*
%TO.N,unconnected-(H1-Pad1)_7*%
X6777056Y3382944D03*
%TO.N,unconnected-(H1-Pad1)*%
X7480000Y5080000D03*
%TD*%
D24*
%TO.P,PS1,1,AC/L*%
%TO.N,/LINE-OUT*%
X83820000Y47517500D03*
D25*
%TO.P,PS1,2,AC/N*%
%TO.N,/NEUT-OUT*%
X78820000Y47517500D03*
%TO.P,PS1,3,-Vout*%
%TO.N,GND*%
X88820000Y18437500D03*
%TO.P,PS1,4,+Vout*%
%TO.N,+5V*%
X73820000Y18437500D03*
%TD*%
D26*
%TO.N,GND*%
X65481200Y10820400D03*
%TO.N,VBUS*%
X62585600Y11074400D03*
X57251600Y10617200D03*
%TO.N,+3V3*%
X62992000Y20167600D03*
X53644800Y15951200D03*
X40640000Y21590000D03*
X41148000Y16510000D03*
%TO.N,GND*%
X70612000Y12446000D03*
X59436000Y4064000D03*
X64617600Y15748000D03*
X78359000Y11049000D03*
X22225000Y4191000D03*
X16891000Y5080000D03*
X60096400Y20878800D03*
X69088000Y7239000D03*
X44069000Y18034000D03*
X44831000Y6477000D03*
X44958000Y22733000D03*
X48895000Y21844000D03*
X49657000Y13589000D03*
X23241000Y15113000D03*
X56769000Y25273000D03*
X65151000Y19812000D03*
X77978000Y4572000D03*
X42672000Y32258000D03*
X88265000Y12192000D03*
X16256000Y11811000D03*
X51054000Y24384000D03*
X42799000Y10287000D03*
X34036000Y16891000D03*
X42291000Y24638000D03*
X41275000Y14478000D03*
X24384000Y7493000D03*
X52451000Y10414000D03*
X53213000Y32131000D03*
X41148000Y3302000D03*
X54483000Y19685000D03*
%TO.N,NRST*%
X31242000Y10033000D03*
X48133000Y20574000D03*
X45212000Y12065000D03*
X40513000Y10033000D03*
%TO.N,NEUT*%
X39370000Y42164000D03*
X12192000Y42418000D03*
X35560000Y42164000D03*
X9652000Y42418000D03*
X23114000Y42164000D03*
X17780000Y42418000D03*
X15240000Y42418000D03*
X25654000Y42164000D03*
X28702000Y42164000D03*
%TO.N,+5V*%
X66040000Y28448000D03*
X50038000Y28448000D03*
%TO.N,LINE*%
X10668000Y51816000D03*
X12700000Y51816000D03*
X8636000Y49276000D03*
X11684000Y52832000D03*
X13208000Y53340000D03*
X9144000Y47752000D03*
X12700000Y54610000D03*
X9144000Y50800000D03*
X10160000Y49276000D03*
X11176000Y50292000D03*
%TO.N,USART1_RX*%
X43561000Y7874000D03*
X40132000Y5715000D03*
%TO.N,USART1_TX*%
X44455708Y14725573D03*
X39370000Y7112000D03*
%TO.N,USB_D+*%
X58978800Y12954000D03*
X47634768Y18297768D03*
%TO.N,USB_D-*%
X56134000Y14986000D03*
X48377232Y19040232D03*
%TO.N,Relay_Ctrl*%
X38481000Y16510000D03*
X35687000Y13589000D03*
%TO.N,Net-(D2-K)*%
X35814000Y26052000D03*
X35814000Y23114000D03*
%TD*%
D27*
%TO.N,USB_D+*%
X47634768Y18278232D02*
X47634768Y18297768D01*
X51790600Y14122400D02*
X47634768Y18278232D01*
X58978800Y12954000D02*
X57810400Y14122400D01*
X57810400Y14122400D02*
X51790600Y14122400D01*
D28*
%TO.N,+3V3*%
X56845200Y15951200D02*
X53644800Y15951200D01*
X61061600Y20167600D02*
X56845200Y15951200D01*
X62992000Y20167600D02*
X61061600Y20167600D01*
D29*
%TO.N,VBUS*%
X57708800Y11074400D02*
X57251600Y10617200D01*
X62585600Y11074400D02*
X57708800Y11074400D01*
D28*
%TO.N,USART1_TX*%
X41910000Y9652000D02*
X39370000Y7112000D01*
X41910000Y13665200D02*
X41910000Y9652000D01*
X42970373Y14725573D02*
X41910000Y13665200D01*
X44455708Y14725573D02*
X42970373Y14725573D01*
D27*
%TO.N,USB_D-*%
X56134000Y14986000D02*
X52451000Y14986000D01*
X48396768Y19040232D02*
X48377232Y19040232D01*
X52451000Y14986000D02*
X48396768Y19040232D01*
D30*
%TO.N,Net-(J6-Pin_1)*%
X16815000Y35565000D02*
X17780000Y36530000D01*
X6604000Y35565000D02*
X16815000Y35565000D01*
%TO.N,Net-(J6-Pin_2)*%
X31355000Y30485000D02*
X31360000Y30480000D01*
X6604000Y30485000D02*
X31355000Y30485000D01*
%TO.N,Net-(J6-Pin_3)*%
X16805000Y25405000D02*
X17730000Y24480000D01*
X6604000Y25405000D02*
X16805000Y25405000D01*
D28*
%TO.N,+3V3*%
X40640000Y17018000D02*
X41148000Y16510000D01*
X40640000Y21590000D02*
X40640000Y17018000D01*
%TO.N,GND*%
X52215776Y20807618D02*
X53360382Y20807618D01*
X53360382Y20807618D02*
X54483000Y19685000D01*
%TO.N,NRST*%
X45212000Y17653000D02*
X48133000Y20574000D01*
X31242000Y10033000D02*
X40513000Y10033000D01*
X45212000Y12065000D02*
X45212000Y17653000D01*
D30*
%TO.N,Net-(C9-Pad1)*%
X25400000Y55642000D02*
X30362000Y55642000D01*
X30362000Y55642000D02*
X31750000Y57030000D01*
X22844000Y53086000D02*
X22844000Y55626000D01*
X22844000Y55626000D02*
X22860000Y55642000D01*
X22860000Y55642000D02*
X25400000Y55642000D01*
X30362000Y55642000D02*
X31616500Y54387500D01*
X31616500Y54387500D02*
X34392500Y54387500D01*
X20260000Y55642000D02*
X22860000Y55642000D01*
X20260000Y55642000D02*
X22816000Y53086000D01*
X41624500Y54387500D02*
X34392500Y54387500D01*
X22816000Y53086000D02*
X22844000Y53086000D01*
X22844000Y49724000D02*
X22844000Y53086000D01*
X34392500Y54387500D02*
X31750000Y57030000D01*
X22844000Y53086000D02*
X25400000Y55642000D01*
%TO.N,/NEUT-OUT*%
X59364500Y44387500D02*
X61722000Y42030000D01*
X73332500Y42030000D02*
X78820000Y47517500D01*
X51624500Y44387500D02*
X59364500Y44387500D01*
X61722000Y42030000D02*
X73332500Y42030000D01*
%TO.N,/LINE-OUT*%
X61722000Y57030000D02*
X77082000Y57030000D01*
X51624500Y54387500D02*
X59079500Y54387500D01*
X83820000Y50292000D02*
X83820000Y47517500D01*
X59079500Y54387500D02*
X61722000Y57030000D01*
X77082000Y57030000D02*
X83820000Y50292000D01*
D31*
%TO.N,+5V*%
X66040000Y28448000D02*
X50038000Y28448000D01*
D28*
%TO.N,USART1_RX*%
X43561000Y7874000D02*
X41402000Y5715000D01*
X41402000Y5715000D02*
X40259000Y5715000D01*
X40259000Y5715000D02*
X40132000Y5715000D01*
D29*
%TO.N,Relay_Ctrl*%
X35687000Y13589000D02*
X37592000Y13589000D01*
X37592000Y13589000D02*
X38481000Y14478000D01*
X38481000Y14478000D02*
X38481000Y16510000D01*
D28*
%TO.N,Net-(D2-K)*%
X35814000Y23114000D02*
X35814000Y26052000D01*
%TD*%
%TA.AperFunction,Conductor*%
%TO.N,GND*%
G36*
X92653039Y35540315D02*
G01*
X92698794Y35487511D01*
X92710000Y35436000D01*
X92710000Y10211362D01*
X92690315Y10144323D01*
X92673681Y10123681D01*
X91476319Y8926319D01*
X91414996Y8892834D01*
X91388638Y8890000D01*
X86359999Y8890000D01*
X85090000Y7620001D01*
X85090000Y2591362D01*
X85070315Y2524323D01*
X85053681Y2503681D01*
X83856319Y1306319D01*
X83794996Y1272834D01*
X83768638Y1270000D01*
X12824000Y1270000D01*
X12756961Y1289685D01*
X12711206Y1342489D01*
X12700000Y1394000D01*
X12700000Y2404130D01*
X29637500Y2404130D01*
X29637501Y2404124D01*
X29643908Y2344517D01*
X29694202Y2209672D01*
X29694206Y2209665D01*
X29780452Y2094456D01*
X29780455Y2094453D01*
X29895664Y2008207D01*
X29895671Y2008203D01*
X30030517Y1957909D01*
X30030516Y1957909D01*
X30037444Y1957165D01*
X30090127Y1951500D01*
X31885872Y1951501D01*
X31945483Y1957909D01*
X32080331Y2008204D01*
X32195546Y2094454D01*
X32281796Y2209669D01*
X32330810Y2341084D01*
X32372681Y2397016D01*
X32438145Y2421434D01*
X32506418Y2406583D01*
X32534673Y2385431D01*
X32656599Y2263505D01*
X32753384Y2195735D01*
X32850165Y2127968D01*
X32850167Y2127967D01*
X32850170Y2127965D01*
X33064337Y2028097D01*
X33292592Y1966937D01*
X33469034Y1951500D01*
X33527999Y1946341D01*
X33528000Y1946341D01*
X33528001Y1946341D01*
X33586966Y1951500D01*
X33763408Y1966937D01*
X33991663Y2028097D01*
X34205830Y2127965D01*
X34399401Y2263505D01*
X34566495Y2430599D01*
X34696425Y2616158D01*
X34751002Y2659783D01*
X34820500Y2666977D01*
X34882855Y2635454D01*
X34899575Y2616158D01*
X35029281Y2430918D01*
X35029505Y2430599D01*
X35196599Y2263505D01*
X35293384Y2195735D01*
X35390165Y2127968D01*
X35390167Y2127967D01*
X35390170Y2127965D01*
X35604337Y2028097D01*
X35832592Y1966937D01*
X36009034Y1951500D01*
X36067999Y1946341D01*
X36068000Y1946341D01*
X36068001Y1946341D01*
X36126966Y1951500D01*
X36303408Y1966937D01*
X36531663Y2028097D01*
X36745830Y2127965D01*
X36939401Y2263505D01*
X37106495Y2430599D01*
X37236730Y2616595D01*
X37291307Y2660219D01*
X37360805Y2667413D01*
X37423160Y2635890D01*
X37439879Y2616595D01*
X37569890Y2430922D01*
X37736917Y2263895D01*
X37930421Y2128400D01*
X38144507Y2028571D01*
X38144516Y2028567D01*
X38358000Y1971366D01*
X38358000Y2868988D01*
X38415007Y2836075D01*
X38542174Y2802000D01*
X38673826Y2802000D01*
X38800993Y2836075D01*
X38858000Y2868988D01*
X38858000Y1971367D01*
X39071483Y2028567D01*
X39071492Y2028571D01*
X39285578Y2128400D01*
X39479082Y2263895D01*
X39619317Y2404130D01*
X42337500Y2404130D01*
X42337501Y2404124D01*
X42343908Y2344517D01*
X42394202Y2209672D01*
X42394206Y2209665D01*
X42480452Y2094456D01*
X42480455Y2094453D01*
X42595664Y2008207D01*
X42595671Y2008203D01*
X42730517Y1957909D01*
X42730516Y1957909D01*
X42737444Y1957165D01*
X42790127Y1951500D01*
X44585872Y1951501D01*
X44645483Y1957909D01*
X44780331Y2008204D01*
X44895546Y2094454D01*
X44981796Y2209669D01*
X45030810Y2341084D01*
X45072681Y2397016D01*
X45138145Y2421434D01*
X45206418Y2406583D01*
X45234673Y2385431D01*
X45356599Y2263505D01*
X45453384Y2195735D01*
X45550165Y2127968D01*
X45550167Y2127967D01*
X45550170Y2127965D01*
X45764337Y2028097D01*
X45992592Y1966937D01*
X46169034Y1951500D01*
X46227999Y1946341D01*
X46228000Y1946341D01*
X46228001Y1946341D01*
X46286966Y1951500D01*
X46463408Y1966937D01*
X46691663Y2028097D01*
X46905830Y2127965D01*
X47099401Y2263505D01*
X47266495Y2430599D01*
X47396425Y2616158D01*
X47451002Y2659783D01*
X47520500Y2666977D01*
X47582855Y2635454D01*
X47599575Y2616158D01*
X47729281Y2430918D01*
X47729505Y2430599D01*
X47896599Y2263505D01*
X47993384Y2195735D01*
X48090165Y2127968D01*
X48090167Y2127967D01*
X48090170Y2127965D01*
X48304337Y2028097D01*
X48532592Y1966937D01*
X48709034Y1951500D01*
X48767999Y1946341D01*
X48768000Y1946341D01*
X48768001Y1946341D01*
X48826966Y1951500D01*
X49003408Y1966937D01*
X49231663Y2028097D01*
X49445830Y2127965D01*
X49639401Y2263505D01*
X49806495Y2430599D01*
X49936730Y2616595D01*
X49991307Y2660219D01*
X50060805Y2667413D01*
X50123160Y2635890D01*
X50139879Y2616595D01*
X50269890Y2430922D01*
X50436917Y2263895D01*
X50630421Y2128400D01*
X50844507Y2028571D01*
X50844516Y2028567D01*
X51058000Y1971366D01*
X51058000Y2868988D01*
X51115007Y2836075D01*
X51242174Y2802000D01*
X51373826Y2802000D01*
X51500993Y2836075D01*
X51558000Y2868988D01*
X51558000Y1971367D01*
X51771483Y2028567D01*
X51771492Y2028571D01*
X51985578Y2128400D01*
X52179082Y2263895D01*
X52346105Y2430918D01*
X52481600Y2624422D01*
X52581429Y2838508D01*
X52581432Y2838514D01*
X52638636Y3052000D01*
X51741012Y3052000D01*
X51773925Y3109007D01*
X51808000Y3236174D01*
X51808000Y3367826D01*
X51773925Y3494993D01*
X51741012Y3552000D01*
X52638636Y3552000D01*
X52638635Y3552001D01*
X52617332Y3631505D01*
X54370000Y3631505D01*
X54408427Y3438319D01*
X54408430Y3438307D01*
X54483807Y3256329D01*
X54483814Y3256316D01*
X54593248Y3092538D01*
X54593251Y3092534D01*
X54732533Y2953252D01*
X54732537Y2953249D01*
X54896315Y2843815D01*
X54896328Y2843808D01*
X55078308Y2768431D01*
X55120000Y2760138D01*
X55120000Y3563012D01*
X55129940Y3545795D01*
X55185795Y3489940D01*
X55254204Y3450444D01*
X55330504Y3430000D01*
X55409496Y3430000D01*
X55485796Y3450444D01*
X55554205Y3489940D01*
X55610060Y3545795D01*
X55620000Y3563012D01*
X55620000Y2760138D01*
X55661690Y2768431D01*
X55661692Y2768431D01*
X55843671Y2843808D01*
X55843684Y2843815D01*
X56007462Y2953249D01*
X56007466Y2953252D01*
X56146748Y3092534D01*
X56146751Y3092538D01*
X56256185Y3256316D01*
X56256192Y3256329D01*
X56331569Y3438307D01*
X56331572Y3438319D01*
X56369999Y3631505D01*
X63010000Y3631505D01*
X63048427Y3438319D01*
X63048430Y3438307D01*
X63123807Y3256329D01*
X63123814Y3256316D01*
X63233248Y3092538D01*
X63233251Y3092534D01*
X63372533Y2953252D01*
X63372537Y2953249D01*
X63536315Y2843815D01*
X63536328Y2843808D01*
X63718308Y2768431D01*
X63760000Y2760138D01*
X63760000Y3563012D01*
X63769940Y3545795D01*
X63825795Y3489940D01*
X63894204Y3450444D01*
X63970504Y3430000D01*
X64049496Y3430000D01*
X64125796Y3450444D01*
X64194205Y3489940D01*
X64250060Y3545795D01*
X64260000Y3563012D01*
X64260000Y2760138D01*
X64301690Y2768431D01*
X64301692Y2768431D01*
X64483671Y2843808D01*
X64483684Y2843815D01*
X64647462Y2953249D01*
X64647466Y2953252D01*
X64786748Y3092534D01*
X64786751Y3092538D01*
X64896185Y3256316D01*
X64896192Y3256329D01*
X64971569Y3438307D01*
X64971572Y3438319D01*
X65009999Y3631505D01*
X65010000Y3631508D01*
X65010000Y3780000D01*
X64310000Y3780000D01*
X64310000Y4280000D01*
X65010000Y4280000D01*
X65010000Y4428492D01*
X65009999Y4428496D01*
X64971572Y4621682D01*
X64971569Y4621694D01*
X64896192Y4803672D01*
X64896185Y4803685D01*
X64786751Y4967463D01*
X64786748Y4967467D01*
X64647466Y5106749D01*
X64647462Y5106752D01*
X64483684Y5216186D01*
X64483671Y5216193D01*
X64301691Y5291571D01*
X64301683Y5291573D01*
X64260000Y5299865D01*
X64260000Y4496989D01*
X64250060Y4514205D01*
X64194205Y4570060D01*
X64125796Y4609556D01*
X64049496Y4630000D01*
X63970504Y4630000D01*
X63894204Y4609556D01*
X63825795Y4570060D01*
X63769940Y4514205D01*
X63760000Y4496989D01*
X63760000Y5299864D01*
X63759999Y5299865D01*
X63718316Y5291573D01*
X63718308Y5291571D01*
X63536328Y5216193D01*
X63536315Y5216186D01*
X63372537Y5106752D01*
X63372533Y5106749D01*
X63233251Y4967467D01*
X63233248Y4967463D01*
X63123814Y4803685D01*
X63123807Y4803672D01*
X63048430Y4621694D01*
X63048427Y4621682D01*
X63010000Y4428496D01*
X63010000Y4280000D01*
X63710000Y4280000D01*
X63710000Y3780000D01*
X63010000Y3780000D01*
X63010000Y3631505D01*
X56369999Y3631505D01*
X56370000Y3631508D01*
X56370000Y3780000D01*
X55670000Y3780000D01*
X55670000Y4280000D01*
X56370000Y4280000D01*
X56370000Y4428492D01*
X56369999Y4428496D01*
X56331572Y4621682D01*
X56331569Y4621694D01*
X56256192Y4803672D01*
X56256185Y4803685D01*
X56146751Y4967463D01*
X56146748Y4967467D01*
X56007466Y5106749D01*
X56007462Y5106752D01*
X55843684Y5216186D01*
X55843671Y5216193D01*
X55661691Y5291571D01*
X55661683Y5291573D01*
X55620000Y5299865D01*
X55620000Y4496989D01*
X55610060Y4514205D01*
X55554205Y4570060D01*
X55485796Y4609556D01*
X55409496Y4630000D01*
X55330504Y4630000D01*
X55254204Y4609556D01*
X55185795Y4570060D01*
X55129940Y4514205D01*
X55120000Y4496989D01*
X55120000Y5299864D01*
X55119999Y5299865D01*
X55078316Y5291573D01*
X55078308Y5291571D01*
X54896328Y5216193D01*
X54896315Y5216186D01*
X54732537Y5106752D01*
X54732533Y5106749D01*
X54593251Y4967467D01*
X54593248Y4967463D01*
X54483814Y4803685D01*
X54483807Y4803672D01*
X54408430Y4621694D01*
X54408427Y4621682D01*
X54370000Y4428496D01*
X54370000Y4280000D01*
X55070000Y4280000D01*
X55070000Y3780000D01*
X54370000Y3780000D01*
X54370000Y3631505D01*
X52617332Y3631505D01*
X52581432Y3765487D01*
X52581429Y3765493D01*
X52481600Y3979578D01*
X52481599Y3979580D01*
X52346113Y4173074D01*
X52346108Y4173080D01*
X52179082Y4340106D01*
X51985578Y4475601D01*
X51771492Y4575430D01*
X51771486Y4575433D01*
X51558000Y4632636D01*
X51558000Y3735012D01*
X51500993Y3767925D01*
X51373826Y3802000D01*
X51242174Y3802000D01*
X51115007Y3767925D01*
X51058000Y3735012D01*
X51058000Y4632636D01*
X51057999Y4632636D01*
X50844513Y4575433D01*
X50844507Y4575430D01*
X50630422Y4475601D01*
X50630420Y4475600D01*
X50436926Y4340114D01*
X50436920Y4340109D01*
X50269891Y4173080D01*
X50269890Y4173078D01*
X50139880Y3987405D01*
X50085303Y3943781D01*
X50015804Y3936588D01*
X49953450Y3968110D01*
X49936730Y3987406D01*
X49806494Y4173403D01*
X49639402Y4340494D01*
X49639395Y4340499D01*
X49445834Y4476033D01*
X49445830Y4476035D01*
X49445828Y4476036D01*
X49231663Y4575903D01*
X49231659Y4575904D01*
X49231655Y4575906D01*
X49003413Y4637062D01*
X49003403Y4637064D01*
X48768001Y4657659D01*
X48767999Y4657659D01*
X48532596Y4637064D01*
X48532586Y4637062D01*
X48304344Y4575906D01*
X48304335Y4575902D01*
X48090171Y4476036D01*
X48090169Y4476035D01*
X47896597Y4340495D01*
X47729505Y4173403D01*
X47599575Y3987842D01*
X47544998Y3944217D01*
X47475500Y3937023D01*
X47413145Y3968546D01*
X47396425Y3987842D01*
X47266494Y4173403D01*
X47099402Y4340494D01*
X47099395Y4340499D01*
X46905834Y4476033D01*
X46905830Y4476035D01*
X46905828Y4476036D01*
X46691663Y4575903D01*
X46691659Y4575904D01*
X46691655Y4575906D01*
X46463413Y4637062D01*
X46463403Y4637064D01*
X46228001Y4657659D01*
X46227999Y4657659D01*
X45992596Y4637064D01*
X45992586Y4637062D01*
X45764344Y4575906D01*
X45764335Y4575902D01*
X45550171Y4476036D01*
X45550169Y4476035D01*
X45356600Y4340497D01*
X45234673Y4218570D01*
X45173350Y4185086D01*
X45103658Y4190070D01*
X45047725Y4231942D01*
X45030810Y4262919D01*
X44981797Y4394329D01*
X44981793Y4394336D01*
X44895547Y4509545D01*
X44895544Y4509548D01*
X44780335Y4595794D01*
X44780328Y4595798D01*
X44645482Y4646092D01*
X44645483Y4646092D01*
X44585883Y4652499D01*
X44585881Y4652500D01*
X44585873Y4652500D01*
X44585864Y4652500D01*
X42790129Y4652500D01*
X42790123Y4652499D01*
X42730516Y4646092D01*
X42595671Y4595798D01*
X42595664Y4595794D01*
X42480455Y4509548D01*
X42480452Y4509545D01*
X42394206Y4394336D01*
X42394202Y4394329D01*
X42343908Y4259483D01*
X42337501Y4199884D01*
X42337500Y4199865D01*
X42337500Y2404130D01*
X39619317Y2404130D01*
X39646105Y2430918D01*
X39781600Y2624422D01*
X39881429Y2838508D01*
X39881432Y2838514D01*
X39938636Y3052000D01*
X39041012Y3052000D01*
X39073925Y3109007D01*
X39108000Y3236174D01*
X39108000Y3367826D01*
X39073925Y3494993D01*
X39041012Y3552000D01*
X39938636Y3552000D01*
X39938635Y3552001D01*
X39881432Y3765487D01*
X39881429Y3765493D01*
X39781600Y3979578D01*
X39781599Y3979580D01*
X39646113Y4173074D01*
X39646108Y4173080D01*
X39479082Y4340106D01*
X39285578Y4475601D01*
X39071492Y4575430D01*
X39071486Y4575433D01*
X38858000Y4632636D01*
X38858000Y3735012D01*
X38800993Y3767925D01*
X38673826Y3802000D01*
X38542174Y3802000D01*
X38415007Y3767925D01*
X38358000Y3735012D01*
X38358000Y4632636D01*
X38357999Y4632636D01*
X38144513Y4575433D01*
X38144507Y4575430D01*
X37930422Y4475601D01*
X37930420Y4475600D01*
X37736926Y4340114D01*
X37736920Y4340109D01*
X37569891Y4173080D01*
X37569890Y4173078D01*
X37439880Y3987405D01*
X37385303Y3943781D01*
X37315804Y3936588D01*
X37253450Y3968110D01*
X37236730Y3987406D01*
X37106494Y4173403D01*
X36939402Y4340494D01*
X36939395Y4340499D01*
X36745834Y4476033D01*
X36745830Y4476035D01*
X36745828Y4476036D01*
X36531663Y4575903D01*
X36531659Y4575904D01*
X36531655Y4575906D01*
X36303413Y4637062D01*
X36303403Y4637064D01*
X36068001Y4657659D01*
X36067999Y4657659D01*
X35832596Y4637064D01*
X35832586Y4637062D01*
X35604344Y4575906D01*
X35604335Y4575902D01*
X35390171Y4476036D01*
X35390169Y4476035D01*
X35196597Y4340495D01*
X35029505Y4173403D01*
X34899575Y3987842D01*
X34844998Y3944217D01*
X34775500Y3937023D01*
X34713145Y3968546D01*
X34696425Y3987842D01*
X34566494Y4173403D01*
X34399402Y4340494D01*
X34399395Y4340499D01*
X34205834Y4476033D01*
X34205830Y4476035D01*
X34205828Y4476036D01*
X33991663Y4575903D01*
X33991659Y4575904D01*
X33991655Y4575906D01*
X33763413Y4637062D01*
X33763403Y4637064D01*
X33528001Y4657659D01*
X33527999Y4657659D01*
X33292596Y4637064D01*
X33292586Y4637062D01*
X33064344Y4575906D01*
X33064335Y4575902D01*
X32850171Y4476036D01*
X32850169Y4476035D01*
X32656600Y4340497D01*
X32534673Y4218570D01*
X32473350Y4185086D01*
X32403658Y4190070D01*
X32347725Y4231942D01*
X32330810Y4262919D01*
X32281797Y4394329D01*
X32281793Y4394336D01*
X32195547Y4509545D01*
X32195544Y4509548D01*
X32080335Y4595794D01*
X32080328Y4595798D01*
X31945482Y4646092D01*
X31945483Y4646092D01*
X31885883Y4652499D01*
X31885881Y4652500D01*
X31885873Y4652500D01*
X31885864Y4652500D01*
X30090129Y4652500D01*
X30090123Y4652499D01*
X30030516Y4646092D01*
X29895671Y4595798D01*
X29895664Y4595794D01*
X29780455Y4509548D01*
X29780452Y4509545D01*
X29694206Y4394336D01*
X29694202Y4394329D01*
X29643908Y4259483D01*
X29637501Y4199884D01*
X29637500Y4199865D01*
X29637500Y2404130D01*
X12700000Y2404130D01*
X12700000Y5080000D01*
X8926319Y8853681D01*
X8892834Y8915004D01*
X8890000Y8941362D01*
X8890000Y9179995D01*
X11552357Y9179995D01*
X11572890Y8932188D01*
X11572892Y8932176D01*
X11633936Y8691119D01*
X11733826Y8463394D01*
X11869833Y8255218D01*
X11869836Y8255215D01*
X12038256Y8072262D01*
X12234491Y7919526D01*
X12453190Y7801172D01*
X12688386Y7720429D01*
X12933665Y7679500D01*
X13182335Y7679500D01*
X13427614Y7720429D01*
X13662810Y7801172D01*
X13881509Y7919526D01*
X14077744Y8072262D01*
X14246164Y8255215D01*
X14382173Y8463393D01*
X14482063Y8691119D01*
X14543108Y8932179D01*
X14548816Y9001064D01*
X14563643Y9179995D01*
X18052357Y9179995D01*
X18072890Y8932188D01*
X18072892Y8932176D01*
X18133936Y8691119D01*
X18233826Y8463394D01*
X18369833Y8255218D01*
X18369836Y8255215D01*
X18538256Y8072262D01*
X18734491Y7919526D01*
X18953190Y7801172D01*
X19188386Y7720429D01*
X19433665Y7679500D01*
X19682335Y7679500D01*
X19927614Y7720429D01*
X20162810Y7801172D01*
X20381509Y7919526D01*
X20577744Y8072262D01*
X20746164Y8255215D01*
X20882173Y8463393D01*
X20982063Y8691119D01*
X21043108Y8932179D01*
X21048816Y9001064D01*
X21063643Y9179995D01*
X21063643Y9180006D01*
X21043109Y9427813D01*
X21043107Y9427825D01*
X20982063Y9668882D01*
X20882173Y9896607D01*
X20793064Y10033000D01*
X30336540Y10033000D01*
X30356326Y9844744D01*
X30356327Y9844741D01*
X30414818Y9664723D01*
X30414821Y9664716D01*
X30509467Y9500784D01*
X30602498Y9397463D01*
X30636129Y9360112D01*
X30789265Y9248852D01*
X30789270Y9248849D01*
X30962192Y9171858D01*
X30962197Y9171856D01*
X31147354Y9132500D01*
X31147355Y9132500D01*
X31336644Y9132500D01*
X31336646Y9132500D01*
X31521803Y9171856D01*
X31694730Y9248849D01*
X31847871Y9360112D01*
X31851799Y9364475D01*
X31911286Y9401121D01*
X31943947Y9405500D01*
X39811053Y9405500D01*
X39878092Y9385815D01*
X39903199Y9364477D01*
X39907129Y9360112D01*
X39907132Y9360109D01*
X39907135Y9360107D01*
X40060265Y9248852D01*
X40060270Y9248849D01*
X40233197Y9171856D01*
X40264839Y9165131D01*
X40326319Y9131941D01*
X40360097Y9070778D01*
X40355446Y9001064D01*
X40326739Y8956160D01*
X39419400Y8048819D01*
X39358077Y8015334D01*
X39331719Y8012500D01*
X39275354Y8012500D01*
X39242897Y8005602D01*
X39090197Y7973145D01*
X39090192Y7973143D01*
X38917270Y7896152D01*
X38917265Y7896149D01*
X38764129Y7784889D01*
X38637466Y7644215D01*
X38542821Y7480285D01*
X38542818Y7480278D01*
X38506827Y7369507D01*
X38484326Y7300256D01*
X38464540Y7112000D01*
X38484326Y6923744D01*
X38484327Y6923741D01*
X38542818Y6743723D01*
X38542821Y6743716D01*
X38637467Y6579784D01*
X38764129Y6439112D01*
X38917265Y6327852D01*
X38917270Y6327849D01*
X39090192Y6250858D01*
X39090197Y6250856D01*
X39207179Y6225991D01*
X39268661Y6192799D01*
X39302437Y6131636D01*
X39299329Y6066383D01*
X39246326Y5903256D01*
X39226540Y5715000D01*
X39246326Y5526744D01*
X39246327Y5526741D01*
X39304818Y5346723D01*
X39304821Y5346716D01*
X39399467Y5182784D01*
X39522201Y5046474D01*
X39526129Y5042112D01*
X39679265Y4930852D01*
X39679270Y4930849D01*
X39852192Y4853858D01*
X39852197Y4853856D01*
X40037354Y4814500D01*
X40037355Y4814500D01*
X40226644Y4814500D01*
X40226646Y4814500D01*
X40411803Y4853856D01*
X40584730Y4930849D01*
X40737871Y5042112D01*
X40741799Y5046475D01*
X40801286Y5083121D01*
X40833947Y5087500D01*
X41463804Y5087500D01*
X41463805Y5087501D01*
X41585035Y5111614D01*
X41687164Y5153918D01*
X41699233Y5158917D01*
X41802008Y5227589D01*
X41889411Y5314992D01*
X43511600Y6937181D01*
X43572923Y6970666D01*
X43599281Y6973500D01*
X43655644Y6973500D01*
X43655646Y6973500D01*
X43840803Y7012856D01*
X44013730Y7089849D01*
X44166871Y7201112D01*
X44293533Y7341784D01*
X44388179Y7505716D01*
X44406306Y7561505D01*
X54370000Y7561505D01*
X54408427Y7368319D01*
X54408430Y7368307D01*
X54483807Y7186329D01*
X54483814Y7186316D01*
X54593248Y7022538D01*
X54593251Y7022534D01*
X54732533Y6883252D01*
X54732537Y6883249D01*
X54896315Y6773815D01*
X54896328Y6773808D01*
X55078308Y6698431D01*
X55120000Y6690138D01*
X55120000Y7493012D01*
X55129940Y7475795D01*
X55185795Y7419940D01*
X55254204Y7380444D01*
X55330504Y7360000D01*
X55409496Y7360000D01*
X55485796Y7380444D01*
X55554205Y7419940D01*
X55610060Y7475795D01*
X55620000Y7493012D01*
X55620000Y6690138D01*
X55661690Y6698431D01*
X55661692Y6698431D01*
X55843671Y6773808D01*
X55843684Y6773815D01*
X56007462Y6883249D01*
X56007466Y6883252D01*
X56146748Y7022534D01*
X56146754Y7022542D01*
X56219023Y7130699D01*
X56272635Y7175505D01*
X56341960Y7184212D01*
X56391016Y7164911D01*
X56427195Y7140737D01*
X56489504Y7099103D01*
X56489505Y7099103D01*
X56489506Y7099102D01*
X56489508Y7099101D01*
X56569033Y7066161D01*
X56608798Y7049690D01*
X56608800Y7049690D01*
X56608805Y7049688D01*
X56735434Y7024501D01*
X56735438Y7024500D01*
X56735439Y7024500D01*
X56864562Y7024500D01*
X56864563Y7024501D01*
X56906774Y7032897D01*
X56991194Y7049688D01*
X56991197Y7049690D01*
X56991202Y7049690D01*
X57110496Y7099103D01*
X57217857Y7170840D01*
X57309160Y7262143D01*
X57380897Y7369504D01*
X57430310Y7488798D01*
X57455499Y7615435D01*
X61924500Y7615435D01*
X61949687Y7488806D01*
X61949690Y7488797D01*
X61999100Y7369509D01*
X61999101Y7369507D01*
X62070839Y7262144D01*
X62070842Y7262140D01*
X62162139Y7170843D01*
X62162143Y7170840D01*
X62269504Y7099103D01*
X62269505Y7099103D01*
X62269506Y7099102D01*
X62269508Y7099101D01*
X62349033Y7066161D01*
X62388798Y7049690D01*
X62388800Y7049690D01*
X62388805Y7049688D01*
X62515434Y7024501D01*
X62515438Y7024500D01*
X62515439Y7024500D01*
X62644562Y7024500D01*
X62644563Y7024501D01*
X62686774Y7032897D01*
X62771194Y7049688D01*
X62771197Y7049690D01*
X62771202Y7049690D01*
X62890496Y7099103D01*
X62988984Y7164912D01*
X63055660Y7185789D01*
X63123040Y7167305D01*
X63160976Y7130700D01*
X63233248Y7022538D01*
X63233251Y7022534D01*
X63372533Y6883252D01*
X63372537Y6883249D01*
X63536315Y6773815D01*
X63536328Y6773808D01*
X63718308Y6698431D01*
X63760000Y6690138D01*
X63760000Y7493012D01*
X63769940Y7475795D01*
X63825795Y7419940D01*
X63894204Y7380444D01*
X63970504Y7360000D01*
X64049496Y7360000D01*
X64125796Y7380444D01*
X64194205Y7419940D01*
X64250060Y7475795D01*
X64260000Y7493012D01*
X64260000Y6690138D01*
X64301690Y6698431D01*
X64301692Y6698431D01*
X64483671Y6773808D01*
X64483684Y6773815D01*
X64647462Y6883249D01*
X64647466Y6883252D01*
X64786748Y7022534D01*
X64786751Y7022538D01*
X64896185Y7186316D01*
X64896192Y7186329D01*
X64971569Y7368307D01*
X64971572Y7368319D01*
X65009999Y7561505D01*
X65010000Y7561508D01*
X65010000Y7960000D01*
X64310000Y7960000D01*
X64310000Y8460000D01*
X65010000Y8460000D01*
X65010000Y8858492D01*
X65009999Y8858496D01*
X64971572Y9051682D01*
X64971569Y9051694D01*
X64896192Y9233672D01*
X64896185Y9233685D01*
X64786751Y9397463D01*
X64786748Y9397467D01*
X64647466Y9536749D01*
X64647462Y9536752D01*
X64483684Y9646186D01*
X64483671Y9646193D01*
X64301691Y9721571D01*
X64301683Y9721573D01*
X64260000Y9729865D01*
X64260000Y8926989D01*
X64250060Y8944205D01*
X64194205Y9000060D01*
X64125796Y9039556D01*
X64049496Y9060000D01*
X63970504Y9060000D01*
X63894204Y9039556D01*
X63825795Y9000060D01*
X63769940Y8944205D01*
X63760000Y8926989D01*
X63760000Y9729864D01*
X63759999Y9729865D01*
X63718316Y9721573D01*
X63718308Y9721571D01*
X63536328Y9646193D01*
X63536315Y9646186D01*
X63372537Y9536752D01*
X63372533Y9536749D01*
X63233251Y9397467D01*
X63233248Y9397463D01*
X63123814Y9233685D01*
X63123807Y9233672D01*
X63048430Y9051694D01*
X63048427Y9051682D01*
X63010000Y8858496D01*
X63010000Y8396976D01*
X62990315Y8329937D01*
X62937511Y8284182D01*
X62868353Y8274238D01*
X62838551Y8282414D01*
X62771202Y8310310D01*
X62771195Y8310312D01*
X62771194Y8310312D01*
X62771194Y8310313D01*
X62644565Y8335500D01*
X62644561Y8335500D01*
X62515439Y8335500D01*
X62515434Y8335500D01*
X62388805Y8310313D01*
X62388796Y8310310D01*
X62269508Y8260900D01*
X62269506Y8260899D01*
X62162143Y8189161D01*
X62162139Y8189158D01*
X62070842Y8097861D01*
X62070839Y8097857D01*
X61999101Y7990494D01*
X61999100Y7990492D01*
X61949690Y7871204D01*
X61949687Y7871195D01*
X61924500Y7744566D01*
X61924500Y7615435D01*
X57455499Y7615435D01*
X57455500Y7615439D01*
X57455500Y7744561D01*
X57447479Y7784888D01*
X57430312Y7871195D01*
X57430309Y7871204D01*
X57380899Y7990492D01*
X57380898Y7990494D01*
X57364300Y8015334D01*
X57309160Y8097857D01*
X57309157Y8097861D01*
X57217860Y8189158D01*
X57217856Y8189161D01*
X57110493Y8260899D01*
X57110491Y8260900D01*
X56991203Y8310310D01*
X56991194Y8310313D01*
X56864565Y8335500D01*
X56864561Y8335500D01*
X56735439Y8335500D01*
X56735434Y8335500D01*
X56608805Y8310313D01*
X56608805Y8310312D01*
X56608802Y8310311D01*
X56608798Y8310310D01*
X56541450Y8282414D01*
X56471982Y8274946D01*
X56409503Y8306222D01*
X56373851Y8366311D01*
X56370000Y8396976D01*
X56370000Y8858492D01*
X56369999Y8858496D01*
X56331572Y9051682D01*
X56331569Y9051694D01*
X56256192Y9233672D01*
X56256185Y9233685D01*
X56146751Y9397463D01*
X56146748Y9397467D01*
X56007466Y9536749D01*
X56007462Y9536752D01*
X55843684Y9646186D01*
X55843671Y9646193D01*
X55661691Y9721571D01*
X55661683Y9721573D01*
X55620000Y9729865D01*
X55620000Y8926989D01*
X55610060Y8944205D01*
X55554205Y9000060D01*
X55485796Y9039556D01*
X55409496Y9060000D01*
X55330504Y9060000D01*
X55254204Y9039556D01*
X55185795Y9000060D01*
X55129940Y8944205D01*
X55120000Y8926989D01*
X55120000Y9729864D01*
X55119999Y9729865D01*
X55078316Y9721573D01*
X55078308Y9721571D01*
X54896328Y9646193D01*
X54896315Y9646186D01*
X54732537Y9536752D01*
X54732533Y9536749D01*
X54593251Y9397467D01*
X54593248Y9397463D01*
X54483814Y9233685D01*
X54483807Y9233672D01*
X54408430Y9051694D01*
X54408427Y9051682D01*
X54370000Y8858496D01*
X54370000Y8460000D01*
X55070000Y8460000D01*
X55070000Y7960000D01*
X54370000Y7960000D01*
X54370000Y7561505D01*
X44406306Y7561505D01*
X44446674Y7685744D01*
X44466460Y7874000D01*
X44446674Y8062256D01*
X44388179Y8242284D01*
X44293533Y8406216D01*
X44166871Y8546888D01*
X44166870Y8546889D01*
X44013734Y8658149D01*
X44013729Y8658152D01*
X43840807Y8735143D01*
X43840802Y8735145D01*
X43695001Y8766135D01*
X43655646Y8774500D01*
X43466354Y8774500D01*
X43433897Y8767602D01*
X43281197Y8735145D01*
X43281192Y8735143D01*
X43108270Y8658152D01*
X43108265Y8658149D01*
X42955129Y8546889D01*
X42828466Y8406215D01*
X42733821Y8242285D01*
X42733818Y8242278D01*
X42680401Y8077876D01*
X42675326Y8062256D01*
X42665960Y7973144D01*
X42658011Y7897511D01*
X42631426Y7832897D01*
X42622371Y7822792D01*
X41178400Y6378819D01*
X41117077Y6345334D01*
X41090719Y6342500D01*
X40833947Y6342500D01*
X40766908Y6362185D01*
X40741800Y6383524D01*
X40737871Y6387888D01*
X40737869Y6387889D01*
X40737867Y6387892D01*
X40737864Y6387894D01*
X40584734Y6499149D01*
X40584729Y6499152D01*
X40411807Y6576143D01*
X40411802Y6576145D01*
X40294820Y6601010D01*
X40233338Y6634203D01*
X40199562Y6695366D01*
X40202669Y6760615D01*
X40255674Y6923744D01*
X40272989Y7088495D01*
X40299572Y7153106D01*
X40308619Y7163202D01*
X42397411Y9251991D01*
X42466083Y9354767D01*
X42513385Y9468965D01*
X42521276Y9508640D01*
X42537500Y9590194D01*
X42537500Y13353919D01*
X42557185Y13420958D01*
X42573819Y13441600D01*
X43193973Y14061754D01*
X43255296Y14095239D01*
X43281654Y14098073D01*
X43616122Y14098073D01*
X43683161Y14078388D01*
X43728916Y14025584D01*
X43738860Y13956426D01*
X43709835Y13892870D01*
X43663574Y13859512D01*
X43550843Y13812819D01*
X43550830Y13812812D01*
X43415583Y13722442D01*
X43415579Y13722439D01*
X43300561Y13607421D01*
X43300558Y13607417D01*
X43210188Y13472170D01*
X43210181Y13472157D01*
X43147935Y13321879D01*
X43147932Y13321870D01*
X43116200Y13162339D01*
X43116200Y12999662D01*
X43147932Y12840131D01*
X43147935Y12840122D01*
X43210181Y12689844D01*
X43210188Y12689831D01*
X43300558Y12554584D01*
X43300561Y12554580D01*
X43415579Y12439562D01*
X43415583Y12439559D01*
X43550830Y12349189D01*
X43550843Y12349182D01*
X43655388Y12305879D01*
X43701123Y12286935D01*
X43701125Y12286935D01*
X43701130Y12286933D01*
X43860661Y12255201D01*
X43860665Y12255200D01*
X43860666Y12255200D01*
X44023335Y12255200D01*
X44023335Y12255201D01*
X44153603Y12281112D01*
X44167896Y12283955D01*
X44237487Y12277728D01*
X44292665Y12234865D01*
X44315909Y12168975D01*
X44315408Y12149377D01*
X44306540Y12065001D01*
X44315408Y11980624D01*
X44302838Y11911894D01*
X44255106Y11860871D01*
X44187365Y11843753D01*
X44167896Y11846046D01*
X44023338Y11874800D01*
X44023334Y11874800D01*
X43860666Y11874800D01*
X43860661Y11874800D01*
X43701130Y11843068D01*
X43701121Y11843065D01*
X43550843Y11780819D01*
X43550830Y11780812D01*
X43415583Y11690442D01*
X43415579Y11690439D01*
X43300561Y11575421D01*
X43300558Y11575417D01*
X43210188Y11440170D01*
X43210181Y11440157D01*
X43147935Y11289879D01*
X43147932Y11289870D01*
X43116200Y11130339D01*
X43116200Y10967662D01*
X43147932Y10808131D01*
X43147935Y10808122D01*
X43210181Y10657844D01*
X43210188Y10657831D01*
X43300558Y10522584D01*
X43300561Y10522580D01*
X43415579Y10407562D01*
X43415583Y10407559D01*
X43550830Y10317189D01*
X43550843Y10317182D01*
X43663551Y10270498D01*
X43701123Y10254935D01*
X43701125Y10254935D01*
X43701130Y10254933D01*
X43860661Y10223201D01*
X43860665Y10223200D01*
X43860666Y10223200D01*
X44023335Y10223200D01*
X44023336Y10223201D01*
X44076515Y10233779D01*
X44182869Y10254933D01*
X44182872Y10254935D01*
X44182877Y10254935D01*
X44333163Y10317185D01*
X44468417Y10407559D01*
X44583441Y10522583D01*
X44646662Y10617200D01*
X56346140Y10617200D01*
X56365926Y10428944D01*
X56365927Y10428941D01*
X56424418Y10248923D01*
X56424421Y10248916D01*
X56519067Y10084984D01*
X56565874Y10033000D01*
X56645729Y9944312D01*
X56798865Y9833052D01*
X56798870Y9833049D01*
X56971792Y9756058D01*
X56971797Y9756056D01*
X57156954Y9716700D01*
X57156955Y9716700D01*
X57346244Y9716700D01*
X57346246Y9716700D01*
X57531403Y9756056D01*
X57704330Y9833049D01*
X57857471Y9944312D01*
X57984133Y10084984D01*
X58078779Y10248916D01*
X58115918Y10363219D01*
X58155355Y10420893D01*
X58219714Y10448092D01*
X58233849Y10448900D01*
X61881852Y10448900D01*
X61948891Y10429215D01*
X61974000Y10407874D01*
X61979726Y10401515D01*
X61979730Y10401511D01*
X62132865Y10290252D01*
X62132870Y10290249D01*
X62305792Y10213258D01*
X62305797Y10213256D01*
X62490954Y10173900D01*
X62490955Y10173900D01*
X62680244Y10173900D01*
X62680246Y10173900D01*
X62865403Y10213256D01*
X63038330Y10290249D01*
X63191471Y10401512D01*
X63318133Y10542184D01*
X63412779Y10706116D01*
X63471274Y10886144D01*
X63491060Y11074400D01*
X63471274Y11262656D01*
X63412779Y11442684D01*
X63318133Y11606616D01*
X63191471Y11747288D01*
X63191470Y11747289D01*
X63038334Y11858549D01*
X63038329Y11858552D01*
X62865407Y11935543D01*
X62865402Y11935545D01*
X62719601Y11966535D01*
X62680246Y11974900D01*
X62490954Y11974900D01*
X62458497Y11968002D01*
X62305797Y11935545D01*
X62305792Y11935543D01*
X62132870Y11858552D01*
X62132865Y11858549D01*
X61979730Y11747290D01*
X61979726Y11747286D01*
X61974000Y11740926D01*
X61914513Y11704279D01*
X61881852Y11699900D01*
X57647188Y11699900D01*
X57526355Y11675865D01*
X57526347Y11675863D01*
X57412516Y11628713D01*
X57365162Y11597071D01*
X57365161Y11597071D01*
X57310070Y11560261D01*
X57310062Y11560255D01*
X57303827Y11554019D01*
X57242504Y11520534D01*
X57216146Y11517700D01*
X57156954Y11517700D01*
X57124497Y11510802D01*
X56971797Y11478345D01*
X56971792Y11478343D01*
X56798870Y11401352D01*
X56798865Y11401349D01*
X56645729Y11290089D01*
X56519066Y11149415D01*
X56424421Y10985485D01*
X56424418Y10985478D01*
X56366792Y10808122D01*
X56365926Y10805456D01*
X56346140Y10617200D01*
X44646662Y10617200D01*
X44673815Y10657837D01*
X44736065Y10808123D01*
X44737861Y10817149D01*
X44767799Y10967662D01*
X44767800Y10967665D01*
X44767800Y11086601D01*
X44787485Y11153640D01*
X44840289Y11199395D01*
X44909447Y11209339D01*
X44930124Y11204530D01*
X44932194Y11203858D01*
X44932197Y11203856D01*
X44932199Y11203856D01*
X44932201Y11203855D01*
X45008739Y11187587D01*
X45117354Y11164500D01*
X45117355Y11164500D01*
X45306644Y11164500D01*
X45306646Y11164500D01*
X45491803Y11203856D01*
X45664730Y11280849D01*
X45817871Y11392112D01*
X45944533Y11532784D01*
X46039179Y11696716D01*
X46097674Y11876744D01*
X46117460Y12065000D01*
X46097674Y12253256D01*
X46039179Y12433284D01*
X45944533Y12597216D01*
X45871350Y12678494D01*
X45841120Y12741485D01*
X45839500Y12761466D01*
X45839500Y17341720D01*
X45859185Y17408759D01*
X45875815Y17429397D01*
X46558642Y18112225D01*
X46619963Y18145708D01*
X46689654Y18140724D01*
X46745588Y18098853D01*
X46764252Y18062860D01*
X46807586Y17929491D01*
X46807589Y17929484D01*
X46902235Y17765552D01*
X46947930Y17714803D01*
X47028897Y17624880D01*
X47182033Y17513620D01*
X47182038Y17513617D01*
X47354960Y17436626D01*
X47354965Y17436624D01*
X47540122Y17397268D01*
X47615135Y17397268D01*
X47682174Y17377583D01*
X47702816Y17360949D01*
X51305739Y13758026D01*
X51305749Y13758015D01*
X51310079Y13753685D01*
X51310080Y13753684D01*
X51421884Y13641880D01*
X51484321Y13605833D01*
X51508695Y13591761D01*
X51508697Y13591759D01*
X51546751Y13569789D01*
X51558815Y13562823D01*
X51711543Y13521899D01*
X51711546Y13521899D01*
X51877253Y13521899D01*
X51877269Y13521900D01*
X57510303Y13521900D01*
X57577342Y13502215D01*
X57597984Y13485581D01*
X58037021Y13046544D01*
X58070506Y12985221D01*
X58073340Y12958863D01*
X58073340Y12954003D01*
X58073340Y12954000D01*
X58093126Y12765744D01*
X58093127Y12765741D01*
X58151618Y12585723D01*
X58151621Y12585716D01*
X58246267Y12421784D01*
X58350637Y12305870D01*
X58372929Y12281112D01*
X58526065Y12169852D01*
X58526070Y12169849D01*
X58698992Y12092858D01*
X58698997Y12092856D01*
X58884154Y12053500D01*
X58884155Y12053500D01*
X59073444Y12053500D01*
X59073446Y12053500D01*
X59258603Y12092856D01*
X59431530Y12169849D01*
X59584671Y12281112D01*
X59711333Y12421784D01*
X59805979Y12585716D01*
X59864474Y12765744D01*
X59884260Y12954000D01*
X59864474Y13142256D01*
X59805979Y13322284D01*
X59711333Y13486216D01*
X59584671Y13626888D01*
X59584670Y13626889D01*
X59431534Y13738149D01*
X59431529Y13738152D01*
X59258607Y13815143D01*
X59258602Y13815145D01*
X59112801Y13846135D01*
X59073446Y13854500D01*
X59073445Y13854500D01*
X58978897Y13854500D01*
X58911858Y13874185D01*
X58891216Y13890819D01*
X58297990Y14484045D01*
X58297988Y14484048D01*
X58179117Y14602919D01*
X58179112Y14602923D01*
X58083593Y14658070D01*
X58083592Y14658071D01*
X58042190Y14681975D01*
X58042189Y14681976D01*
X58029663Y14685333D01*
X57889457Y14722901D01*
X57731343Y14722901D01*
X57723747Y14722901D01*
X57723731Y14722900D01*
X57149523Y14722900D01*
X57082484Y14742585D01*
X57036729Y14795389D01*
X57026202Y14859860D01*
X57039460Y14986000D01*
X57019674Y15174256D01*
X57006406Y15215088D01*
X57004410Y15284927D01*
X57040490Y15344760D01*
X57076882Y15367966D01*
X57108984Y15381263D01*
X57142433Y15395117D01*
X57245208Y15463789D01*
X57332611Y15551192D01*
X60112633Y18331214D01*
X72319500Y18331214D01*
X72349670Y18140724D01*
X72352754Y18121257D01*
X72410151Y17944607D01*
X72418444Y17919086D01*
X72514951Y17729680D01*
X72639890Y17557714D01*
X72790213Y17407391D01*
X72962179Y17282452D01*
X72962181Y17282451D01*
X72962184Y17282449D01*
X73151588Y17185943D01*
X73353757Y17120254D01*
X73563713Y17087000D01*
X73563714Y17087000D01*
X74076286Y17087000D01*
X74076287Y17087000D01*
X74286243Y17120254D01*
X74488412Y17185943D01*
X74677816Y17282449D01*
X74799894Y17371143D01*
X74849786Y17407391D01*
X74849788Y17407394D01*
X74849792Y17407396D01*
X75000104Y17557708D01*
X75000106Y17557712D01*
X75000109Y17557714D01*
X75125048Y17729680D01*
X75125049Y17729681D01*
X75125051Y17729684D01*
X75221557Y17919088D01*
X75287246Y18121257D01*
X75297738Y18187500D01*
X87342769Y18187500D01*
X87353242Y18121374D01*
X87353242Y18121371D01*
X87418904Y17919283D01*
X87515379Y17729943D01*
X87640272Y17558041D01*
X87640276Y17558036D01*
X87790535Y17407777D01*
X87790540Y17407773D01*
X87962442Y17282880D01*
X88151782Y17186405D01*
X88353870Y17120743D01*
X88563754Y17087500D01*
X88570000Y17087500D01*
X88570000Y18004488D01*
X88627007Y17971575D01*
X88754174Y17937500D01*
X88885826Y17937500D01*
X89012993Y17971575D01*
X89070000Y18004488D01*
X89070000Y17087500D01*
X89076246Y17087500D01*
X89286127Y17120743D01*
X89286130Y17120743D01*
X89488217Y17186405D01*
X89677557Y17282880D01*
X89849459Y17407773D01*
X89849464Y17407777D01*
X89999723Y17558036D01*
X89999727Y17558041D01*
X90124620Y17729943D01*
X90221095Y17919283D01*
X90286757Y18121371D01*
X90286757Y18121374D01*
X90297231Y18187500D01*
X89253012Y18187500D01*
X89285925Y18244507D01*
X89320000Y18371674D01*
X89320000Y18503326D01*
X89285925Y18630493D01*
X89253012Y18687500D01*
X90297231Y18687500D01*
X90286757Y18753627D01*
X90286757Y18753630D01*
X90221095Y18955718D01*
X90124620Y19145058D01*
X89999727Y19316960D01*
X89999723Y19316965D01*
X89849464Y19467224D01*
X89849459Y19467228D01*
X89677557Y19592121D01*
X89488217Y19688596D01*
X89286129Y19754258D01*
X89076246Y19787500D01*
X89070000Y19787500D01*
X89070000Y18870512D01*
X89012993Y18903425D01*
X88885826Y18937500D01*
X88754174Y18937500D01*
X88627007Y18903425D01*
X88570000Y18870512D01*
X88570000Y19787500D01*
X88563754Y19787500D01*
X88353872Y19754258D01*
X88353869Y19754258D01*
X88151782Y19688596D01*
X87962442Y19592121D01*
X87790540Y19467228D01*
X87790535Y19467224D01*
X87640276Y19316965D01*
X87640272Y19316960D01*
X87515379Y19145058D01*
X87418904Y18955718D01*
X87353242Y18753630D01*
X87353242Y18753627D01*
X87342769Y18687500D01*
X88386988Y18687500D01*
X88354075Y18630493D01*
X88320000Y18503326D01*
X88320000Y18371674D01*
X88354075Y18244507D01*
X88386988Y18187500D01*
X87342769Y18187500D01*
X75297738Y18187500D01*
X75320500Y18331213D01*
X75320500Y18543787D01*
X75287246Y18753743D01*
X75221557Y18955912D01*
X75125051Y19145316D01*
X75125049Y19145319D01*
X75125048Y19145321D01*
X75000109Y19317287D01*
X74849786Y19467610D01*
X74677820Y19592549D01*
X74488414Y19689056D01*
X74488413Y19689057D01*
X74488412Y19689057D01*
X74286243Y19754746D01*
X74286241Y19754747D01*
X74286240Y19754747D01*
X74124957Y19780292D01*
X74076287Y19788000D01*
X73563713Y19788000D01*
X73515042Y19780292D01*
X73353760Y19754747D01*
X73151585Y19689056D01*
X72962179Y19592549D01*
X72790213Y19467610D01*
X72639890Y19317287D01*
X72514951Y19145321D01*
X72418444Y18955915D01*
X72352753Y18753740D01*
X72319500Y18543787D01*
X72319500Y18331214D01*
X60112633Y18331214D01*
X61285200Y19503781D01*
X61346523Y19537266D01*
X61372881Y19540100D01*
X62290053Y19540100D01*
X62357092Y19520415D01*
X62382199Y19499077D01*
X62386129Y19494712D01*
X62386132Y19494709D01*
X62386135Y19494707D01*
X62539265Y19383452D01*
X62539270Y19383449D01*
X62712192Y19306458D01*
X62712197Y19306456D01*
X62897354Y19267100D01*
X62897355Y19267100D01*
X63086644Y19267100D01*
X63086646Y19267100D01*
X63271803Y19306456D01*
X63444730Y19383449D01*
X63597871Y19494712D01*
X63724533Y19635384D01*
X63819179Y19799316D01*
X63877674Y19979344D01*
X63897460Y20167600D01*
X63877674Y20355856D01*
X63819179Y20535884D01*
X63724533Y20699816D01*
X63597871Y20840488D01*
X63597870Y20840489D01*
X63444734Y20951749D01*
X63444729Y20951752D01*
X63271807Y21028743D01*
X63271802Y21028745D01*
X63126001Y21059735D01*
X63086646Y21068100D01*
X62897354Y21068100D01*
X62864897Y21061202D01*
X62712197Y21028745D01*
X62712192Y21028743D01*
X62539270Y20951752D01*
X62539265Y20951749D01*
X62386135Y20840494D01*
X62386132Y20840492D01*
X62384175Y20838319D01*
X62382200Y20836126D01*
X62322714Y20799479D01*
X62290053Y20795100D01*
X60999795Y20795100D01*
X60878570Y20770987D01*
X60878560Y20770984D01*
X60764373Y20723687D01*
X60764360Y20723680D01*
X60661592Y20655012D01*
X60661588Y20655009D01*
X56621600Y16615019D01*
X56560277Y16581534D01*
X56533919Y16578700D01*
X54346747Y16578700D01*
X54279708Y16598385D01*
X54254600Y16619724D01*
X54250671Y16624088D01*
X54250669Y16624089D01*
X54250667Y16624092D01*
X54250664Y16624094D01*
X54097534Y16735349D01*
X54097529Y16735352D01*
X53924607Y16812343D01*
X53924602Y16812345D01*
X53778801Y16843335D01*
X53739446Y16851700D01*
X53550154Y16851700D01*
X53517697Y16844802D01*
X53364997Y16812345D01*
X53364992Y16812343D01*
X53192070Y16735352D01*
X53192065Y16735349D01*
X53038929Y16624089D01*
X52912266Y16483415D01*
X52817621Y16319485D01*
X52817618Y16319478D01*
X52759860Y16141716D01*
X52759126Y16139456D01*
X52739340Y15951200D01*
X52746996Y15878352D01*
X52750223Y15847656D01*
X52737653Y15778927D01*
X52689921Y15727903D01*
X52622181Y15710785D01*
X52555940Y15733008D01*
X52539221Y15747014D01*
X49318050Y18968185D01*
X49284565Y19029508D01*
X49282413Y19042886D01*
X49262906Y19228488D01*
X49204411Y19408516D01*
X49109765Y19572448D01*
X48983103Y19713120D01*
X48983102Y19713121D01*
X48844544Y19813789D01*
X48801878Y19869119D01*
X48795899Y19938732D01*
X48825277Y19997076D01*
X48865533Y20041784D01*
X48960179Y20205716D01*
X49018674Y20385744D01*
X49038460Y20574000D01*
X49018674Y20762256D01*
X48960179Y20942284D01*
X48865533Y21106216D01*
X48738871Y21246888D01*
X48738870Y21246889D01*
X48585734Y21358149D01*
X48585729Y21358152D01*
X48412807Y21435143D01*
X48412802Y21435145D01*
X48267001Y21466135D01*
X48227646Y21474500D01*
X48038354Y21474500D01*
X48005897Y21467602D01*
X47853197Y21435145D01*
X47853192Y21435143D01*
X47680270Y21358152D01*
X47680265Y21358149D01*
X47527129Y21246889D01*
X47400466Y21106215D01*
X47305821Y20942285D01*
X47305818Y20942278D01*
X47250163Y20770987D01*
X47247326Y20762256D01*
X47236054Y20655009D01*
X47230011Y20597511D01*
X47203426Y20532897D01*
X47194371Y20522792D01*
X45359081Y18687500D01*
X44811992Y18140411D01*
X44783804Y18112223D01*
X44724586Y18053006D01*
X44724585Y18053004D01*
X44655233Y17949211D01*
X44653586Y17944607D01*
X44608614Y17836036D01*
X44608614Y17836035D01*
X44587460Y17729684D01*
X44584500Y17714803D01*
X44584500Y17714802D01*
X44584500Y15750073D01*
X44564815Y15683034D01*
X44512011Y15637279D01*
X44460500Y15626073D01*
X44361062Y15626073D01*
X44328605Y15619175D01*
X44175905Y15586718D01*
X44175900Y15586716D01*
X44002978Y15509725D01*
X44002973Y15509722D01*
X43849843Y15398467D01*
X43849840Y15398465D01*
X43847883Y15396292D01*
X43845908Y15394099D01*
X43786422Y15357452D01*
X43753761Y15353073D01*
X42908565Y15353073D01*
X42787345Y15328961D01*
X42787337Y15328959D01*
X42706588Y15295511D01*
X42673141Y15281657D01*
X42673133Y15281653D01*
X42577550Y15217786D01*
X42577550Y15217785D01*
X42573511Y15215086D01*
X42570363Y15212983D01*
X42570362Y15212982D01*
X42039358Y14681977D01*
X41509992Y14152611D01*
X41478597Y14121216D01*
X41422587Y14065207D01*
X41353920Y13962440D01*
X41353913Y13962427D01*
X41345214Y13941423D01*
X41345214Y13941422D01*
X41306614Y13848236D01*
X41306612Y13848228D01*
X41282500Y13727008D01*
X41282500Y10830369D01*
X41262815Y10763330D01*
X41210011Y10717575D01*
X41140853Y10707631D01*
X41085615Y10730051D01*
X40965734Y10817149D01*
X40965729Y10817152D01*
X40792807Y10894143D01*
X40792802Y10894145D01*
X40647001Y10925135D01*
X40607646Y10933500D01*
X40418354Y10933500D01*
X40385897Y10926602D01*
X40233197Y10894145D01*
X40233192Y10894143D01*
X40060270Y10817152D01*
X40060265Y10817149D01*
X39907135Y10705894D01*
X39907132Y10705892D01*
X39905175Y10703719D01*
X39903200Y10701526D01*
X39843714Y10664879D01*
X39811053Y10660500D01*
X31943947Y10660500D01*
X31876908Y10680185D01*
X31851800Y10701524D01*
X31847871Y10705888D01*
X31847869Y10705889D01*
X31847867Y10705892D01*
X31847864Y10705894D01*
X31694734Y10817149D01*
X31694729Y10817152D01*
X31521807Y10894143D01*
X31521802Y10894145D01*
X31376001Y10925135D01*
X31336646Y10933500D01*
X31147354Y10933500D01*
X31114897Y10926602D01*
X30962197Y10894145D01*
X30962192Y10894143D01*
X30789270Y10817152D01*
X30789265Y10817149D01*
X30636129Y10705889D01*
X30509466Y10565215D01*
X30414821Y10401285D01*
X30414818Y10401278D01*
X30356327Y10221260D01*
X30356326Y10221256D01*
X30336540Y10033000D01*
X20793064Y10033000D01*
X20746166Y10104783D01*
X20682539Y10173900D01*
X20577744Y10287738D01*
X20381509Y10440474D01*
X20381507Y10440475D01*
X20381506Y10440476D01*
X20162811Y10558828D01*
X20162802Y10558831D01*
X19927616Y10639571D01*
X19682335Y10680500D01*
X19433665Y10680500D01*
X19188383Y10639571D01*
X18953197Y10558831D01*
X18953188Y10558828D01*
X18734493Y10440476D01*
X18538257Y10287739D01*
X18369833Y10104783D01*
X18233826Y9896607D01*
X18133936Y9668882D01*
X18072892Y9427825D01*
X18072890Y9427813D01*
X18052357Y9180006D01*
X18052357Y9179995D01*
X14563643Y9179995D01*
X14563643Y9180006D01*
X14543109Y9427813D01*
X14543107Y9427825D01*
X14482063Y9668882D01*
X14382173Y9896607D01*
X14246166Y10104783D01*
X14182539Y10173900D01*
X14077744Y10287738D01*
X13881509Y10440474D01*
X13881507Y10440475D01*
X13881506Y10440476D01*
X13662811Y10558828D01*
X13662802Y10558831D01*
X13427616Y10639571D01*
X13182335Y10680500D01*
X12933665Y10680500D01*
X12688383Y10639571D01*
X12453197Y10558831D01*
X12453188Y10558828D01*
X12234493Y10440476D01*
X12038257Y10287739D01*
X11869833Y10104783D01*
X11733826Y9896607D01*
X11633936Y9668882D01*
X11572892Y9427825D01*
X11572890Y9427813D01*
X11552357Y9180006D01*
X11552357Y9179995D01*
X8890000Y9179995D01*
X8890000Y11983662D01*
X38036200Y11983662D01*
X38067932Y11824131D01*
X38067935Y11824122D01*
X38130181Y11673844D01*
X38130188Y11673831D01*
X38220558Y11538584D01*
X38220561Y11538580D01*
X38335579Y11423562D01*
X38335583Y11423559D01*
X38470830Y11333189D01*
X38470843Y11333182D01*
X38548346Y11301080D01*
X38621123Y11270935D01*
X38621125Y11270935D01*
X38621130Y11270933D01*
X38780661Y11239201D01*
X38780665Y11239200D01*
X38780666Y11239200D01*
X38943335Y11239200D01*
X38943336Y11239201D01*
X38996515Y11249779D01*
X39102869Y11270933D01*
X39102872Y11270935D01*
X39102877Y11270935D01*
X39253163Y11333185D01*
X39388417Y11423559D01*
X39503441Y11538583D01*
X39593815Y11673837D01*
X39656065Y11824123D01*
X39659834Y11843068D01*
X39687799Y11983662D01*
X39687800Y11983665D01*
X39687800Y12146335D01*
X39687799Y12146339D01*
X39656067Y12305870D01*
X39656064Y12305879D01*
X39593818Y12456157D01*
X39593811Y12456170D01*
X39503441Y12591417D01*
X39503438Y12591421D01*
X39388420Y12706439D01*
X39388416Y12706442D01*
X39253169Y12796812D01*
X39253156Y12796819D01*
X39102878Y12859065D01*
X39102869Y12859068D01*
X38943338Y12890800D01*
X38943334Y12890800D01*
X38780666Y12890800D01*
X38780661Y12890800D01*
X38621130Y12859068D01*
X38621121Y12859065D01*
X38470843Y12796819D01*
X38470830Y12796812D01*
X38335583Y12706442D01*
X38335579Y12706439D01*
X38220561Y12591421D01*
X38220558Y12591417D01*
X38130188Y12456170D01*
X38130181Y12456157D01*
X38067935Y12305879D01*
X38067932Y12305870D01*
X38036200Y12146339D01*
X38036200Y11983662D01*
X8890000Y11983662D01*
X8890000Y13679995D01*
X11552859Y13679995D01*
X11573385Y13432271D01*
X11573387Y13432262D01*
X11634412Y13191283D01*
X11734266Y12963636D01*
X11834564Y12810118D01*
X12534212Y13509766D01*
X12545482Y13467708D01*
X12617890Y13342292D01*
X12720292Y13239890D01*
X12845708Y13167482D01*
X12887765Y13156213D01*
X12187942Y12456391D01*
X12234768Y12419945D01*
X12234770Y12419944D01*
X12453385Y12301636D01*
X12453396Y12301631D01*
X12688506Y12220917D01*
X12933707Y12180000D01*
X13182293Y12180000D01*
X13427493Y12220917D01*
X13662603Y12301631D01*
X13662614Y12301636D01*
X13881228Y12419943D01*
X13881231Y12419945D01*
X13928056Y12456391D01*
X13228234Y13156213D01*
X13270292Y13167482D01*
X13395708Y13239890D01*
X13498110Y13342292D01*
X13570518Y13467708D01*
X13581787Y13509765D01*
X14281434Y12810118D01*
X14381731Y12963631D01*
X14481587Y13191283D01*
X14542612Y13432262D01*
X14542614Y13432271D01*
X14563141Y13679995D01*
X18052859Y13679995D01*
X18073385Y13432271D01*
X18073387Y13432262D01*
X18134412Y13191283D01*
X18234266Y12963636D01*
X18334564Y12810118D01*
X19034212Y13509766D01*
X19045482Y13467708D01*
X19117890Y13342292D01*
X19220292Y13239890D01*
X19345708Y13167482D01*
X19387765Y13156213D01*
X18687942Y12456391D01*
X18734768Y12419945D01*
X18734770Y12419944D01*
X18953385Y12301636D01*
X18953396Y12301631D01*
X19188506Y12220917D01*
X19433707Y12180000D01*
X19682293Y12180000D01*
X19927493Y12220917D01*
X20162603Y12301631D01*
X20162614Y12301636D01*
X20381228Y12419943D01*
X20381231Y12419945D01*
X20428056Y12456391D01*
X19728234Y13156213D01*
X19770292Y13167482D01*
X19895708Y13239890D01*
X19998110Y13342292D01*
X20070518Y13467708D01*
X20081787Y13509765D01*
X20781434Y12810118D01*
X20881731Y12963631D01*
X20981587Y13191283D01*
X21042612Y13432262D01*
X21042614Y13432271D01*
X21055601Y13589000D01*
X34781540Y13589000D01*
X34801326Y13400744D01*
X34801327Y13400741D01*
X34859818Y13220723D01*
X34859821Y13220716D01*
X34954467Y13056784D01*
X35075401Y12922474D01*
X35081129Y12916112D01*
X35234265Y12804852D01*
X35234270Y12804849D01*
X35407192Y12727858D01*
X35407197Y12727856D01*
X35592354Y12688500D01*
X35592355Y12688500D01*
X35781644Y12688500D01*
X35781646Y12688500D01*
X35966803Y12727856D01*
X36139730Y12804849D01*
X36292871Y12916112D01*
X36295788Y12919353D01*
X36298600Y12922474D01*
X36358087Y12959121D01*
X36390748Y12963500D01*
X37653607Y12963500D01*
X37714029Y12975519D01*
X37774452Y12987537D01*
X37824496Y13008266D01*
X37888286Y13034688D01*
X37939509Y13068916D01*
X37990733Y13103142D01*
X38077858Y13190267D01*
X38077859Y13190269D01*
X38084925Y13197335D01*
X38084928Y13197339D01*
X38879729Y13992140D01*
X38879733Y13992142D01*
X38966858Y14079267D01*
X39035311Y14181714D01*
X39035312Y14181715D01*
X39063095Y14248790D01*
X39082463Y14295548D01*
X39106500Y14416394D01*
X39106500Y15811313D01*
X39126185Y15878352D01*
X39138350Y15894285D01*
X39156891Y15914878D01*
X39213533Y15977784D01*
X39308179Y16141716D01*
X39366674Y16321744D01*
X39386460Y16510000D01*
X39366674Y16698256D01*
X39308179Y16878284D01*
X39213533Y17042216D01*
X39086871Y17182888D01*
X39086870Y17182889D01*
X38933734Y17294149D01*
X38933729Y17294152D01*
X38760807Y17371143D01*
X38760802Y17371145D01*
X38600496Y17405218D01*
X38575646Y17410500D01*
X38386354Y17410500D01*
X38361504Y17405218D01*
X38201197Y17371145D01*
X38201192Y17371143D01*
X38028270Y17294152D01*
X38028265Y17294149D01*
X37875129Y17182889D01*
X37748466Y17042215D01*
X37653821Y16878285D01*
X37653818Y16878278D01*
X37595327Y16698260D01*
X37595326Y16698256D01*
X37575540Y16510000D01*
X37595326Y16321744D01*
X37595327Y16321741D01*
X37653818Y16141723D01*
X37653821Y16141716D01*
X37748467Y15977784D01*
X37772404Y15951200D01*
X37823650Y15894285D01*
X37853880Y15831294D01*
X37855500Y15811313D01*
X37855500Y14788452D01*
X37835815Y14721413D01*
X37819181Y14700771D01*
X37369229Y14250819D01*
X37307906Y14217334D01*
X37281548Y14214500D01*
X36390748Y14214500D01*
X36323709Y14234185D01*
X36298600Y14255526D01*
X36292873Y14261886D01*
X36292869Y14261890D01*
X36139734Y14373149D01*
X36139729Y14373152D01*
X35966807Y14450143D01*
X35966802Y14450145D01*
X35807296Y14484048D01*
X35781646Y14489500D01*
X35592354Y14489500D01*
X35566704Y14484048D01*
X35407197Y14450145D01*
X35407192Y14450143D01*
X35234270Y14373152D01*
X35234265Y14373149D01*
X35081129Y14261889D01*
X34954466Y14121215D01*
X34859821Y13957285D01*
X34859818Y13957278D01*
X34801327Y13777260D01*
X34801326Y13777256D01*
X34781540Y13589000D01*
X21055601Y13589000D01*
X21063141Y13679995D01*
X21063141Y13680006D01*
X21042614Y13927730D01*
X21042612Y13927739D01*
X20981587Y14168718D01*
X20881731Y14396370D01*
X20781434Y14549884D01*
X20081787Y13850236D01*
X20070518Y13892292D01*
X19998110Y14017708D01*
X19895708Y14120110D01*
X19770292Y14192518D01*
X19728235Y14203788D01*
X20428057Y14903610D01*
X20428056Y14903611D01*
X20381229Y14940057D01*
X20162614Y15058365D01*
X20162603Y15058370D01*
X19927493Y15139084D01*
X19682293Y15180000D01*
X19433707Y15180000D01*
X19188506Y15139084D01*
X18953396Y15058370D01*
X18953390Y15058368D01*
X18734761Y14940051D01*
X18687942Y14903612D01*
X18687942Y14903610D01*
X19387765Y14203788D01*
X19345708Y14192518D01*
X19220292Y14120110D01*
X19117890Y14017708D01*
X19045482Y13892292D01*
X19034212Y13850236D01*
X18334564Y14549884D01*
X18234267Y14396368D01*
X18134412Y14168718D01*
X18073387Y13927739D01*
X18073385Y13927730D01*
X18052859Y13680006D01*
X18052859Y13679995D01*
X14563141Y13679995D01*
X14563141Y13680006D01*
X14542614Y13927730D01*
X14542612Y13927739D01*
X14481587Y14168718D01*
X14381731Y14396370D01*
X14281434Y14549884D01*
X13581787Y13850236D01*
X13570518Y13892292D01*
X13498110Y14017708D01*
X13395708Y14120110D01*
X13270292Y14192518D01*
X13228235Y14203788D01*
X13928057Y14903610D01*
X13928056Y14903611D01*
X13881229Y14940057D01*
X13662614Y15058365D01*
X13662603Y15058370D01*
X13427493Y15139084D01*
X13182293Y15180000D01*
X12933707Y15180000D01*
X12688506Y15139084D01*
X12453396Y15058370D01*
X12453390Y15058368D01*
X12234761Y14940051D01*
X12187942Y14903612D01*
X12187942Y14903610D01*
X12887765Y14203788D01*
X12845708Y14192518D01*
X12720292Y14120110D01*
X12617890Y14017708D01*
X12545482Y13892292D01*
X12534212Y13850236D01*
X11834564Y14549884D01*
X11734267Y14396368D01*
X11634412Y14168718D01*
X11573387Y13927739D01*
X11573385Y13927730D01*
X11552859Y13680006D01*
X11552859Y13679995D01*
X8890000Y13679995D01*
X8890000Y13918638D01*
X8909685Y13985677D01*
X8926319Y14006319D01*
X12663681Y17743681D01*
X12725004Y17777166D01*
X12751362Y17780000D01*
X24130000Y17780000D01*
X26633681Y20283681D01*
X26695004Y20317166D01*
X26721362Y20320000D01*
X35306000Y20320000D01*
X35306000Y21590000D01*
X39734540Y21590000D01*
X39754326Y21401744D01*
X39754327Y21401741D01*
X39812818Y21221723D01*
X39812821Y21221716D01*
X39907467Y21057784D01*
X39980651Y20976506D01*
X40010880Y20913516D01*
X40012500Y20893535D01*
X40012500Y16956193D01*
X40036612Y16834973D01*
X40036614Y16834965D01*
X40070062Y16754215D01*
X40083915Y16720771D01*
X40083920Y16720762D01*
X40098958Y16698256D01*
X40130066Y16651700D01*
X40152589Y16617992D01*
X40209372Y16561209D01*
X40242856Y16499888D01*
X40245010Y16486495D01*
X40262326Y16321744D01*
X40262327Y16321741D01*
X40320818Y16141723D01*
X40320821Y16141716D01*
X40415467Y15977784D01*
X40490650Y15894285D01*
X40542129Y15837112D01*
X40695265Y15725852D01*
X40695270Y15725849D01*
X40868192Y15648858D01*
X40868197Y15648856D01*
X41053354Y15609500D01*
X41053355Y15609500D01*
X41242644Y15609500D01*
X41242646Y15609500D01*
X41427803Y15648856D01*
X41600730Y15725849D01*
X41753871Y15837112D01*
X41880533Y15977784D01*
X41975179Y16141716D01*
X42033674Y16321744D01*
X42053460Y16510000D01*
X42033674Y16698256D01*
X41975179Y16878284D01*
X41880533Y17042216D01*
X41753871Y17182888D01*
X41753870Y17182889D01*
X41600734Y17294149D01*
X41600729Y17294152D01*
X41427807Y17371143D01*
X41427803Y17371144D01*
X41365718Y17384341D01*
X41304237Y17417534D01*
X41270460Y17478697D01*
X41267500Y17505631D01*
X41267500Y20893535D01*
X41287185Y20960574D01*
X41299343Y20976500D01*
X41372533Y21057784D01*
X41467179Y21221716D01*
X41525674Y21401744D01*
X41545460Y21590000D01*
X41525674Y21778256D01*
X41467179Y21958284D01*
X41372533Y22122216D01*
X41245871Y22262888D01*
X41245870Y22262889D01*
X41092734Y22374149D01*
X41092729Y22374152D01*
X40919807Y22451143D01*
X40919802Y22451145D01*
X40774001Y22482135D01*
X40734646Y22490500D01*
X40545354Y22490500D01*
X40512897Y22483602D01*
X40360197Y22451145D01*
X40360192Y22451143D01*
X40187270Y22374152D01*
X40187265Y22374149D01*
X40034129Y22262889D01*
X39907466Y22122215D01*
X39812821Y21958285D01*
X39812818Y21958278D01*
X39754327Y21778260D01*
X39754326Y21778256D01*
X39734540Y21590000D01*
X35306000Y21590000D01*
X35306000Y22163513D01*
X35325685Y22230552D01*
X35378489Y22276307D01*
X35447647Y22286251D01*
X35480435Y22276793D01*
X35534197Y22252856D01*
X35719354Y22213500D01*
X35719355Y22213500D01*
X35908644Y22213500D01*
X35908646Y22213500D01*
X36093803Y22252856D01*
X36266730Y22329849D01*
X36419871Y22441112D01*
X36546533Y22581784D01*
X36641179Y22745716D01*
X36699674Y22925744D01*
X36719460Y23114000D01*
X36699674Y23302256D01*
X36641179Y23482284D01*
X36546533Y23646216D01*
X36473350Y23727494D01*
X36443120Y23790485D01*
X36441500Y23810466D01*
X36441500Y25355535D01*
X36461185Y25422574D01*
X36473343Y25438500D01*
X36546533Y25519784D01*
X36641179Y25683716D01*
X36699674Y25863744D01*
X36719460Y26052000D01*
X36699674Y26240256D01*
X36641179Y26420284D01*
X36546533Y26584216D01*
X36419871Y26724888D01*
X36400463Y26738989D01*
X36266734Y26836149D01*
X36266729Y26836152D01*
X36093807Y26913143D01*
X36093802Y26913145D01*
X35948001Y26944135D01*
X35908646Y26952500D01*
X35719354Y26952500D01*
X35686897Y26945602D01*
X35534197Y26913145D01*
X35534196Y26913145D01*
X35480435Y26889208D01*
X35411185Y26879924D01*
X35347908Y26909553D01*
X35310696Y26968688D01*
X35306000Y27002488D01*
X35306000Y28448000D01*
X49132540Y28448000D01*
X49152326Y28259744D01*
X49152327Y28259741D01*
X49210818Y28079723D01*
X49210821Y28079716D01*
X49305467Y27915784D01*
X49432129Y27775112D01*
X49585265Y27663852D01*
X49585270Y27663849D01*
X49758192Y27586858D01*
X49758197Y27586856D01*
X49943354Y27547500D01*
X49943355Y27547500D01*
X50132645Y27547500D01*
X50132646Y27547500D01*
X50209285Y27563791D01*
X50235066Y27566500D01*
X65842934Y27566500D01*
X65868714Y27563791D01*
X65945354Y27547500D01*
X65945355Y27547500D01*
X66134644Y27547500D01*
X66134646Y27547500D01*
X66319803Y27586856D01*
X66492730Y27663849D01*
X66645871Y27775112D01*
X66772533Y27915784D01*
X66867179Y28079716D01*
X66925674Y28259744D01*
X66945460Y28448000D01*
X66925674Y28636256D01*
X66867179Y28816284D01*
X66772533Y28980216D01*
X66645871Y29120888D01*
X66645870Y29120889D01*
X66492734Y29232149D01*
X66492729Y29232152D01*
X66319807Y29309143D01*
X66319802Y29309145D01*
X66174001Y29340135D01*
X66134646Y29348500D01*
X65945354Y29348500D01*
X65868715Y29332210D01*
X65842934Y29329500D01*
X50235066Y29329500D01*
X50209285Y29332210D01*
X50132646Y29348500D01*
X49943354Y29348500D01*
X49910897Y29341602D01*
X49758197Y29309145D01*
X49758192Y29309143D01*
X49585270Y29232152D01*
X49585265Y29232149D01*
X49432129Y29120889D01*
X49305466Y28980215D01*
X49210821Y28816285D01*
X49210818Y28816278D01*
X49187592Y28744794D01*
X49152326Y28636256D01*
X49132540Y28448000D01*
X35306000Y28448000D01*
X35306000Y35436000D01*
X35325685Y35503039D01*
X35378489Y35548794D01*
X35430000Y35560000D01*
X92586000Y35560000D01*
X92653039Y35540315D01*
G37*
%TD.AperFunction*%
%TD*%
%TA.AperFunction,Conductor*%
%TO.N,NEUT*%
G36*
X42423039Y45954315D02*
G01*
X42455200Y45924400D01*
X43155200Y44991067D01*
X43179676Y44925625D01*
X43180000Y44916667D01*
X43180000Y43739362D01*
X43160315Y43672323D01*
X43143681Y43651681D01*
X40168319Y40676319D01*
X40106996Y40642834D01*
X40080638Y40640000D01*
X16561362Y40640000D01*
X16494323Y40659685D01*
X16473681Y40676319D01*
X16002000Y41148000D01*
X12954000Y41148000D01*
X12192000Y41148000D01*
X5131362Y41148000D01*
X5064323Y41167685D01*
X5043681Y41184319D01*
X4100319Y42127681D01*
X4066834Y42189004D01*
X4064000Y42215362D01*
X4064000Y44144638D01*
X4083685Y44211677D01*
X4100319Y44232319D01*
X5043681Y45175681D01*
X5105004Y45209166D01*
X5131362Y45212000D01*
X7568638Y45212000D01*
X7635677Y45192315D01*
X7656319Y45175681D01*
X9144000Y43688000D01*
X38608000Y43688000D01*
X40857681Y45937681D01*
X40919004Y45971166D01*
X40945362Y45974000D01*
X42356000Y45974000D01*
X42423039Y45954315D01*
G37*
%TD.AperFunction*%
%TD*%
%TA.AperFunction,Conductor*%
%TO.N,LINE*%
G36*
X14167039Y58908315D02*
G01*
X14212794Y58855511D01*
X14224000Y58804000D01*
X14224000Y52624593D01*
X14204315Y52557554D01*
X14193320Y52542938D01*
X8927052Y46524345D01*
X8868092Y46486855D01*
X8833732Y46482000D01*
X3934000Y46482000D01*
X3866961Y46501685D01*
X3821206Y46554489D01*
X3810000Y46606000D01*
X3810000Y50168000D01*
X3829685Y50235039D01*
X3882489Y50280794D01*
X3934000Y50292000D01*
X7873999Y50292000D01*
X7874000Y50292000D01*
X11430000Y54356000D01*
X11430000Y58804000D01*
X11449685Y58871039D01*
X11502489Y58916794D01*
X11554000Y58928000D01*
X14100000Y58928000D01*
X14167039Y58908315D01*
G37*
%TD.AperFunction*%
%TD*%
M02*
