%TF.GenerationSoftware,KiCad,Pcbnew,8.0.1*%
%TF.CreationDate,2024-04-05T21:06:31+06:30*%
%TF.ProjectId,STM32_base,53544d33-325f-4626-9173-652e6b696361,rev?*%
%TF.SameCoordinates,PX48ab840PY853a720*%
%TF.FileFunction,Paste,Top*%
%TF.FilePolarity,Positive*%
%FSLAX46Y46*%
G04 Gerber Fmt 4.6, Leading zero omitted, Abs format (unit mm)*
G04 Created by KiCad (PCBNEW 8.0.1) date 2024-04-05 21:06:31*
%MOMM*%
%LPD*%
G01*
G04 APERTURE LIST*
G04 Aperture macros list*
%AMRoundRect*
0 Rectangle with rounded corners*
0 $1 Rounding radius*
0 $2 $3 $4 $5 $6 $7 $8 $9 X,Y pos of 4 corners*
0 Add a 4 corners polygon primitive as box body*
4,1,4,$2,$3,$4,$5,$6,$7,$8,$9,$2,$3,0*
0 Add four circle primitives for the rounded corners*
1,1,$1+$1,$2,$3*
1,1,$1+$1,$4,$5*
1,1,$1+$1,$6,$7*
1,1,$1+$1,$8,$9*
0 Add four rect primitives between the rounded corners*
20,1,$1+$1,$2,$3,$4,$5,0*
20,1,$1+$1,$4,$5,$6,$7,0*
20,1,$1+$1,$6,$7,$8,$9,0*
20,1,$1+$1,$8,$9,$2,$3,0*%
G04 Aperture macros list end*
%ADD10RoundRect,0.250000X0.625000X-0.375000X0.625000X0.375000X-0.625000X0.375000X-0.625000X-0.375000X0*%
%ADD11RoundRect,0.140000X0.170000X-0.140000X0.170000X0.140000X-0.170000X0.140000X-0.170000X-0.140000X0*%
%ADD12RoundRect,0.200000X-0.200000X-0.275000X0.200000X-0.275000X0.200000X0.275000X-0.200000X0.275000X0*%
%ADD13RoundRect,0.112500X-0.112500X0.187500X-0.112500X-0.187500X0.112500X-0.187500X0.112500X0.187500X0*%
%ADD14RoundRect,0.140000X-0.170000X0.140000X-0.170000X-0.140000X0.170000X-0.140000X0.170000X0.140000X0*%
%ADD15R,1.400000X1.200000*%
%ADD16RoundRect,0.250000X-0.475000X0.250000X-0.475000X-0.250000X0.475000X-0.250000X0.475000X0.250000X0*%
%ADD17RoundRect,0.218750X-0.218750X-0.256250X0.218750X-0.256250X0.218750X0.256250X-0.218750X0.256250X0*%
%ADD18RoundRect,0.150000X0.150000X-0.587500X0.150000X0.587500X-0.150000X0.587500X-0.150000X-0.587500X0*%
%ADD19RoundRect,0.200000X0.275000X-0.200000X0.275000X0.200000X-0.275000X0.200000X-0.275000X-0.200000X0*%
%ADD20RoundRect,0.200000X0.200000X0.275000X-0.200000X0.275000X-0.200000X-0.275000X0.200000X-0.275000X0*%
%ADD21R,0.600000X1.450000*%
%ADD22R,0.300000X1.450000*%
%ADD23RoundRect,0.218750X0.256250X-0.218750X0.256250X0.218750X-0.256250X0.218750X-0.256250X-0.218750X0*%
%ADD24RoundRect,0.200000X-0.275000X0.200000X-0.275000X-0.200000X0.275000X-0.200000X0.275000X0.200000X0*%
%ADD25RoundRect,0.075000X0.662500X0.075000X-0.662500X0.075000X-0.662500X-0.075000X0.662500X-0.075000X0*%
%ADD26RoundRect,0.075000X0.075000X0.662500X-0.075000X0.662500X-0.075000X-0.662500X0.075000X-0.662500X0*%
%ADD27RoundRect,0.225000X0.375000X-0.225000X0.375000X0.225000X-0.375000X0.225000X-0.375000X-0.225000X0*%
%ADD28RoundRect,0.375000X0.375000X-0.625000X0.375000X0.625000X-0.375000X0.625000X-0.375000X-0.625000X0*%
%ADD29RoundRect,0.500000X1.400000X-0.500000X1.400000X0.500000X-1.400000X0.500000X-1.400000X-0.500000X0*%
%ADD30RoundRect,0.225000X0.225000X0.250000X-0.225000X0.250000X-0.225000X-0.250000X0.225000X-0.250000X0*%
%ADD31RoundRect,0.250000X-1.750000X-1.000000X1.750000X-1.000000X1.750000X1.000000X-1.750000X1.000000X0*%
%ADD32RoundRect,0.140000X0.140000X0.170000X-0.140000X0.170000X-0.140000X-0.170000X0.140000X-0.170000X0*%
%ADD33RoundRect,0.093750X0.093750X-0.156250X0.093750X0.156250X-0.093750X0.156250X-0.093750X-0.156250X0*%
%ADD34RoundRect,0.075000X0.075000X-0.250000X0.075000X0.250000X-0.075000X0.250000X-0.075000X-0.250000X0*%
G04 APERTURE END LIST*
D10*
%TO.C,F1*%
X67767200Y12976400D03*
X67767200Y15776400D03*
%TD*%
D11*
%TO.C,C6*%
X54483000Y17554000D03*
X54483000Y18514000D03*
%TD*%
D12*
%TO.C,R2*%
X56452000Y20701000D03*
X58102000Y20701000D03*
%TD*%
D11*
%TO.C,C7*%
X23876000Y10035600D03*
X23876000Y10995600D03*
%TD*%
D13*
%TO.C,D1*%
X67818000Y20404800D03*
X67818000Y18304800D03*
%TD*%
D11*
%TO.C,C3*%
X52705000Y21618000D03*
X52705000Y22578000D03*
%TD*%
D14*
%TO.C,C5*%
X42164000Y16482000D03*
X42164000Y15522000D03*
%TD*%
D15*
%TO.C,Y1*%
X56177000Y17184000D03*
X58377000Y17184000D03*
X58377000Y18884000D03*
X56177000Y18884000D03*
%TD*%
D16*
%TO.C,C14*%
X37592000Y21972000D03*
X37592000Y20072000D03*
%TD*%
D17*
%TO.C,FB1*%
X63830100Y12903200D03*
X65405100Y12903200D03*
%TD*%
D18*
%TO.C,Q1*%
X28194000Y15748000D03*
X30094000Y15748000D03*
X29144000Y17623000D03*
%TD*%
D19*
%TO.C,R7*%
X29652000Y11972000D03*
X29652000Y13622000D03*
%TD*%
D20*
%TO.C,R6*%
X33525000Y13622000D03*
X31875000Y13622000D03*
%TD*%
D21*
%TO.C,J5*%
X56440000Y9125000D03*
X57240000Y9125000D03*
D22*
X58440000Y9125000D03*
X59440000Y9125000D03*
X59940000Y9125000D03*
X60940000Y9125000D03*
D21*
X62140000Y9125000D03*
X62940000Y9125000D03*
X62940000Y9125000D03*
X62140000Y9125000D03*
D22*
X61440000Y9125000D03*
X60440000Y9125000D03*
X58940000Y9125000D03*
X57940000Y9125000D03*
D21*
X57240000Y9125000D03*
X56440000Y9125000D03*
%TD*%
D23*
%TO.C,D2*%
X37084000Y29712500D03*
X37084000Y31287500D03*
%TD*%
D11*
%TO.C,C4*%
X43992800Y26190000D03*
X43992800Y27150000D03*
%TD*%
D24*
%TO.C,R1*%
X46990000Y13588000D03*
X46990000Y11938000D03*
%TD*%
D25*
%TO.C,U1*%
X50898500Y17570000D03*
X50898500Y18070000D03*
X50898500Y18570000D03*
X50898500Y19070000D03*
X50898500Y19570000D03*
X50898500Y20070000D03*
X50898500Y20570000D03*
X50898500Y21070000D03*
X50898500Y21570000D03*
X50898500Y22070000D03*
X50898500Y22570000D03*
X50898500Y23070000D03*
D26*
X49486000Y24482500D03*
X48986000Y24482500D03*
X48486000Y24482500D03*
X47986000Y24482500D03*
X47486000Y24482500D03*
X46986000Y24482500D03*
X46486000Y24482500D03*
X45986000Y24482500D03*
X45486000Y24482500D03*
X44986000Y24482500D03*
X44486000Y24482500D03*
X43986000Y24482500D03*
D25*
X42573500Y23070000D03*
X42573500Y22570000D03*
X42573500Y22070000D03*
X42573500Y21570000D03*
X42573500Y21070000D03*
X42573500Y20570000D03*
X42573500Y20070000D03*
X42573500Y19570000D03*
X42573500Y19070000D03*
X42573500Y18570000D03*
X42573500Y18070000D03*
X42573500Y17570000D03*
D26*
X43986000Y16157500D03*
X44486000Y16157500D03*
X44986000Y16157500D03*
X45486000Y16157500D03*
X45986000Y16157500D03*
X46486000Y16157500D03*
X46986000Y16157500D03*
X47486000Y16157500D03*
X47986000Y16157500D03*
X48486000Y16157500D03*
X48986000Y16157500D03*
X49486000Y16157500D03*
%TD*%
D27*
%TO.C,D3*%
X37592000Y24530000D03*
X37592000Y27830000D03*
%TD*%
D28*
%TO.C,U3*%
X62089000Y25806000D03*
X64389000Y25806000D03*
D29*
X64389000Y32106000D03*
D28*
X66689000Y25806000D03*
%TD*%
D30*
%TO.C,C12*%
X66589000Y23368000D03*
X65039000Y23368000D03*
%TD*%
D24*
%TO.C,R5*%
X38862000Y31305000D03*
X38862000Y29655000D03*
%TD*%
D31*
%TO.C,C11*%
X73787000Y7620000D03*
X81787000Y7620000D03*
%TD*%
D19*
%TO.C,R3*%
X61722900Y12129000D03*
X61722900Y13779000D03*
%TD*%
D14*
%TO.C,C1*%
X50546000Y15974000D03*
X50546000Y15014000D03*
%TD*%
D32*
%TO.C,C13*%
X63500000Y23368000D03*
X62540000Y23368000D03*
%TD*%
D19*
%TO.C,R4*%
X57658900Y12129000D03*
X57658900Y13779000D03*
%TD*%
D33*
%TO.C,U2*%
X59153400Y12104000D03*
D34*
X59690900Y12029000D03*
D33*
X60228400Y12104000D03*
X60228400Y13804000D03*
D34*
X59690900Y13879000D03*
D33*
X59153400Y13804000D03*
%TD*%
D14*
%TO.C,C2*%
X51689000Y15974000D03*
X51689000Y15014000D03*
%TD*%
%TO.C,C8*%
X60071000Y18514000D03*
X60071000Y17554000D03*
%TD*%
M02*
