M48
; DRILL file {KiCad 8.0.1} date 2024-04-05T21:07:11+0630
; FORMAT={-:-/ absolute / metric / decimal}
; #@! TF.CreationDate,2024-04-05T21:07:11+06:30
; #@! TF.GenerationSoftware,Kicad,Pcbnew,8.0.1
; #@! TF.FileFunction,MixedPlating,1,2
FMAT,2
METRIC
; #@! TA.AperFunction,Plated,PTH,ViaDrill
T1C0.300
; #@! TA.AperFunction,Plated,PTH,ViaDrill
T2C0.400
; #@! TA.AperFunction,Plated,PTH,ComponentDrill
T3C0.500
; #@! TA.AperFunction,Plated,PTH,ComponentDrill
T4C0.600
; #@! TA.AperFunction,Plated,PTH,ComponentDrill
T5C0.700
; #@! TA.AperFunction,Plated,PTH,ComponentDrill
T6C0.800
; #@! TA.AperFunction,Plated,PTH,ComponentDrill
T7C1.000
; #@! TA.AperFunction,Plated,PTH,ComponentDrill
T8C1.100
; #@! TA.AperFunction,Plated,PTH,ComponentDrill
T9C1.200
; #@! TA.AperFunction,Plated,PTH,ComponentDrill
T10C1.300
; #@! TA.AperFunction,Plated,PTH,ComponentDrill
T11C3.200
; #@! TA.AperFunction,NonPlated,NPTH,ComponentDrill
T12C0.650
; #@! TA.AperFunction,NonPlated,NPTH,ComponentDrill
T13C0.991
%
G90
G05
T1
X57.252Y10.617
X62.586Y11.074
X65.481Y10.82
T2
X8.636Y49.276
X9.144Y50.8
X9.144Y47.752
X9.652Y42.418
X10.16Y49.276
X10.668Y51.816
X11.176Y50.292
X11.684Y52.832
X12.192Y42.418
X12.7Y54.61
X12.7Y51.816
X13.208Y53.34
X15.24Y42.418
X16.256Y11.811
X16.891Y5.08
X17.78Y42.418
X22.225Y4.191
X23.114Y42.164
X23.241Y15.113
X24.384Y7.493
X25.654Y42.164
X28.702Y42.164
X31.242Y10.033
X34.036Y16.891
X35.56Y42.164
X35.687Y13.589
X35.814Y26.052
X35.814Y23.114
X38.481Y16.51
X39.37Y42.164
X39.37Y7.112
X40.132Y5.715
X40.513Y10.033
X40.64Y21.59
X41.148Y16.51
X41.148Y3.302
X41.275Y14.478
X42.291Y24.638
X42.672Y32.258
X42.799Y10.287
X43.561Y7.874
X44.069Y18.034
X44.456Y14.726
X44.831Y6.477
X44.958Y22.733
X45.212Y12.065
X47.635Y18.298
X48.133Y20.574
X48.377Y19.04
X48.895Y21.844
X49.657Y13.589
X50.038Y28.448
X51.054Y24.384
X52.451Y10.414
X53.213Y32.131
X53.645Y15.951
X54.483Y19.685
X56.134Y14.986
X56.769Y25.273
X58.979Y12.954
X59.436Y4.064
X60.096Y20.879
X62.992Y20.168
X64.618Y15.748
X65.151Y19.812
X66.04Y28.448
X69.088Y7.239
X70.612Y12.446
X77.978Y4.572
X78.359Y11.049
X88.265Y12.192
T3
X2.68Y55.88
X2.68Y5.08
X3.383Y57.577
X3.383Y54.183
X3.383Y6.777
X3.383Y3.383
X5.08Y58.28
X5.08Y53.48
X5.08Y7.48
X5.08Y2.68
X6.777Y57.577
X6.777Y54.183
X6.777Y6.777
X6.777Y3.383
X7.48Y55.88
X7.48Y5.08
X86.5Y55.88
X86.5Y5.08
X87.203Y57.577
X87.203Y54.183
X87.203Y6.777
X87.203Y3.383
X88.9Y58.28
X88.9Y53.48
X88.9Y7.48
X88.9Y2.68
X90.597Y57.577
X90.597Y54.183
X90.597Y6.777
X90.597Y3.383
X91.3Y55.88
X91.3Y5.08
T5
X41.624Y54.387
X41.624Y44.387
X51.624Y54.387
X51.624Y44.387
T6
X12.76Y57.642
X20.26Y55.642
X20.844Y42.224
X22.844Y49.724
T7
X29.98Y36.53
X29.98Y24.53
X30.988Y3.302
X33.528Y3.302
X36.068Y3.302
X38.608Y3.302
X43.688Y3.302
X46.228Y3.302
X48.768Y3.302
X51.308Y3.302
X73.82Y18.438
X78.82Y47.517
X83.82Y47.517
X88.82Y18.438
T8
X13.058Y13.68
X13.058Y9.18
X19.558Y13.68
X19.558Y9.18
T9
X31.75Y57.03
X31.75Y42.03
X61.722Y57.03
X61.722Y42.03
T10
X6.299Y48.392
X6.299Y43.312
X6.604Y35.565
X6.604Y30.485
X6.604Y25.405
X17.73Y24.48
X17.78Y36.53
X31.93Y30.48
T11
X5.08Y55.88
X5.08Y5.08
X88.9Y55.88
X88.9Y5.08
T12
X56.8Y7.68
X62.58Y7.68
T13
X38.862Y12.065
X43.942Y13.081
X43.942Y11.049
T4
G00X55.37Y8.76
M15
G01X55.37Y7.66
M16
G05
G00X55.37Y4.33
M15
G01X55.37Y3.73
M16
G05
G00X64.01Y8.76
M15
G01X64.01Y7.66
M16
G05
G00X64.01Y4.33
M15
G01X64.01Y3.73
M16
G05
M30
