%TF.GenerationSoftware,KiCad,Pcbnew,8.0.1*%
%TF.CreationDate,2024-04-05T21:06:31+06:30*%
%TF.ProjectId,STM32_base,53544d33-325f-4626-9173-652e6b696361,rev?*%
%TF.SameCoordinates,PX48ab840PY853a720*%
%TF.FileFunction,Legend,Top*%
%TF.FilePolarity,Positive*%
%FSLAX46Y46*%
G04 Gerber Fmt 4.6, Leading zero omitted, Abs format (unit mm)*
G04 Created by KiCad (PCBNEW 8.0.1) date 2024-04-05 21:06:31*
%MOMM*%
%LPD*%
G01*
G04 APERTURE LIST*
%ADD10C,0.200000*%
%ADD11C,0.120000*%
%ADD12C,0.150000*%
G04 APERTURE END LIST*
D10*
X49339600Y5656055D02*
X49387219Y5798912D01*
X49387219Y5798912D02*
X49387219Y6037007D01*
X49387219Y6037007D02*
X49339600Y6132245D01*
X49339600Y6132245D02*
X49291980Y6179864D01*
X49291980Y6179864D02*
X49196742Y6227483D01*
X49196742Y6227483D02*
X49101504Y6227483D01*
X49101504Y6227483D02*
X49006266Y6179864D01*
X49006266Y6179864D02*
X48958647Y6132245D01*
X48958647Y6132245D02*
X48911028Y6037007D01*
X48911028Y6037007D02*
X48863409Y5846531D01*
X48863409Y5846531D02*
X48815790Y5751293D01*
X48815790Y5751293D02*
X48768171Y5703674D01*
X48768171Y5703674D02*
X48672933Y5656055D01*
X48672933Y5656055D02*
X48577695Y5656055D01*
X48577695Y5656055D02*
X48482457Y5703674D01*
X48482457Y5703674D02*
X48434838Y5751293D01*
X48434838Y5751293D02*
X48387219Y5846531D01*
X48387219Y5846531D02*
X48387219Y6084626D01*
X48387219Y6084626D02*
X48434838Y6227483D01*
X49387219Y6656055D02*
X48387219Y6656055D01*
X48387219Y6656055D02*
X48387219Y6894150D01*
X48387219Y6894150D02*
X48434838Y7037007D01*
X48434838Y7037007D02*
X48530076Y7132245D01*
X48530076Y7132245D02*
X48625314Y7179864D01*
X48625314Y7179864D02*
X48815790Y7227483D01*
X48815790Y7227483D02*
X48958647Y7227483D01*
X48958647Y7227483D02*
X49149123Y7179864D01*
X49149123Y7179864D02*
X49244361Y7132245D01*
X49244361Y7132245D02*
X49339600Y7037007D01*
X49339600Y7037007D02*
X49387219Y6894150D01*
X49387219Y6894150D02*
X49387219Y6656055D01*
X49101504Y7608436D02*
X49101504Y8084626D01*
X49387219Y7513198D02*
X48387219Y7846531D01*
X48387219Y7846531D02*
X49387219Y8179864D01*
X15766958Y6355781D02*
X15433625Y6831972D01*
X15195530Y6355781D02*
X15195530Y7355781D01*
X15195530Y7355781D02*
X15576482Y7355781D01*
X15576482Y7355781D02*
X15671720Y7308162D01*
X15671720Y7308162D02*
X15719339Y7260543D01*
X15719339Y7260543D02*
X15766958Y7165305D01*
X15766958Y7165305D02*
X15766958Y7022448D01*
X15766958Y7022448D02*
X15719339Y6927210D01*
X15719339Y6927210D02*
X15671720Y6879591D01*
X15671720Y6879591D02*
X15576482Y6831972D01*
X15576482Y6831972D02*
X15195530Y6831972D01*
X16147911Y6403400D02*
X16290768Y6355781D01*
X16290768Y6355781D02*
X16528863Y6355781D01*
X16528863Y6355781D02*
X16624101Y6403400D01*
X16624101Y6403400D02*
X16671720Y6451020D01*
X16671720Y6451020D02*
X16719339Y6546258D01*
X16719339Y6546258D02*
X16719339Y6641496D01*
X16719339Y6641496D02*
X16671720Y6736734D01*
X16671720Y6736734D02*
X16624101Y6784353D01*
X16624101Y6784353D02*
X16528863Y6831972D01*
X16528863Y6831972D02*
X16338387Y6879591D01*
X16338387Y6879591D02*
X16243149Y6927210D01*
X16243149Y6927210D02*
X16195530Y6974829D01*
X16195530Y6974829D02*
X16147911Y7070067D01*
X16147911Y7070067D02*
X16147911Y7165305D01*
X16147911Y7165305D02*
X16195530Y7260543D01*
X16195530Y7260543D02*
X16243149Y7308162D01*
X16243149Y7308162D02*
X16338387Y7355781D01*
X16338387Y7355781D02*
X16576482Y7355781D01*
X16576482Y7355781D02*
X16719339Y7308162D01*
X17005054Y7355781D02*
X17576482Y7355781D01*
X17290768Y6355781D02*
X17290768Y7355781D01*
X46799600Y5656055D02*
X46847219Y5798912D01*
X46847219Y5798912D02*
X46847219Y6037007D01*
X46847219Y6037007D02*
X46799600Y6132245D01*
X46799600Y6132245D02*
X46751980Y6179864D01*
X46751980Y6179864D02*
X46656742Y6227483D01*
X46656742Y6227483D02*
X46561504Y6227483D01*
X46561504Y6227483D02*
X46466266Y6179864D01*
X46466266Y6179864D02*
X46418647Y6132245D01*
X46418647Y6132245D02*
X46371028Y6037007D01*
X46371028Y6037007D02*
X46323409Y5846531D01*
X46323409Y5846531D02*
X46275790Y5751293D01*
X46275790Y5751293D02*
X46228171Y5703674D01*
X46228171Y5703674D02*
X46132933Y5656055D01*
X46132933Y5656055D02*
X46037695Y5656055D01*
X46037695Y5656055D02*
X45942457Y5703674D01*
X45942457Y5703674D02*
X45894838Y5751293D01*
X45894838Y5751293D02*
X45847219Y5846531D01*
X45847219Y5846531D02*
X45847219Y6084626D01*
X45847219Y6084626D02*
X45894838Y6227483D01*
X46751980Y7227483D02*
X46799600Y7179864D01*
X46799600Y7179864D02*
X46847219Y7037007D01*
X46847219Y7037007D02*
X46847219Y6941769D01*
X46847219Y6941769D02*
X46799600Y6798912D01*
X46799600Y6798912D02*
X46704361Y6703674D01*
X46704361Y6703674D02*
X46609123Y6656055D01*
X46609123Y6656055D02*
X46418647Y6608436D01*
X46418647Y6608436D02*
X46275790Y6608436D01*
X46275790Y6608436D02*
X46085314Y6656055D01*
X46085314Y6656055D02*
X45990076Y6703674D01*
X45990076Y6703674D02*
X45894838Y6798912D01*
X45894838Y6798912D02*
X45847219Y6941769D01*
X45847219Y6941769D02*
X45847219Y7037007D01*
X45847219Y7037007D02*
X45894838Y7179864D01*
X45894838Y7179864D02*
X45942457Y7227483D01*
X46847219Y8132245D02*
X46847219Y7656055D01*
X46847219Y7656055D02*
X45847219Y7656055D01*
X30607219Y5608436D02*
X30607219Y6227483D01*
X30607219Y6227483D02*
X30988171Y5894150D01*
X30988171Y5894150D02*
X30988171Y6037007D01*
X30988171Y6037007D02*
X31035790Y6132245D01*
X31035790Y6132245D02*
X31083409Y6179864D01*
X31083409Y6179864D02*
X31178647Y6227483D01*
X31178647Y6227483D02*
X31416742Y6227483D01*
X31416742Y6227483D02*
X31511980Y6179864D01*
X31511980Y6179864D02*
X31559600Y6132245D01*
X31559600Y6132245D02*
X31607219Y6037007D01*
X31607219Y6037007D02*
X31607219Y5751293D01*
X31607219Y5751293D02*
X31559600Y5656055D01*
X31559600Y5656055D02*
X31511980Y5608436D01*
X30607219Y6513198D02*
X31607219Y6846531D01*
X31607219Y6846531D02*
X30607219Y7179864D01*
X30607219Y7417960D02*
X30607219Y8037007D01*
X30607219Y8037007D02*
X30988171Y7703674D01*
X30988171Y7703674D02*
X30988171Y7846531D01*
X30988171Y7846531D02*
X31035790Y7941769D01*
X31035790Y7941769D02*
X31083409Y7989388D01*
X31083409Y7989388D02*
X31178647Y8037007D01*
X31178647Y8037007D02*
X31416742Y8037007D01*
X31416742Y8037007D02*
X31511980Y7989388D01*
X31511980Y7989388D02*
X31559600Y7941769D01*
X31559600Y7941769D02*
X31607219Y7846531D01*
X31607219Y7846531D02*
X31607219Y7560817D01*
X31607219Y7560817D02*
X31559600Y7465579D01*
X31559600Y7465579D02*
X31511980Y7417960D01*
X36687219Y6529102D02*
X36211028Y6195769D01*
X36687219Y5957674D02*
X35687219Y5957674D01*
X35687219Y5957674D02*
X35687219Y6338626D01*
X35687219Y6338626D02*
X35734838Y6433864D01*
X35734838Y6433864D02*
X35782457Y6481483D01*
X35782457Y6481483D02*
X35877695Y6529102D01*
X35877695Y6529102D02*
X36020552Y6529102D01*
X36020552Y6529102D02*
X36115790Y6481483D01*
X36115790Y6481483D02*
X36163409Y6433864D01*
X36163409Y6433864D02*
X36211028Y6338626D01*
X36211028Y6338626D02*
X36211028Y5957674D01*
X35687219Y6862436D02*
X36687219Y7529102D01*
X35687219Y7529102D02*
X36687219Y6862436D01*
X43307219Y5608436D02*
X43307219Y6227483D01*
X43307219Y6227483D02*
X43688171Y5894150D01*
X43688171Y5894150D02*
X43688171Y6037007D01*
X43688171Y6037007D02*
X43735790Y6132245D01*
X43735790Y6132245D02*
X43783409Y6179864D01*
X43783409Y6179864D02*
X43878647Y6227483D01*
X43878647Y6227483D02*
X44116742Y6227483D01*
X44116742Y6227483D02*
X44211980Y6179864D01*
X44211980Y6179864D02*
X44259600Y6132245D01*
X44259600Y6132245D02*
X44307219Y6037007D01*
X44307219Y6037007D02*
X44307219Y5751293D01*
X44307219Y5751293D02*
X44259600Y5656055D01*
X44259600Y5656055D02*
X44211980Y5608436D01*
X43307219Y6513198D02*
X44307219Y6846531D01*
X44307219Y6846531D02*
X43307219Y7179864D01*
X43307219Y7417960D02*
X43307219Y8037007D01*
X43307219Y8037007D02*
X43688171Y7703674D01*
X43688171Y7703674D02*
X43688171Y7846531D01*
X43688171Y7846531D02*
X43735790Y7941769D01*
X43735790Y7941769D02*
X43783409Y7989388D01*
X43783409Y7989388D02*
X43878647Y8037007D01*
X43878647Y8037007D02*
X44116742Y8037007D01*
X44116742Y8037007D02*
X44211980Y7989388D01*
X44211980Y7989388D02*
X44259600Y7941769D01*
X44259600Y7941769D02*
X44307219Y7846531D01*
X44307219Y7846531D02*
X44307219Y7560817D01*
X44307219Y7560817D02*
X44259600Y7465579D01*
X44259600Y7465579D02*
X44211980Y7417960D01*
X50974838Y6227483D02*
X50927219Y6132245D01*
X50927219Y6132245D02*
X50927219Y5989388D01*
X50927219Y5989388D02*
X50974838Y5846531D01*
X50974838Y5846531D02*
X51070076Y5751293D01*
X51070076Y5751293D02*
X51165314Y5703674D01*
X51165314Y5703674D02*
X51355790Y5656055D01*
X51355790Y5656055D02*
X51498647Y5656055D01*
X51498647Y5656055D02*
X51689123Y5703674D01*
X51689123Y5703674D02*
X51784361Y5751293D01*
X51784361Y5751293D02*
X51879600Y5846531D01*
X51879600Y5846531D02*
X51927219Y5989388D01*
X51927219Y5989388D02*
X51927219Y6084626D01*
X51927219Y6084626D02*
X51879600Y6227483D01*
X51879600Y6227483D02*
X51831980Y6275102D01*
X51831980Y6275102D02*
X51498647Y6275102D01*
X51498647Y6275102D02*
X51498647Y6084626D01*
X51927219Y6703674D02*
X50927219Y6703674D01*
X50927219Y6703674D02*
X51927219Y7275102D01*
X51927219Y7275102D02*
X50927219Y7275102D01*
X51927219Y7751293D02*
X50927219Y7751293D01*
X50927219Y7751293D02*
X50927219Y7989388D01*
X50927219Y7989388D02*
X50974838Y8132245D01*
X50974838Y8132245D02*
X51070076Y8227483D01*
X51070076Y8227483D02*
X51165314Y8275102D01*
X51165314Y8275102D02*
X51355790Y8322721D01*
X51355790Y8322721D02*
X51498647Y8322721D01*
X51498647Y8322721D02*
X51689123Y8275102D01*
X51689123Y8275102D02*
X51784361Y8227483D01*
X51784361Y8227483D02*
X51879600Y8132245D01*
X51879600Y8132245D02*
X51927219Y7989388D01*
X51927219Y7989388D02*
X51927219Y7751293D01*
X33147219Y5814817D02*
X33147219Y6386245D01*
X34147219Y6100531D02*
X33147219Y6100531D01*
X33147219Y6624341D02*
X34147219Y7291007D01*
X33147219Y7291007D02*
X34147219Y6624341D01*
X38274838Y6227483D02*
X38227219Y6132245D01*
X38227219Y6132245D02*
X38227219Y5989388D01*
X38227219Y5989388D02*
X38274838Y5846531D01*
X38274838Y5846531D02*
X38370076Y5751293D01*
X38370076Y5751293D02*
X38465314Y5703674D01*
X38465314Y5703674D02*
X38655790Y5656055D01*
X38655790Y5656055D02*
X38798647Y5656055D01*
X38798647Y5656055D02*
X38989123Y5703674D01*
X38989123Y5703674D02*
X39084361Y5751293D01*
X39084361Y5751293D02*
X39179600Y5846531D01*
X39179600Y5846531D02*
X39227219Y5989388D01*
X39227219Y5989388D02*
X39227219Y6084626D01*
X39227219Y6084626D02*
X39179600Y6227483D01*
X39179600Y6227483D02*
X39131980Y6275102D01*
X39131980Y6275102D02*
X38798647Y6275102D01*
X38798647Y6275102D02*
X38798647Y6084626D01*
X39227219Y6703674D02*
X38227219Y6703674D01*
X38227219Y6703674D02*
X39227219Y7275102D01*
X39227219Y7275102D02*
X38227219Y7275102D01*
X39227219Y7751293D02*
X38227219Y7751293D01*
X38227219Y7751293D02*
X38227219Y7989388D01*
X38227219Y7989388D02*
X38274838Y8132245D01*
X38274838Y8132245D02*
X38370076Y8227483D01*
X38370076Y8227483D02*
X38465314Y8275102D01*
X38465314Y8275102D02*
X38655790Y8322721D01*
X38655790Y8322721D02*
X38798647Y8322721D01*
X38798647Y8322721D02*
X38989123Y8275102D01*
X38989123Y8275102D02*
X39084361Y8227483D01*
X39084361Y8227483D02*
X39179600Y8132245D01*
X39179600Y8132245D02*
X39227219Y7989388D01*
X39227219Y7989388D02*
X39227219Y7751293D01*
X67433866Y11196791D02*
X67100533Y11196791D01*
X67100533Y10672981D02*
X67100533Y11672981D01*
X67100533Y11672981D02*
X67576723Y11672981D01*
X68481485Y10672981D02*
X67910057Y10672981D01*
X68195771Y10672981D02*
X68195771Y11672981D01*
X68195771Y11672981D02*
X68100533Y11530124D01*
X68100533Y11530124D02*
X68005295Y11434886D01*
X68005295Y11434886D02*
X67910057Y11387267D01*
X53679980Y17867334D02*
X53727600Y17819715D01*
X53727600Y17819715D02*
X53775219Y17676858D01*
X53775219Y17676858D02*
X53775219Y17581620D01*
X53775219Y17581620D02*
X53727600Y17438763D01*
X53727600Y17438763D02*
X53632361Y17343525D01*
X53632361Y17343525D02*
X53537123Y17295906D01*
X53537123Y17295906D02*
X53346647Y17248287D01*
X53346647Y17248287D02*
X53203790Y17248287D01*
X53203790Y17248287D02*
X53013314Y17295906D01*
X53013314Y17295906D02*
X52918076Y17343525D01*
X52918076Y17343525D02*
X52822838Y17438763D01*
X52822838Y17438763D02*
X52775219Y17581620D01*
X52775219Y17581620D02*
X52775219Y17676858D01*
X52775219Y17676858D02*
X52822838Y17819715D01*
X52822838Y17819715D02*
X52870457Y17867334D01*
X52775219Y18724477D02*
X52775219Y18534001D01*
X52775219Y18534001D02*
X52822838Y18438763D01*
X52822838Y18438763D02*
X52870457Y18391144D01*
X52870457Y18391144D02*
X53013314Y18295906D01*
X53013314Y18295906D02*
X53203790Y18248287D01*
X53203790Y18248287D02*
X53584742Y18248287D01*
X53584742Y18248287D02*
X53679980Y18295906D01*
X53679980Y18295906D02*
X53727600Y18343525D01*
X53727600Y18343525D02*
X53775219Y18438763D01*
X53775219Y18438763D02*
X53775219Y18629239D01*
X53775219Y18629239D02*
X53727600Y18724477D01*
X53727600Y18724477D02*
X53679980Y18772096D01*
X53679980Y18772096D02*
X53584742Y18819715D01*
X53584742Y18819715D02*
X53346647Y18819715D01*
X53346647Y18819715D02*
X53251409Y18772096D01*
X53251409Y18772096D02*
X53203790Y18724477D01*
X53203790Y18724477D02*
X53156171Y18629239D01*
X53156171Y18629239D02*
X53156171Y18438763D01*
X53156171Y18438763D02*
X53203790Y18343525D01*
X53203790Y18343525D02*
X53251409Y18295906D01*
X53251409Y18295906D02*
X53346647Y18248287D01*
X57110333Y21678781D02*
X56777000Y22154972D01*
X56538905Y21678781D02*
X56538905Y22678781D01*
X56538905Y22678781D02*
X56919857Y22678781D01*
X56919857Y22678781D02*
X57015095Y22631162D01*
X57015095Y22631162D02*
X57062714Y22583543D01*
X57062714Y22583543D02*
X57110333Y22488305D01*
X57110333Y22488305D02*
X57110333Y22345448D01*
X57110333Y22345448D02*
X57062714Y22250210D01*
X57062714Y22250210D02*
X57015095Y22202591D01*
X57015095Y22202591D02*
X56919857Y22154972D01*
X56919857Y22154972D02*
X56538905Y22154972D01*
X57491286Y22583543D02*
X57538905Y22631162D01*
X57538905Y22631162D02*
X57634143Y22678781D01*
X57634143Y22678781D02*
X57872238Y22678781D01*
X57872238Y22678781D02*
X57967476Y22631162D01*
X57967476Y22631162D02*
X58015095Y22583543D01*
X58015095Y22583543D02*
X58062714Y22488305D01*
X58062714Y22488305D02*
X58062714Y22393067D01*
X58062714Y22393067D02*
X58015095Y22250210D01*
X58015095Y22250210D02*
X57443667Y21678781D01*
X57443667Y21678781D02*
X58062714Y21678781D01*
X15224286Y53379781D02*
X15795714Y53379781D01*
X15510000Y52379781D02*
X15510000Y53379781D01*
X16129048Y52379781D02*
X16129048Y53379781D01*
X16129048Y52903591D02*
X16700476Y52903591D01*
X16700476Y52379781D02*
X16700476Y53379781D01*
X17700476Y52379781D02*
X17129048Y52379781D01*
X17414762Y52379781D02*
X17414762Y53379781D01*
X17414762Y53379781D02*
X17319524Y53236924D01*
X17319524Y53236924D02*
X17224286Y53141686D01*
X17224286Y53141686D02*
X17129048Y53094067D01*
X40810219Y2968667D02*
X41524504Y2968667D01*
X41524504Y2968667D02*
X41667361Y2921048D01*
X41667361Y2921048D02*
X41762600Y2825810D01*
X41762600Y2825810D02*
X41810219Y2682953D01*
X41810219Y2682953D02*
X41810219Y2587715D01*
X41143552Y3873429D02*
X41810219Y3873429D01*
X40762600Y3635334D02*
X41476885Y3397239D01*
X41476885Y3397239D02*
X41476885Y4016286D01*
X6840666Y21634781D02*
X6840666Y20920496D01*
X6840666Y20920496D02*
X6793047Y20777639D01*
X6793047Y20777639D02*
X6697809Y20682400D01*
X6697809Y20682400D02*
X6554952Y20634781D01*
X6554952Y20634781D02*
X6459714Y20634781D01*
X7745428Y21634781D02*
X7554952Y21634781D01*
X7554952Y21634781D02*
X7459714Y21587162D01*
X7459714Y21587162D02*
X7412095Y21539543D01*
X7412095Y21539543D02*
X7316857Y21396686D01*
X7316857Y21396686D02*
X7269238Y21206210D01*
X7269238Y21206210D02*
X7269238Y20825258D01*
X7269238Y20825258D02*
X7316857Y20730020D01*
X7316857Y20730020D02*
X7364476Y20682400D01*
X7364476Y20682400D02*
X7459714Y20634781D01*
X7459714Y20634781D02*
X7650190Y20634781D01*
X7650190Y20634781D02*
X7745428Y20682400D01*
X7745428Y20682400D02*
X7793047Y20730020D01*
X7793047Y20730020D02*
X7840666Y20825258D01*
X7840666Y20825258D02*
X7840666Y21063353D01*
X7840666Y21063353D02*
X7793047Y21158591D01*
X7793047Y21158591D02*
X7745428Y21206210D01*
X7745428Y21206210D02*
X7650190Y21253829D01*
X7650190Y21253829D02*
X7459714Y21253829D01*
X7459714Y21253829D02*
X7364476Y21206210D01*
X7364476Y21206210D02*
X7316857Y21158591D01*
X7316857Y21158591D02*
X7269238Y21063353D01*
X23709333Y11835020D02*
X23661714Y11787400D01*
X23661714Y11787400D02*
X23518857Y11739781D01*
X23518857Y11739781D02*
X23423619Y11739781D01*
X23423619Y11739781D02*
X23280762Y11787400D01*
X23280762Y11787400D02*
X23185524Y11882639D01*
X23185524Y11882639D02*
X23137905Y11977877D01*
X23137905Y11977877D02*
X23090286Y12168353D01*
X23090286Y12168353D02*
X23090286Y12311210D01*
X23090286Y12311210D02*
X23137905Y12501686D01*
X23137905Y12501686D02*
X23185524Y12596924D01*
X23185524Y12596924D02*
X23280762Y12692162D01*
X23280762Y12692162D02*
X23423619Y12739781D01*
X23423619Y12739781D02*
X23518857Y12739781D01*
X23518857Y12739781D02*
X23661714Y12692162D01*
X23661714Y12692162D02*
X23709333Y12644543D01*
X24042667Y12739781D02*
X24709333Y12739781D01*
X24709333Y12739781D02*
X24280762Y11739781D01*
X66492219Y18616706D02*
X65492219Y18616706D01*
X65492219Y18616706D02*
X65492219Y18854801D01*
X65492219Y18854801D02*
X65539838Y18997658D01*
X65539838Y18997658D02*
X65635076Y19092896D01*
X65635076Y19092896D02*
X65730314Y19140515D01*
X65730314Y19140515D02*
X65920790Y19188134D01*
X65920790Y19188134D02*
X66063647Y19188134D01*
X66063647Y19188134D02*
X66254123Y19140515D01*
X66254123Y19140515D02*
X66349361Y19092896D01*
X66349361Y19092896D02*
X66444600Y18997658D01*
X66444600Y18997658D02*
X66492219Y18854801D01*
X66492219Y18854801D02*
X66492219Y18616706D01*
X66492219Y20140515D02*
X66492219Y19569087D01*
X66492219Y19854801D02*
X65492219Y19854801D01*
X65492219Y19854801D02*
X65635076Y19759563D01*
X65635076Y19759563D02*
X65730314Y19664325D01*
X65730314Y19664325D02*
X65777933Y19569087D01*
X55982980Y41013143D02*
X56030600Y40965524D01*
X56030600Y40965524D02*
X56078219Y40822667D01*
X56078219Y40822667D02*
X56078219Y40727429D01*
X56078219Y40727429D02*
X56030600Y40584572D01*
X56030600Y40584572D02*
X55935361Y40489334D01*
X55935361Y40489334D02*
X55840123Y40441715D01*
X55840123Y40441715D02*
X55649647Y40394096D01*
X55649647Y40394096D02*
X55506790Y40394096D01*
X55506790Y40394096D02*
X55316314Y40441715D01*
X55316314Y40441715D02*
X55221076Y40489334D01*
X55221076Y40489334D02*
X55125838Y40584572D01*
X55125838Y40584572D02*
X55078219Y40727429D01*
X55078219Y40727429D02*
X55078219Y40822667D01*
X55078219Y40822667D02*
X55125838Y40965524D01*
X55125838Y40965524D02*
X55173457Y41013143D01*
X56078219Y41965524D02*
X56078219Y41394096D01*
X56078219Y41679810D02*
X55078219Y41679810D01*
X55078219Y41679810D02*
X55221076Y41584572D01*
X55221076Y41584572D02*
X55316314Y41489334D01*
X55316314Y41489334D02*
X55363933Y41394096D01*
X55078219Y42584572D02*
X55078219Y42679810D01*
X55078219Y42679810D02*
X55125838Y42775048D01*
X55125838Y42775048D02*
X55173457Y42822667D01*
X55173457Y42822667D02*
X55268695Y42870286D01*
X55268695Y42870286D02*
X55459171Y42917905D01*
X55459171Y42917905D02*
X55697266Y42917905D01*
X55697266Y42917905D02*
X55887742Y42870286D01*
X55887742Y42870286D02*
X55982980Y42822667D01*
X55982980Y42822667D02*
X56030600Y42775048D01*
X56030600Y42775048D02*
X56078219Y42679810D01*
X56078219Y42679810D02*
X56078219Y42584572D01*
X56078219Y42584572D02*
X56030600Y42489334D01*
X56030600Y42489334D02*
X55982980Y42441715D01*
X55982980Y42441715D02*
X55887742Y42394096D01*
X55887742Y42394096D02*
X55697266Y42346477D01*
X55697266Y42346477D02*
X55459171Y42346477D01*
X55459171Y42346477D02*
X55268695Y42394096D01*
X55268695Y42394096D02*
X55173457Y42441715D01*
X55173457Y42441715D02*
X55125838Y42489334D01*
X55125838Y42489334D02*
X55078219Y42584572D01*
X41068666Y9912781D02*
X41068666Y9198496D01*
X41068666Y9198496D02*
X41021047Y9055639D01*
X41021047Y9055639D02*
X40925809Y8960400D01*
X40925809Y8960400D02*
X40782952Y8912781D01*
X40782952Y8912781D02*
X40687714Y8912781D01*
X42068666Y8912781D02*
X41497238Y8912781D01*
X41782952Y8912781D02*
X41782952Y9912781D01*
X41782952Y9912781D02*
X41687714Y9769924D01*
X41687714Y9769924D02*
X41592476Y9674686D01*
X41592476Y9674686D02*
X41497238Y9627067D01*
X53188980Y23963334D02*
X53236600Y23915715D01*
X53236600Y23915715D02*
X53284219Y23772858D01*
X53284219Y23772858D02*
X53284219Y23677620D01*
X53284219Y23677620D02*
X53236600Y23534763D01*
X53236600Y23534763D02*
X53141361Y23439525D01*
X53141361Y23439525D02*
X53046123Y23391906D01*
X53046123Y23391906D02*
X52855647Y23344287D01*
X52855647Y23344287D02*
X52712790Y23344287D01*
X52712790Y23344287D02*
X52522314Y23391906D01*
X52522314Y23391906D02*
X52427076Y23439525D01*
X52427076Y23439525D02*
X52331838Y23534763D01*
X52331838Y23534763D02*
X52284219Y23677620D01*
X52284219Y23677620D02*
X52284219Y23772858D01*
X52284219Y23772858D02*
X52331838Y23915715D01*
X52331838Y23915715D02*
X52379457Y23963334D01*
X52284219Y24296668D02*
X52284219Y24915715D01*
X52284219Y24915715D02*
X52665171Y24582382D01*
X52665171Y24582382D02*
X52665171Y24725239D01*
X52665171Y24725239D02*
X52712790Y24820477D01*
X52712790Y24820477D02*
X52760409Y24868096D01*
X52760409Y24868096D02*
X52855647Y24915715D01*
X52855647Y24915715D02*
X53093742Y24915715D01*
X53093742Y24915715D02*
X53188980Y24868096D01*
X53188980Y24868096D02*
X53236600Y24820477D01*
X53236600Y24820477D02*
X53284219Y24725239D01*
X53284219Y24725239D02*
X53284219Y24439525D01*
X53284219Y24439525D02*
X53236600Y24344287D01*
X53236600Y24344287D02*
X53188980Y24296668D01*
X41250980Y15835334D02*
X41298600Y15787715D01*
X41298600Y15787715D02*
X41346219Y15644858D01*
X41346219Y15644858D02*
X41346219Y15549620D01*
X41346219Y15549620D02*
X41298600Y15406763D01*
X41298600Y15406763D02*
X41203361Y15311525D01*
X41203361Y15311525D02*
X41108123Y15263906D01*
X41108123Y15263906D02*
X40917647Y15216287D01*
X40917647Y15216287D02*
X40774790Y15216287D01*
X40774790Y15216287D02*
X40584314Y15263906D01*
X40584314Y15263906D02*
X40489076Y15311525D01*
X40489076Y15311525D02*
X40393838Y15406763D01*
X40393838Y15406763D02*
X40346219Y15549620D01*
X40346219Y15549620D02*
X40346219Y15644858D01*
X40346219Y15644858D02*
X40393838Y15787715D01*
X40393838Y15787715D02*
X40441457Y15835334D01*
X40346219Y16740096D02*
X40346219Y16263906D01*
X40346219Y16263906D02*
X40822409Y16216287D01*
X40822409Y16216287D02*
X40774790Y16263906D01*
X40774790Y16263906D02*
X40727171Y16359144D01*
X40727171Y16359144D02*
X40727171Y16597239D01*
X40727171Y16597239D02*
X40774790Y16692477D01*
X40774790Y16692477D02*
X40822409Y16740096D01*
X40822409Y16740096D02*
X40917647Y16787715D01*
X40917647Y16787715D02*
X41155742Y16787715D01*
X41155742Y16787715D02*
X41250980Y16740096D01*
X41250980Y16740096D02*
X41298600Y16692477D01*
X41298600Y16692477D02*
X41346219Y16597239D01*
X41346219Y16597239D02*
X41346219Y16359144D01*
X41346219Y16359144D02*
X41298600Y16263906D01*
X41298600Y16263906D02*
X41250980Y16216287D01*
X56800809Y15390972D02*
X56800809Y14914781D01*
X56467476Y15914781D02*
X56800809Y15390972D01*
X56800809Y15390972D02*
X57134142Y15914781D01*
X57991285Y14914781D02*
X57419857Y14914781D01*
X57705571Y14914781D02*
X57705571Y15914781D01*
X57705571Y15914781D02*
X57610333Y15771924D01*
X57610333Y15771924D02*
X57515095Y15676686D01*
X57515095Y15676686D02*
X57419857Y15629067D01*
X39628980Y20379143D02*
X39676600Y20331524D01*
X39676600Y20331524D02*
X39724219Y20188667D01*
X39724219Y20188667D02*
X39724219Y20093429D01*
X39724219Y20093429D02*
X39676600Y19950572D01*
X39676600Y19950572D02*
X39581361Y19855334D01*
X39581361Y19855334D02*
X39486123Y19807715D01*
X39486123Y19807715D02*
X39295647Y19760096D01*
X39295647Y19760096D02*
X39152790Y19760096D01*
X39152790Y19760096D02*
X38962314Y19807715D01*
X38962314Y19807715D02*
X38867076Y19855334D01*
X38867076Y19855334D02*
X38771838Y19950572D01*
X38771838Y19950572D02*
X38724219Y20093429D01*
X38724219Y20093429D02*
X38724219Y20188667D01*
X38724219Y20188667D02*
X38771838Y20331524D01*
X38771838Y20331524D02*
X38819457Y20379143D01*
X39724219Y21331524D02*
X39724219Y20760096D01*
X39724219Y21045810D02*
X38724219Y21045810D01*
X38724219Y21045810D02*
X38867076Y20950572D01*
X38867076Y20950572D02*
X38962314Y20855334D01*
X38962314Y20855334D02*
X39009933Y20760096D01*
X39057552Y22188667D02*
X39724219Y22188667D01*
X38676600Y21950572D02*
X39390885Y21712477D01*
X39390885Y21712477D02*
X39390885Y22331524D01*
X63835066Y14498791D02*
X63501733Y14498791D01*
X63501733Y13974981D02*
X63501733Y14974981D01*
X63501733Y14974981D02*
X63977923Y14974981D01*
X64692209Y14498791D02*
X64835066Y14451172D01*
X64835066Y14451172D02*
X64882685Y14403553D01*
X64882685Y14403553D02*
X64930304Y14308315D01*
X64930304Y14308315D02*
X64930304Y14165458D01*
X64930304Y14165458D02*
X64882685Y14070220D01*
X64882685Y14070220D02*
X64835066Y14022600D01*
X64835066Y14022600D02*
X64739828Y13974981D01*
X64739828Y13974981D02*
X64358876Y13974981D01*
X64358876Y13974981D02*
X64358876Y14974981D01*
X64358876Y14974981D02*
X64692209Y14974981D01*
X64692209Y14974981D02*
X64787447Y14927362D01*
X64787447Y14927362D02*
X64835066Y14879743D01*
X64835066Y14879743D02*
X64882685Y14784505D01*
X64882685Y14784505D02*
X64882685Y14689267D01*
X64882685Y14689267D02*
X64835066Y14594029D01*
X64835066Y14594029D02*
X64787447Y14546410D01*
X64787447Y14546410D02*
X64692209Y14498791D01*
X64692209Y14498791D02*
X64358876Y14498791D01*
X65882685Y13974981D02*
X65311257Y13974981D01*
X65596971Y13974981D02*
X65596971Y14974981D01*
X65596971Y14974981D02*
X65501733Y14832124D01*
X65501733Y14832124D02*
X65406495Y14736886D01*
X65406495Y14736886D02*
X65311257Y14689267D01*
X32231457Y16511762D02*
X32183838Y16416524D01*
X32183838Y16416524D02*
X32088600Y16321286D01*
X32088600Y16321286D02*
X31945742Y16178429D01*
X31945742Y16178429D02*
X31898123Y16083191D01*
X31898123Y16083191D02*
X31898123Y15987953D01*
X32136219Y16035572D02*
X32088600Y15940334D01*
X32088600Y15940334D02*
X31993361Y15845096D01*
X31993361Y15845096D02*
X31802885Y15797477D01*
X31802885Y15797477D02*
X31469552Y15797477D01*
X31469552Y15797477D02*
X31279076Y15845096D01*
X31279076Y15845096D02*
X31183838Y15940334D01*
X31183838Y15940334D02*
X31136219Y16035572D01*
X31136219Y16035572D02*
X31136219Y16226048D01*
X31136219Y16226048D02*
X31183838Y16321286D01*
X31183838Y16321286D02*
X31279076Y16416524D01*
X31279076Y16416524D02*
X31469552Y16464143D01*
X31469552Y16464143D02*
X31802885Y16464143D01*
X31802885Y16464143D02*
X31993361Y16416524D01*
X31993361Y16416524D02*
X32088600Y16321286D01*
X32088600Y16321286D02*
X32136219Y16226048D01*
X32136219Y16226048D02*
X32136219Y16035572D01*
X32136219Y17416524D02*
X32136219Y16845096D01*
X32136219Y17130810D02*
X31136219Y17130810D01*
X31136219Y17130810D02*
X31279076Y17035572D01*
X31279076Y17035572D02*
X31374314Y16940334D01*
X31374314Y16940334D02*
X31421933Y16845096D01*
X28580219Y12630334D02*
X28104028Y12297001D01*
X28580219Y12058906D02*
X27580219Y12058906D01*
X27580219Y12058906D02*
X27580219Y12439858D01*
X27580219Y12439858D02*
X27627838Y12535096D01*
X27627838Y12535096D02*
X27675457Y12582715D01*
X27675457Y12582715D02*
X27770695Y12630334D01*
X27770695Y12630334D02*
X27913552Y12630334D01*
X27913552Y12630334D02*
X28008790Y12582715D01*
X28008790Y12582715D02*
X28056409Y12535096D01*
X28056409Y12535096D02*
X28104028Y12439858D01*
X28104028Y12439858D02*
X28104028Y12058906D01*
X27580219Y12963668D02*
X27580219Y13630334D01*
X27580219Y13630334D02*
X28580219Y13201763D01*
X32533333Y11582781D02*
X32200000Y12058972D01*
X31961905Y11582781D02*
X31961905Y12582781D01*
X31961905Y12582781D02*
X32342857Y12582781D01*
X32342857Y12582781D02*
X32438095Y12535162D01*
X32438095Y12535162D02*
X32485714Y12487543D01*
X32485714Y12487543D02*
X32533333Y12392305D01*
X32533333Y12392305D02*
X32533333Y12249448D01*
X32533333Y12249448D02*
X32485714Y12154210D01*
X32485714Y12154210D02*
X32438095Y12106591D01*
X32438095Y12106591D02*
X32342857Y12058972D01*
X32342857Y12058972D02*
X31961905Y12058972D01*
X33390476Y12582781D02*
X33200000Y12582781D01*
X33200000Y12582781D02*
X33104762Y12535162D01*
X33104762Y12535162D02*
X33057143Y12487543D01*
X33057143Y12487543D02*
X32961905Y12344686D01*
X32961905Y12344686D02*
X32914286Y12154210D01*
X32914286Y12154210D02*
X32914286Y11773258D01*
X32914286Y11773258D02*
X32961905Y11678020D01*
X32961905Y11678020D02*
X33009524Y11630400D01*
X33009524Y11630400D02*
X33104762Y11582781D01*
X33104762Y11582781D02*
X33295238Y11582781D01*
X33295238Y11582781D02*
X33390476Y11630400D01*
X33390476Y11630400D02*
X33438095Y11678020D01*
X33438095Y11678020D02*
X33485714Y11773258D01*
X33485714Y11773258D02*
X33485714Y12011353D01*
X33485714Y12011353D02*
X33438095Y12106591D01*
X33438095Y12106591D02*
X33390476Y12154210D01*
X33390476Y12154210D02*
X33295238Y12201829D01*
X33295238Y12201829D02*
X33104762Y12201829D01*
X33104762Y12201829D02*
X33009524Y12154210D01*
X33009524Y12154210D02*
X32961905Y12106591D01*
X32961905Y12106591D02*
X32914286Y12011353D01*
X65960666Y6643781D02*
X65960666Y5929496D01*
X65960666Y5929496D02*
X65913047Y5786639D01*
X65913047Y5786639D02*
X65817809Y5691400D01*
X65817809Y5691400D02*
X65674952Y5643781D01*
X65674952Y5643781D02*
X65579714Y5643781D01*
X66913047Y6643781D02*
X66436857Y6643781D01*
X66436857Y6643781D02*
X66389238Y6167591D01*
X66389238Y6167591D02*
X66436857Y6215210D01*
X66436857Y6215210D02*
X66532095Y6262829D01*
X66532095Y6262829D02*
X66770190Y6262829D01*
X66770190Y6262829D02*
X66865428Y6215210D01*
X66865428Y6215210D02*
X66913047Y6167591D01*
X66913047Y6167591D02*
X66960666Y6072353D01*
X66960666Y6072353D02*
X66960666Y5834258D01*
X66960666Y5834258D02*
X66913047Y5739020D01*
X66913047Y5739020D02*
X66865428Y5691400D01*
X66865428Y5691400D02*
X66770190Y5643781D01*
X66770190Y5643781D02*
X66532095Y5643781D01*
X66532095Y5643781D02*
X66436857Y5691400D01*
X66436857Y5691400D02*
X66389238Y5739020D01*
X12355219Y45518667D02*
X13069504Y45518667D01*
X13069504Y45518667D02*
X13212361Y45471048D01*
X13212361Y45471048D02*
X13307600Y45375810D01*
X13307600Y45375810D02*
X13355219Y45232953D01*
X13355219Y45232953D02*
X13355219Y45137715D01*
X12355219Y45899620D02*
X12355219Y46518667D01*
X12355219Y46518667D02*
X12736171Y46185334D01*
X12736171Y46185334D02*
X12736171Y46328191D01*
X12736171Y46328191D02*
X12783790Y46423429D01*
X12783790Y46423429D02*
X12831409Y46471048D01*
X12831409Y46471048D02*
X12926647Y46518667D01*
X12926647Y46518667D02*
X13164742Y46518667D01*
X13164742Y46518667D02*
X13259980Y46471048D01*
X13259980Y46471048D02*
X13307600Y46423429D01*
X13307600Y46423429D02*
X13355219Y46328191D01*
X13355219Y46328191D02*
X13355219Y46042477D01*
X13355219Y46042477D02*
X13307600Y45947239D01*
X13307600Y45947239D02*
X13259980Y45899620D01*
X37536219Y32301906D02*
X36536219Y32301906D01*
X36536219Y32301906D02*
X36536219Y32540001D01*
X36536219Y32540001D02*
X36583838Y32682858D01*
X36583838Y32682858D02*
X36679076Y32778096D01*
X36679076Y32778096D02*
X36774314Y32825715D01*
X36774314Y32825715D02*
X36964790Y32873334D01*
X36964790Y32873334D02*
X37107647Y32873334D01*
X37107647Y32873334D02*
X37298123Y32825715D01*
X37298123Y32825715D02*
X37393361Y32778096D01*
X37393361Y32778096D02*
X37488600Y32682858D01*
X37488600Y32682858D02*
X37536219Y32540001D01*
X37536219Y32540001D02*
X37536219Y32301906D01*
X36631457Y33254287D02*
X36583838Y33301906D01*
X36583838Y33301906D02*
X36536219Y33397144D01*
X36536219Y33397144D02*
X36536219Y33635239D01*
X36536219Y33635239D02*
X36583838Y33730477D01*
X36583838Y33730477D02*
X36631457Y33778096D01*
X36631457Y33778096D02*
X36726695Y33825715D01*
X36726695Y33825715D02*
X36821933Y33825715D01*
X36821933Y33825715D02*
X36964790Y33778096D01*
X36964790Y33778096D02*
X37536219Y33206668D01*
X37536219Y33206668D02*
X37536219Y33825715D01*
X42048133Y26719420D02*
X42000514Y26671800D01*
X42000514Y26671800D02*
X41857657Y26624181D01*
X41857657Y26624181D02*
X41762419Y26624181D01*
X41762419Y26624181D02*
X41619562Y26671800D01*
X41619562Y26671800D02*
X41524324Y26767039D01*
X41524324Y26767039D02*
X41476705Y26862277D01*
X41476705Y26862277D02*
X41429086Y27052753D01*
X41429086Y27052753D02*
X41429086Y27195610D01*
X41429086Y27195610D02*
X41476705Y27386086D01*
X41476705Y27386086D02*
X41524324Y27481324D01*
X41524324Y27481324D02*
X41619562Y27576562D01*
X41619562Y27576562D02*
X41762419Y27624181D01*
X41762419Y27624181D02*
X41857657Y27624181D01*
X41857657Y27624181D02*
X42000514Y27576562D01*
X42000514Y27576562D02*
X42048133Y27528943D01*
X42905276Y27290848D02*
X42905276Y26624181D01*
X42667181Y27671800D02*
X42429086Y26957515D01*
X42429086Y26957515D02*
X43048133Y26957515D01*
X46251904Y41219591D02*
X45918571Y41219591D01*
X45918571Y40695781D02*
X45918571Y41695781D01*
X45918571Y41695781D02*
X46394761Y41695781D01*
X47251904Y40695781D02*
X46775714Y40695781D01*
X46775714Y40695781D02*
X46775714Y41695781D01*
X48109047Y40695781D02*
X47537619Y40695781D01*
X47823333Y40695781D02*
X47823333Y41695781D01*
X47823333Y41695781D02*
X47728095Y41552924D01*
X47728095Y41552924D02*
X47632857Y41457686D01*
X47632857Y41457686D02*
X47537619Y41410067D01*
X28110219Y2968667D02*
X28824504Y2968667D01*
X28824504Y2968667D02*
X28967361Y2921048D01*
X28967361Y2921048D02*
X29062600Y2825810D01*
X29062600Y2825810D02*
X29110219Y2682953D01*
X29110219Y2682953D02*
X29110219Y2587715D01*
X28205457Y3397239D02*
X28157838Y3444858D01*
X28157838Y3444858D02*
X28110219Y3540096D01*
X28110219Y3540096D02*
X28110219Y3778191D01*
X28110219Y3778191D02*
X28157838Y3873429D01*
X28157838Y3873429D02*
X28205457Y3921048D01*
X28205457Y3921048D02*
X28300695Y3968667D01*
X28300695Y3968667D02*
X28395933Y3968667D01*
X28395933Y3968667D02*
X28538790Y3921048D01*
X28538790Y3921048D02*
X29110219Y3349620D01*
X29110219Y3349620D02*
X29110219Y3968667D01*
X48966219Y12596334D02*
X48490028Y12263001D01*
X48966219Y12024906D02*
X47966219Y12024906D01*
X47966219Y12024906D02*
X47966219Y12405858D01*
X47966219Y12405858D02*
X48013838Y12501096D01*
X48013838Y12501096D02*
X48061457Y12548715D01*
X48061457Y12548715D02*
X48156695Y12596334D01*
X48156695Y12596334D02*
X48299552Y12596334D01*
X48299552Y12596334D02*
X48394790Y12548715D01*
X48394790Y12548715D02*
X48442409Y12501096D01*
X48442409Y12501096D02*
X48490028Y12405858D01*
X48490028Y12405858D02*
X48490028Y12024906D01*
X48966219Y13548715D02*
X48966219Y12977287D01*
X48966219Y13263001D02*
X47966219Y13263001D01*
X47966219Y13263001D02*
X48109076Y13167763D01*
X48109076Y13167763D02*
X48204314Y13072525D01*
X48204314Y13072525D02*
X48251933Y12977287D01*
X22437905Y21137781D02*
X22437905Y22137781D01*
X23009333Y21137781D02*
X22580762Y21709210D01*
X23009333Y22137781D02*
X22437905Y21566353D01*
X23961714Y21137781D02*
X23390286Y21137781D01*
X23676000Y21137781D02*
X23676000Y22137781D01*
X23676000Y22137781D02*
X23580762Y21994924D01*
X23580762Y21994924D02*
X23485524Y21899686D01*
X23485524Y21899686D02*
X23390286Y21852067D01*
X41402095Y25439781D02*
X41402095Y24630258D01*
X41402095Y24630258D02*
X41449714Y24535020D01*
X41449714Y24535020D02*
X41497333Y24487400D01*
X41497333Y24487400D02*
X41592571Y24439781D01*
X41592571Y24439781D02*
X41783047Y24439781D01*
X41783047Y24439781D02*
X41878285Y24487400D01*
X41878285Y24487400D02*
X41925904Y24535020D01*
X41925904Y24535020D02*
X41973523Y24630258D01*
X41973523Y24630258D02*
X41973523Y25439781D01*
X42973523Y24439781D02*
X42402095Y24439781D01*
X42687809Y24439781D02*
X42687809Y25439781D01*
X42687809Y25439781D02*
X42592571Y25296924D01*
X42592571Y25296924D02*
X42497333Y25201686D01*
X42497333Y25201686D02*
X42402095Y25154067D01*
X39949219Y25441906D02*
X38949219Y25441906D01*
X38949219Y25441906D02*
X38949219Y25680001D01*
X38949219Y25680001D02*
X38996838Y25822858D01*
X38996838Y25822858D02*
X39092076Y25918096D01*
X39092076Y25918096D02*
X39187314Y25965715D01*
X39187314Y25965715D02*
X39377790Y26013334D01*
X39377790Y26013334D02*
X39520647Y26013334D01*
X39520647Y26013334D02*
X39711123Y25965715D01*
X39711123Y25965715D02*
X39806361Y25918096D01*
X39806361Y25918096D02*
X39901600Y25822858D01*
X39901600Y25822858D02*
X39949219Y25680001D01*
X39949219Y25680001D02*
X39949219Y25441906D01*
X38949219Y26346668D02*
X38949219Y26965715D01*
X38949219Y26965715D02*
X39330171Y26632382D01*
X39330171Y26632382D02*
X39330171Y26775239D01*
X39330171Y26775239D02*
X39377790Y26870477D01*
X39377790Y26870477D02*
X39425409Y26918096D01*
X39425409Y26918096D02*
X39520647Y26965715D01*
X39520647Y26965715D02*
X39758742Y26965715D01*
X39758742Y26965715D02*
X39853980Y26918096D01*
X39853980Y26918096D02*
X39901600Y26870477D01*
X39901600Y26870477D02*
X39949219Y26775239D01*
X39949219Y26775239D02*
X39949219Y26489525D01*
X39949219Y26489525D02*
X39901600Y26394287D01*
X39901600Y26394287D02*
X39853980Y26346668D01*
X59341219Y28194096D02*
X60150742Y28194096D01*
X60150742Y28194096D02*
X60245980Y28241715D01*
X60245980Y28241715D02*
X60293600Y28289334D01*
X60293600Y28289334D02*
X60341219Y28384572D01*
X60341219Y28384572D02*
X60341219Y28575048D01*
X60341219Y28575048D02*
X60293600Y28670286D01*
X60293600Y28670286D02*
X60245980Y28717905D01*
X60245980Y28717905D02*
X60150742Y28765524D01*
X60150742Y28765524D02*
X59341219Y28765524D01*
X59341219Y29146477D02*
X59341219Y29765524D01*
X59341219Y29765524D02*
X59722171Y29432191D01*
X59722171Y29432191D02*
X59722171Y29575048D01*
X59722171Y29575048D02*
X59769790Y29670286D01*
X59769790Y29670286D02*
X59817409Y29717905D01*
X59817409Y29717905D02*
X59912647Y29765524D01*
X59912647Y29765524D02*
X60150742Y29765524D01*
X60150742Y29765524D02*
X60245980Y29717905D01*
X60245980Y29717905D02*
X60293600Y29670286D01*
X60293600Y29670286D02*
X60341219Y29575048D01*
X60341219Y29575048D02*
X60341219Y29289334D01*
X60341219Y29289334D02*
X60293600Y29194096D01*
X60293600Y29194096D02*
X60245980Y29146477D01*
X14974667Y9501400D02*
X15117524Y9453781D01*
X15117524Y9453781D02*
X15355619Y9453781D01*
X15355619Y9453781D02*
X15450857Y9501400D01*
X15450857Y9501400D02*
X15498476Y9549020D01*
X15498476Y9549020D02*
X15546095Y9644258D01*
X15546095Y9644258D02*
X15546095Y9739496D01*
X15546095Y9739496D02*
X15498476Y9834734D01*
X15498476Y9834734D02*
X15450857Y9882353D01*
X15450857Y9882353D02*
X15355619Y9929972D01*
X15355619Y9929972D02*
X15165143Y9977591D01*
X15165143Y9977591D02*
X15069905Y10025210D01*
X15069905Y10025210D02*
X15022286Y10072829D01*
X15022286Y10072829D02*
X14974667Y10168067D01*
X14974667Y10168067D02*
X14974667Y10263305D01*
X14974667Y10263305D02*
X15022286Y10358543D01*
X15022286Y10358543D02*
X15069905Y10406162D01*
X15069905Y10406162D02*
X15165143Y10453781D01*
X15165143Y10453781D02*
X15403238Y10453781D01*
X15403238Y10453781D02*
X15546095Y10406162D01*
X15879429Y10453781D02*
X16117524Y9453781D01*
X16117524Y9453781D02*
X16308000Y10168067D01*
X16308000Y10168067D02*
X16498476Y9453781D01*
X16498476Y9453781D02*
X16736572Y10453781D01*
X17641333Y9453781D02*
X17069905Y9453781D01*
X17355619Y9453781D02*
X17355619Y10453781D01*
X17355619Y10453781D02*
X17260381Y10310924D01*
X17260381Y10310924D02*
X17165143Y10215686D01*
X17165143Y10215686D02*
X17069905Y10168067D01*
X65171142Y21487020D02*
X65123523Y21439400D01*
X65123523Y21439400D02*
X64980666Y21391781D01*
X64980666Y21391781D02*
X64885428Y21391781D01*
X64885428Y21391781D02*
X64742571Y21439400D01*
X64742571Y21439400D02*
X64647333Y21534639D01*
X64647333Y21534639D02*
X64599714Y21629877D01*
X64599714Y21629877D02*
X64552095Y21820353D01*
X64552095Y21820353D02*
X64552095Y21963210D01*
X64552095Y21963210D02*
X64599714Y22153686D01*
X64599714Y22153686D02*
X64647333Y22248924D01*
X64647333Y22248924D02*
X64742571Y22344162D01*
X64742571Y22344162D02*
X64885428Y22391781D01*
X64885428Y22391781D02*
X64980666Y22391781D01*
X64980666Y22391781D02*
X65123523Y22344162D01*
X65123523Y22344162D02*
X65171142Y22296543D01*
X66123523Y21391781D02*
X65552095Y21391781D01*
X65837809Y21391781D02*
X65837809Y22391781D01*
X65837809Y22391781D02*
X65742571Y22248924D01*
X65742571Y22248924D02*
X65647333Y22153686D01*
X65647333Y22153686D02*
X65552095Y22106067D01*
X66504476Y22296543D02*
X66552095Y22344162D01*
X66552095Y22344162D02*
X66647333Y22391781D01*
X66647333Y22391781D02*
X66885428Y22391781D01*
X66885428Y22391781D02*
X66980666Y22344162D01*
X66980666Y22344162D02*
X67028285Y22296543D01*
X67028285Y22296543D02*
X67075904Y22201305D01*
X67075904Y22201305D02*
X67075904Y22106067D01*
X67075904Y22106067D02*
X67028285Y21963210D01*
X67028285Y21963210D02*
X66456857Y21391781D01*
X66456857Y21391781D02*
X67075904Y21391781D01*
X39314219Y32853334D02*
X38838028Y32520001D01*
X39314219Y32281906D02*
X38314219Y32281906D01*
X38314219Y32281906D02*
X38314219Y32662858D01*
X38314219Y32662858D02*
X38361838Y32758096D01*
X38361838Y32758096D02*
X38409457Y32805715D01*
X38409457Y32805715D02*
X38504695Y32853334D01*
X38504695Y32853334D02*
X38647552Y32853334D01*
X38647552Y32853334D02*
X38742790Y32805715D01*
X38742790Y32805715D02*
X38790409Y32758096D01*
X38790409Y32758096D02*
X38838028Y32662858D01*
X38838028Y32662858D02*
X38838028Y32281906D01*
X38314219Y33758096D02*
X38314219Y33281906D01*
X38314219Y33281906D02*
X38790409Y33234287D01*
X38790409Y33234287D02*
X38742790Y33281906D01*
X38742790Y33281906D02*
X38695171Y33377144D01*
X38695171Y33377144D02*
X38695171Y33615239D01*
X38695171Y33615239D02*
X38742790Y33710477D01*
X38742790Y33710477D02*
X38790409Y33758096D01*
X38790409Y33758096D02*
X38885647Y33805715D01*
X38885647Y33805715D02*
X39123742Y33805715D01*
X39123742Y33805715D02*
X39218980Y33758096D01*
X39218980Y33758096D02*
X39266600Y33710477D01*
X39266600Y33710477D02*
X39314219Y33615239D01*
X39314219Y33615239D02*
X39314219Y33377144D01*
X39314219Y33377144D02*
X39266600Y33281906D01*
X39266600Y33281906D02*
X39218980Y33234287D01*
X38202980Y40981334D02*
X38250600Y40933715D01*
X38250600Y40933715D02*
X38298219Y40790858D01*
X38298219Y40790858D02*
X38298219Y40695620D01*
X38298219Y40695620D02*
X38250600Y40552763D01*
X38250600Y40552763D02*
X38155361Y40457525D01*
X38155361Y40457525D02*
X38060123Y40409906D01*
X38060123Y40409906D02*
X37869647Y40362287D01*
X37869647Y40362287D02*
X37726790Y40362287D01*
X37726790Y40362287D02*
X37536314Y40409906D01*
X37536314Y40409906D02*
X37441076Y40457525D01*
X37441076Y40457525D02*
X37345838Y40552763D01*
X37345838Y40552763D02*
X37298219Y40695620D01*
X37298219Y40695620D02*
X37298219Y40790858D01*
X37298219Y40790858D02*
X37345838Y40933715D01*
X37345838Y40933715D02*
X37393457Y40981334D01*
X38298219Y41457525D02*
X38298219Y41648001D01*
X38298219Y41648001D02*
X38250600Y41743239D01*
X38250600Y41743239D02*
X38202980Y41790858D01*
X38202980Y41790858D02*
X38060123Y41886096D01*
X38060123Y41886096D02*
X37869647Y41933715D01*
X37869647Y41933715D02*
X37488695Y41933715D01*
X37488695Y41933715D02*
X37393457Y41886096D01*
X37393457Y41886096D02*
X37345838Y41838477D01*
X37345838Y41838477D02*
X37298219Y41743239D01*
X37298219Y41743239D02*
X37298219Y41552763D01*
X37298219Y41552763D02*
X37345838Y41457525D01*
X37345838Y41457525D02*
X37393457Y41409906D01*
X37393457Y41409906D02*
X37488695Y41362287D01*
X37488695Y41362287D02*
X37726790Y41362287D01*
X37726790Y41362287D02*
X37822028Y41409906D01*
X37822028Y41409906D02*
X37869647Y41457525D01*
X37869647Y41457525D02*
X37917266Y41552763D01*
X37917266Y41552763D02*
X37917266Y41743239D01*
X37917266Y41743239D02*
X37869647Y41838477D01*
X37869647Y41838477D02*
X37822028Y41886096D01*
X37822028Y41886096D02*
X37726790Y41933715D01*
X18756219Y45632762D02*
X18280028Y45299429D01*
X18756219Y45061334D02*
X17756219Y45061334D01*
X17756219Y45061334D02*
X17756219Y45442286D01*
X17756219Y45442286D02*
X17803838Y45537524D01*
X17803838Y45537524D02*
X17851457Y45585143D01*
X17851457Y45585143D02*
X17946695Y45632762D01*
X17946695Y45632762D02*
X18089552Y45632762D01*
X18089552Y45632762D02*
X18184790Y45585143D01*
X18184790Y45585143D02*
X18232409Y45537524D01*
X18232409Y45537524D02*
X18280028Y45442286D01*
X18280028Y45442286D02*
X18280028Y45061334D01*
X17756219Y45918477D02*
X18756219Y46251810D01*
X18756219Y46251810D02*
X17756219Y46585143D01*
X18756219Y47442286D02*
X18756219Y46870858D01*
X18756219Y47156572D02*
X17756219Y47156572D01*
X17756219Y47156572D02*
X17899076Y47061334D01*
X17899076Y47061334D02*
X17994314Y46966096D01*
X17994314Y46966096D02*
X18041933Y46870858D01*
X70032142Y3453020D02*
X69984523Y3405400D01*
X69984523Y3405400D02*
X69841666Y3357781D01*
X69841666Y3357781D02*
X69746428Y3357781D01*
X69746428Y3357781D02*
X69603571Y3405400D01*
X69603571Y3405400D02*
X69508333Y3500639D01*
X69508333Y3500639D02*
X69460714Y3595877D01*
X69460714Y3595877D02*
X69413095Y3786353D01*
X69413095Y3786353D02*
X69413095Y3929210D01*
X69413095Y3929210D02*
X69460714Y4119686D01*
X69460714Y4119686D02*
X69508333Y4214924D01*
X69508333Y4214924D02*
X69603571Y4310162D01*
X69603571Y4310162D02*
X69746428Y4357781D01*
X69746428Y4357781D02*
X69841666Y4357781D01*
X69841666Y4357781D02*
X69984523Y4310162D01*
X69984523Y4310162D02*
X70032142Y4262543D01*
X70984523Y3357781D02*
X70413095Y3357781D01*
X70698809Y3357781D02*
X70698809Y4357781D01*
X70698809Y4357781D02*
X70603571Y4214924D01*
X70603571Y4214924D02*
X70508333Y4119686D01*
X70508333Y4119686D02*
X70413095Y4072067D01*
X71936904Y3357781D02*
X71365476Y3357781D01*
X71651190Y3357781D02*
X71651190Y4357781D01*
X71651190Y4357781D02*
X71555952Y4214924D01*
X71555952Y4214924D02*
X71460714Y4119686D01*
X71460714Y4119686D02*
X71365476Y4072067D01*
X62064233Y14787781D02*
X61730900Y15263972D01*
X61492805Y14787781D02*
X61492805Y15787781D01*
X61492805Y15787781D02*
X61873757Y15787781D01*
X61873757Y15787781D02*
X61968995Y15740162D01*
X61968995Y15740162D02*
X62016614Y15692543D01*
X62016614Y15692543D02*
X62064233Y15597305D01*
X62064233Y15597305D02*
X62064233Y15454448D01*
X62064233Y15454448D02*
X62016614Y15359210D01*
X62016614Y15359210D02*
X61968995Y15311591D01*
X61968995Y15311591D02*
X61873757Y15263972D01*
X61873757Y15263972D02*
X61492805Y15263972D01*
X62397567Y15787781D02*
X63016614Y15787781D01*
X63016614Y15787781D02*
X62683281Y15406829D01*
X62683281Y15406829D02*
X62826138Y15406829D01*
X62826138Y15406829D02*
X62921376Y15359210D01*
X62921376Y15359210D02*
X62968995Y15311591D01*
X62968995Y15311591D02*
X63016614Y15216353D01*
X63016614Y15216353D02*
X63016614Y14978258D01*
X63016614Y14978258D02*
X62968995Y14883020D01*
X62968995Y14883020D02*
X62921376Y14835400D01*
X62921376Y14835400D02*
X62826138Y14787781D01*
X62826138Y14787781D02*
X62540424Y14787781D01*
X62540424Y14787781D02*
X62445186Y14835400D01*
X62445186Y14835400D02*
X62397567Y14883020D01*
X50902980Y13295334D02*
X50950600Y13247715D01*
X50950600Y13247715D02*
X50998219Y13104858D01*
X50998219Y13104858D02*
X50998219Y13009620D01*
X50998219Y13009620D02*
X50950600Y12866763D01*
X50950600Y12866763D02*
X50855361Y12771525D01*
X50855361Y12771525D02*
X50760123Y12723906D01*
X50760123Y12723906D02*
X50569647Y12676287D01*
X50569647Y12676287D02*
X50426790Y12676287D01*
X50426790Y12676287D02*
X50236314Y12723906D01*
X50236314Y12723906D02*
X50141076Y12771525D01*
X50141076Y12771525D02*
X50045838Y12866763D01*
X50045838Y12866763D02*
X49998219Y13009620D01*
X49998219Y13009620D02*
X49998219Y13104858D01*
X49998219Y13104858D02*
X50045838Y13247715D01*
X50045838Y13247715D02*
X50093457Y13295334D01*
X50998219Y14247715D02*
X50998219Y13676287D01*
X50998219Y13962001D02*
X49998219Y13962001D01*
X49998219Y13962001D02*
X50141076Y13866763D01*
X50141076Y13866763D02*
X50236314Y13771525D01*
X50236314Y13771525D02*
X50283933Y13676287D01*
X62123142Y21487020D02*
X62075523Y21439400D01*
X62075523Y21439400D02*
X61932666Y21391781D01*
X61932666Y21391781D02*
X61837428Y21391781D01*
X61837428Y21391781D02*
X61694571Y21439400D01*
X61694571Y21439400D02*
X61599333Y21534639D01*
X61599333Y21534639D02*
X61551714Y21629877D01*
X61551714Y21629877D02*
X61504095Y21820353D01*
X61504095Y21820353D02*
X61504095Y21963210D01*
X61504095Y21963210D02*
X61551714Y22153686D01*
X61551714Y22153686D02*
X61599333Y22248924D01*
X61599333Y22248924D02*
X61694571Y22344162D01*
X61694571Y22344162D02*
X61837428Y22391781D01*
X61837428Y22391781D02*
X61932666Y22391781D01*
X61932666Y22391781D02*
X62075523Y22344162D01*
X62075523Y22344162D02*
X62123142Y22296543D01*
X63075523Y21391781D02*
X62504095Y21391781D01*
X62789809Y21391781D02*
X62789809Y22391781D01*
X62789809Y22391781D02*
X62694571Y22248924D01*
X62694571Y22248924D02*
X62599333Y22153686D01*
X62599333Y22153686D02*
X62504095Y22106067D01*
X63408857Y22391781D02*
X64027904Y22391781D01*
X64027904Y22391781D02*
X63694571Y22010829D01*
X63694571Y22010829D02*
X63837428Y22010829D01*
X63837428Y22010829D02*
X63932666Y21963210D01*
X63932666Y21963210D02*
X63980285Y21915591D01*
X63980285Y21915591D02*
X64027904Y21820353D01*
X64027904Y21820353D02*
X64027904Y21582258D01*
X64027904Y21582258D02*
X63980285Y21487020D01*
X63980285Y21487020D02*
X63932666Y21439400D01*
X63932666Y21439400D02*
X63837428Y21391781D01*
X63837428Y21391781D02*
X63551714Y21391781D01*
X63551714Y21391781D02*
X63456476Y21439400D01*
X63456476Y21439400D02*
X63408857Y21487020D01*
X56587119Y12787334D02*
X56110928Y12454001D01*
X56587119Y12215906D02*
X55587119Y12215906D01*
X55587119Y12215906D02*
X55587119Y12596858D01*
X55587119Y12596858D02*
X55634738Y12692096D01*
X55634738Y12692096D02*
X55682357Y12739715D01*
X55682357Y12739715D02*
X55777595Y12787334D01*
X55777595Y12787334D02*
X55920452Y12787334D01*
X55920452Y12787334D02*
X56015690Y12739715D01*
X56015690Y12739715D02*
X56063309Y12692096D01*
X56063309Y12692096D02*
X56110928Y12596858D01*
X56110928Y12596858D02*
X56110928Y12215906D01*
X55920452Y13644477D02*
X56587119Y13644477D01*
X55539500Y13406382D02*
X56253785Y13168287D01*
X56253785Y13168287D02*
X56253785Y13787334D01*
X58928995Y15787781D02*
X58928995Y14978258D01*
X58928995Y14978258D02*
X58976614Y14883020D01*
X58976614Y14883020D02*
X59024233Y14835400D01*
X59024233Y14835400D02*
X59119471Y14787781D01*
X59119471Y14787781D02*
X59309947Y14787781D01*
X59309947Y14787781D02*
X59405185Y14835400D01*
X59405185Y14835400D02*
X59452804Y14883020D01*
X59452804Y14883020D02*
X59500423Y14978258D01*
X59500423Y14978258D02*
X59500423Y15787781D01*
X59928995Y15692543D02*
X59976614Y15740162D01*
X59976614Y15740162D02*
X60071852Y15787781D01*
X60071852Y15787781D02*
X60309947Y15787781D01*
X60309947Y15787781D02*
X60405185Y15740162D01*
X60405185Y15740162D02*
X60452804Y15692543D01*
X60452804Y15692543D02*
X60500423Y15597305D01*
X60500423Y15597305D02*
X60500423Y15502067D01*
X60500423Y15502067D02*
X60452804Y15359210D01*
X60452804Y15359210D02*
X59881376Y14787781D01*
X59881376Y14787781D02*
X60500423Y14787781D01*
X80148214Y52887781D02*
X80148214Y53887781D01*
X80148214Y53887781D02*
X80529166Y53887781D01*
X80529166Y53887781D02*
X80624404Y53840162D01*
X80624404Y53840162D02*
X80672023Y53792543D01*
X80672023Y53792543D02*
X80719642Y53697305D01*
X80719642Y53697305D02*
X80719642Y53554448D01*
X80719642Y53554448D02*
X80672023Y53459210D01*
X80672023Y53459210D02*
X80624404Y53411591D01*
X80624404Y53411591D02*
X80529166Y53363972D01*
X80529166Y53363972D02*
X80148214Y53363972D01*
X81100595Y52935400D02*
X81243452Y52887781D01*
X81243452Y52887781D02*
X81481547Y52887781D01*
X81481547Y52887781D02*
X81576785Y52935400D01*
X81576785Y52935400D02*
X81624404Y52983020D01*
X81624404Y52983020D02*
X81672023Y53078258D01*
X81672023Y53078258D02*
X81672023Y53173496D01*
X81672023Y53173496D02*
X81624404Y53268734D01*
X81624404Y53268734D02*
X81576785Y53316353D01*
X81576785Y53316353D02*
X81481547Y53363972D01*
X81481547Y53363972D02*
X81291071Y53411591D01*
X81291071Y53411591D02*
X81195833Y53459210D01*
X81195833Y53459210D02*
X81148214Y53506829D01*
X81148214Y53506829D02*
X81100595Y53602067D01*
X81100595Y53602067D02*
X81100595Y53697305D01*
X81100595Y53697305D02*
X81148214Y53792543D01*
X81148214Y53792543D02*
X81195833Y53840162D01*
X81195833Y53840162D02*
X81291071Y53887781D01*
X81291071Y53887781D02*
X81529166Y53887781D01*
X81529166Y53887781D02*
X81672023Y53840162D01*
X82624404Y52887781D02*
X82052976Y52887781D01*
X82338690Y52887781D02*
X82338690Y53887781D01*
X82338690Y53887781D02*
X82243452Y53744924D01*
X82243452Y53744924D02*
X82148214Y53649686D01*
X82148214Y53649686D02*
X82052976Y53602067D01*
X52426980Y13295334D02*
X52474600Y13247715D01*
X52474600Y13247715D02*
X52522219Y13104858D01*
X52522219Y13104858D02*
X52522219Y13009620D01*
X52522219Y13009620D02*
X52474600Y12866763D01*
X52474600Y12866763D02*
X52379361Y12771525D01*
X52379361Y12771525D02*
X52284123Y12723906D01*
X52284123Y12723906D02*
X52093647Y12676287D01*
X52093647Y12676287D02*
X51950790Y12676287D01*
X51950790Y12676287D02*
X51760314Y12723906D01*
X51760314Y12723906D02*
X51665076Y12771525D01*
X51665076Y12771525D02*
X51569838Y12866763D01*
X51569838Y12866763D02*
X51522219Y13009620D01*
X51522219Y13009620D02*
X51522219Y13104858D01*
X51522219Y13104858D02*
X51569838Y13247715D01*
X51569838Y13247715D02*
X51617457Y13295334D01*
X51617457Y13676287D02*
X51569838Y13723906D01*
X51569838Y13723906D02*
X51522219Y13819144D01*
X51522219Y13819144D02*
X51522219Y14057239D01*
X51522219Y14057239D02*
X51569838Y14152477D01*
X51569838Y14152477D02*
X51617457Y14200096D01*
X51617457Y14200096D02*
X51712695Y14247715D01*
X51712695Y14247715D02*
X51807933Y14247715D01*
X51807933Y14247715D02*
X51950790Y14200096D01*
X51950790Y14200096D02*
X52522219Y13628668D01*
X52522219Y13628668D02*
X52522219Y14247715D01*
X61587980Y17867334D02*
X61635600Y17819715D01*
X61635600Y17819715D02*
X61683219Y17676858D01*
X61683219Y17676858D02*
X61683219Y17581620D01*
X61683219Y17581620D02*
X61635600Y17438763D01*
X61635600Y17438763D02*
X61540361Y17343525D01*
X61540361Y17343525D02*
X61445123Y17295906D01*
X61445123Y17295906D02*
X61254647Y17248287D01*
X61254647Y17248287D02*
X61111790Y17248287D01*
X61111790Y17248287D02*
X60921314Y17295906D01*
X60921314Y17295906D02*
X60826076Y17343525D01*
X60826076Y17343525D02*
X60730838Y17438763D01*
X60730838Y17438763D02*
X60683219Y17581620D01*
X60683219Y17581620D02*
X60683219Y17676858D01*
X60683219Y17676858D02*
X60730838Y17819715D01*
X60730838Y17819715D02*
X60778457Y17867334D01*
X61111790Y18438763D02*
X61064171Y18343525D01*
X61064171Y18343525D02*
X61016552Y18295906D01*
X61016552Y18295906D02*
X60921314Y18248287D01*
X60921314Y18248287D02*
X60873695Y18248287D01*
X60873695Y18248287D02*
X60778457Y18295906D01*
X60778457Y18295906D02*
X60730838Y18343525D01*
X60730838Y18343525D02*
X60683219Y18438763D01*
X60683219Y18438763D02*
X60683219Y18629239D01*
X60683219Y18629239D02*
X60730838Y18724477D01*
X60730838Y18724477D02*
X60778457Y18772096D01*
X60778457Y18772096D02*
X60873695Y18819715D01*
X60873695Y18819715D02*
X60921314Y18819715D01*
X60921314Y18819715D02*
X61016552Y18772096D01*
X61016552Y18772096D02*
X61064171Y18724477D01*
X61064171Y18724477D02*
X61111790Y18629239D01*
X61111790Y18629239D02*
X61111790Y18438763D01*
X61111790Y18438763D02*
X61159409Y18343525D01*
X61159409Y18343525D02*
X61207028Y18295906D01*
X61207028Y18295906D02*
X61302266Y18248287D01*
X61302266Y18248287D02*
X61492742Y18248287D01*
X61492742Y18248287D02*
X61587980Y18295906D01*
X61587980Y18295906D02*
X61635600Y18343525D01*
X61635600Y18343525D02*
X61683219Y18438763D01*
X61683219Y18438763D02*
X61683219Y18629239D01*
X61683219Y18629239D02*
X61635600Y18724477D01*
X61635600Y18724477D02*
X61587980Y18772096D01*
X61587980Y18772096D02*
X61492742Y18819715D01*
X61492742Y18819715D02*
X61302266Y18819715D01*
X61302266Y18819715D02*
X61207028Y18772096D01*
X61207028Y18772096D02*
X61159409Y18724477D01*
X61159409Y18724477D02*
X61111790Y18629239D01*
D11*
%TO.C,F1*%
X66857200Y13774336D02*
X66857200Y14978464D01*
X68677200Y13774336D02*
X68677200Y14978464D01*
%TO.C,C6*%
X54123000Y17926164D02*
X54123000Y18141836D01*
X54843000Y17926164D02*
X54843000Y18141836D01*
%TO.C,R2*%
X57039742Y21223500D02*
X57514258Y21223500D01*
X57039742Y20178500D02*
X57514258Y20178500D01*
D12*
%TO.C,TH1*%
X10510000Y54292000D02*
X10510000Y58992000D01*
X22510000Y58992000D02*
X10510000Y58992000D01*
X22510000Y54292000D02*
X10510000Y54292000D01*
X22510000Y54292000D02*
X22510000Y58992000D01*
D11*
%TO.C,J4*%
X42358000Y1972000D02*
X42358000Y3302000D01*
X43688000Y1972000D02*
X42358000Y1972000D01*
X44958000Y4632000D02*
X52638000Y4632000D01*
X44958000Y1972000D02*
X44958000Y4632000D01*
X44958000Y1972000D02*
X52638000Y1972000D01*
X52638000Y1972000D02*
X52638000Y4632000D01*
%TO.C,J6*%
X1004000Y38405000D02*
X1004000Y37905000D01*
X1244000Y38165000D02*
X1244000Y22805000D01*
X1744000Y38405000D02*
X1004000Y38405000D01*
X1804000Y38165000D02*
X1804000Y22805000D01*
X4304000Y38165000D02*
X4304000Y22805000D01*
X5057000Y36847000D02*
X4950000Y36953000D01*
X5323000Y37113000D02*
X5216000Y37219000D01*
X5330000Y31492000D02*
X4950000Y31872000D01*
X5330000Y26412000D02*
X4950000Y26792000D01*
X5612000Y31743000D02*
X5216000Y32138000D01*
X5612000Y26663000D02*
X5216000Y27058000D01*
X7992000Y33911000D02*
X7885000Y34018000D01*
X7992000Y28831000D02*
X7596000Y29226000D01*
X7992000Y23751000D02*
X7596000Y24146000D01*
X8258000Y34177000D02*
X8151000Y34284000D01*
X8258000Y29097000D02*
X7878000Y29477000D01*
X8258000Y24017000D02*
X7878000Y24397000D01*
X10504000Y38165000D02*
X10504000Y22805000D01*
X12564000Y38165000D02*
X1244000Y38165000D01*
X12564000Y38165000D02*
X12564000Y22805000D01*
X12564000Y22805000D02*
X1244000Y22805000D01*
X8784000Y35565000D02*
G75*
G02*
X4424000Y35565000I-2180000J0D01*
G01*
X4424000Y35565000D02*
G75*
G02*
X8784000Y35565000I2180000J0D01*
G01*
X8784000Y30485000D02*
G75*
G02*
X4424000Y30485000I-2180000J0D01*
G01*
X4424000Y30485000D02*
G75*
G02*
X8784000Y30485000I2180000J0D01*
G01*
X8784000Y25405000D02*
G75*
G02*
X4424000Y25405000I-2180000J0D01*
G01*
X4424000Y25405000D02*
G75*
G02*
X8784000Y25405000I2180000J0D01*
G01*
%TO.C,C7*%
X23516000Y10407764D02*
X23516000Y10623436D01*
X24236000Y10407764D02*
X24236000Y10623436D01*
%TO.C,D1*%
X66968000Y20964800D02*
X66968000Y18304800D01*
X68668000Y20964800D02*
X66968000Y20964800D01*
X68668000Y20964800D02*
X68668000Y18304800D01*
%TO.C,C10*%
X57102000Y58650000D02*
X57102000Y40410000D01*
X66342000Y58650000D02*
X57102000Y58650000D01*
X66342000Y58650000D02*
X66342000Y40410000D01*
X66342000Y40410000D02*
X57102000Y40410000D01*
%TO.C,J1*%
X39497000Y10795000D02*
X39497000Y11430000D01*
X40132000Y10795000D02*
X39497000Y10795000D01*
%TO.C,C3*%
X52345000Y21990164D02*
X52345000Y22205836D01*
X53065000Y21990164D02*
X53065000Y22205836D01*
%TO.C,C5*%
X41804000Y16109836D02*
X41804000Y15894164D01*
X42524000Y16109836D02*
X42524000Y15894164D01*
%TO.C,Y1*%
X55277000Y19684000D02*
X55277000Y16384000D01*
X55277000Y16384000D02*
X59277000Y16384000D01*
%TO.C,C14*%
X36857000Y21283252D02*
X36857000Y20760748D01*
X38327000Y21283252D02*
X38327000Y20760748D01*
%TO.C,FB1*%
X64454821Y13413200D02*
X64780379Y13413200D01*
X64454821Y12393200D02*
X64780379Y12393200D01*
%TO.C,Q1*%
X27584000Y16685500D02*
X27584000Y17335500D01*
X27584000Y16685500D02*
X27584000Y16035500D01*
X30704000Y16685500D02*
X30704000Y17335500D01*
X30704000Y16685500D02*
X30704000Y16035500D01*
X27634000Y15523000D02*
X27304000Y15283000D01*
X27304000Y15763000D01*
X27634000Y15523000D01*
G36*
X27634000Y15523000D02*
G01*
X27304000Y15283000D01*
X27304000Y15763000D01*
X27634000Y15523000D01*
G37*
%TO.C,R7*%
X29129500Y12559742D02*
X29129500Y13034258D01*
X30174500Y12559742D02*
X30174500Y13034258D01*
%TO.C,R6*%
X32937258Y14144500D02*
X32462742Y14144500D01*
X32937258Y13099500D02*
X32462742Y13099500D01*
%TO.C,J5*%
X54990000Y6980000D02*
X54990000Y4980000D01*
X54990000Y3080000D02*
X54990000Y1180000D01*
X54990000Y1180000D02*
X64390000Y1180000D01*
X64390000Y6980000D02*
X64390000Y4980000D01*
X64390000Y3080000D02*
X64390000Y1180000D01*
%TO.C,J3*%
X1399000Y51232000D02*
X1399000Y50732000D01*
X1639000Y50992000D02*
X1639000Y40712000D01*
X2139000Y51232000D02*
X1399000Y51232000D01*
X2199000Y50992000D02*
X2199000Y40712000D01*
X3699000Y50992000D02*
X3699000Y40712000D01*
X5060000Y44346000D02*
X5025000Y44381000D01*
X5276000Y44539000D02*
X5230000Y44586000D01*
X7368000Y42037000D02*
X7322000Y42084000D01*
X7574000Y42242000D02*
X7538000Y42277000D01*
X8600000Y50992000D02*
X8600000Y40712000D01*
X11560000Y50992000D02*
X1639000Y50992000D01*
X11560000Y50992000D02*
X11560000Y40712000D01*
X11560000Y40712000D02*
X1639000Y40712000D01*
X4618748Y48363195D02*
G75*
G02*
X4764001Y49076000I1680253J28806D01*
G01*
X4764245Y47708682D02*
G75*
G02*
X4619001Y48392000I1534755J683318D01*
G01*
X5615958Y49927426D02*
G75*
G02*
X6982999Y49926999I683041J-1535419D01*
G01*
X6982042Y46856574D02*
G75*
G02*
X5615000Y46857000I-683042J1535426D01*
G01*
X7834426Y49075042D02*
G75*
G02*
X7833999Y47708001I-1535419J-683041D01*
G01*
X7979000Y43312000D02*
G75*
G02*
X4619000Y43312000I-1680000J0D01*
G01*
X4619000Y43312000D02*
G75*
G02*
X7979000Y43312000I1680000J0D01*
G01*
%TO.C,D2*%
X36349000Y31300000D02*
X36349000Y29015000D01*
X36349000Y29015000D02*
X37819000Y29015000D01*
X37819000Y29015000D02*
X37819000Y31300000D01*
%TO.C,C4*%
X44352800Y26562164D02*
X44352800Y26777836D01*
X43632800Y26562164D02*
X43632800Y26777836D01*
%TO.C,FL1*%
X39124500Y56887500D02*
X39124500Y53887500D01*
X39124500Y56887500D02*
X42124500Y56887500D01*
X39504500Y44387500D02*
X39504500Y54387500D01*
X41624500Y56507500D02*
X51624500Y56507500D01*
X51624500Y42267500D02*
X41624500Y42267500D01*
X53744500Y54387500D02*
X53744500Y44387500D01*
X39504500Y54387500D02*
G75*
G02*
X41624500Y56507500I2120001J-1D01*
G01*
X41624500Y42267500D02*
G75*
G02*
X39504500Y44387500I1J2120001D01*
G01*
X51624500Y56507500D02*
G75*
G02*
X53744500Y54387500I0J-2120000D01*
G01*
X53744500Y44387500D02*
G75*
G02*
X51624500Y42267500I-2120000J0D01*
G01*
%TO.C,J2*%
X29658000Y1972000D02*
X29658000Y3302000D01*
X30988000Y1972000D02*
X29658000Y1972000D01*
X32258000Y4632000D02*
X39938000Y4632000D01*
X32258000Y1972000D02*
X32258000Y4632000D01*
X32258000Y1972000D02*
X39938000Y1972000D01*
X39938000Y1972000D02*
X39938000Y4632000D01*
%TO.C,R1*%
X46467500Y13000258D02*
X46467500Y12525742D01*
X47512500Y13000258D02*
X47512500Y12525742D01*
%TO.C,K1*%
X13530000Y38280000D02*
X33330000Y38280000D01*
X13530000Y22680000D02*
X13530000Y38280000D01*
X17780000Y34680000D02*
X17780000Y32230000D01*
X17780000Y26280000D02*
X17780000Y28780000D01*
X20980000Y30530000D02*
X16380000Y28030000D01*
X22480000Y34130000D02*
X29280000Y34130000D01*
X22480000Y30530000D02*
X20980000Y30530000D01*
X22480000Y30530000D02*
X22480000Y34130000D01*
X23880000Y32330000D02*
X27880000Y32330000D01*
X23880000Y32330000D02*
X27880000Y28730000D01*
X23880000Y28730000D02*
X23880000Y32330000D01*
X25880000Y32330000D02*
X25880000Y36530000D01*
X25880000Y24530000D02*
X25880000Y28730000D01*
X25880000Y24530000D02*
X28380000Y24530000D01*
X27880000Y32330000D02*
X27880000Y28730000D01*
X27880000Y28730000D02*
X23880000Y28730000D01*
X28380000Y36530000D02*
X25880000Y36530000D01*
X29280000Y30530000D02*
X29280000Y34130000D01*
X29280000Y30530000D02*
X30080000Y30530000D01*
X33330000Y31680000D02*
X33330000Y38280000D01*
X33330000Y22680000D02*
X13530000Y22680000D01*
X33330000Y22680000D02*
X33330000Y29280000D01*
%TO.C,U1*%
X43126000Y23930000D02*
X43126000Y23480000D01*
X43126000Y16710000D02*
X43126000Y17160000D01*
X43576000Y23930000D02*
X43126000Y23930000D01*
X43576000Y16710000D02*
X43126000Y16710000D01*
X49896000Y23930000D02*
X50346000Y23930000D01*
X49896000Y16710000D02*
X50346000Y16710000D01*
X50346000Y23930000D02*
X50346000Y23480000D01*
X50346000Y16710000D02*
X50346000Y17160000D01*
X51276000Y16690000D02*
X50596000Y16690000D01*
X50936000Y17160000D01*
X51276000Y16690000D01*
G36*
X51276000Y16690000D02*
G01*
X50596000Y16690000D01*
X50936000Y17160000D01*
X51276000Y16690000D01*
G37*
%TO.C,D3*%
X36592000Y23820000D02*
X36592000Y27830000D01*
X36592000Y23820000D02*
X38592000Y23820000D01*
X38592000Y23820000D02*
X38592000Y27830000D01*
%TO.C,U3*%
X60979000Y30866000D02*
X62239000Y30866000D01*
X60979000Y27106000D02*
X60979000Y30866000D01*
X67799000Y30866000D02*
X66539000Y30866000D01*
X67799000Y27106000D02*
X67799000Y30866000D01*
X61079000Y25826000D02*
X60749000Y25586000D01*
X60749000Y26066000D01*
X61079000Y25826000D01*
G36*
X61079000Y25826000D02*
G01*
X60749000Y25586000D01*
X60749000Y26066000D01*
X61079000Y25826000D01*
G37*
%TO.C,SW1*%
X12808000Y12180000D02*
X12808000Y10680000D01*
X14058000Y8180000D02*
X18558000Y8180000D01*
X18558000Y14680000D02*
X14058000Y14680000D01*
X19808000Y10680000D02*
X19808000Y12180000D01*
%TO.C,C12*%
X65954580Y23878000D02*
X65673420Y23878000D01*
X65954580Y22858000D02*
X65673420Y22858000D01*
%TO.C,R5*%
X38339500Y30717258D02*
X38339500Y30242742D01*
X39384500Y30717258D02*
X39384500Y30242742D01*
%TO.C,C9*%
X27130000Y58650000D02*
X27130000Y40410000D01*
X36370000Y58650000D02*
X27130000Y58650000D01*
X36370000Y58650000D02*
X36370000Y40410000D01*
X36370000Y40410000D02*
X27130000Y40410000D01*
D12*
%TO.C,RV1*%
X19494000Y51974000D02*
X19494000Y39974000D01*
X24194000Y51974000D02*
X19494000Y51974000D01*
X24194000Y51974000D02*
X24194000Y39974000D01*
X24194000Y39974000D02*
X19494000Y39974000D01*
D11*
%TO.C,C11*%
X71037000Y10380000D02*
X72287000Y10380000D01*
X71662000Y11005000D02*
X71662000Y9755000D01*
X72527000Y11815563D02*
X72527000Y9130000D01*
X72527000Y11815563D02*
X73591437Y12880000D01*
X72527000Y3424437D02*
X72527000Y6110000D01*
X72527000Y3424437D02*
X73591437Y2360000D01*
X73591437Y12880000D02*
X83047000Y12880000D01*
X73591437Y2360000D02*
X83047000Y2360000D01*
X83047000Y12880000D02*
X83047000Y9130000D01*
X83047000Y2360000D02*
X83047000Y6110000D01*
%TO.C,R3*%
X61200400Y12716742D02*
X61200400Y13191258D01*
X62245400Y12716742D02*
X62245400Y13191258D01*
%TO.C,C1*%
X50186000Y15601836D02*
X50186000Y15386164D01*
X50906000Y15601836D02*
X50906000Y15386164D01*
%TO.C,C13*%
X63127836Y23728000D02*
X62912164Y23728000D01*
X63127836Y23008000D02*
X62912164Y23008000D01*
%TO.C,R4*%
X57136400Y12716742D02*
X57136400Y13191258D01*
X58181400Y12716742D02*
X58181400Y13191258D01*
%TO.C,U2*%
X58700900Y13604000D02*
X58700900Y12554000D01*
X60680900Y13604000D02*
X60680900Y12304000D01*
X58700900Y11904000D02*
X58420900Y12184000D01*
X58700900Y12184000D01*
X58700900Y11904000D01*
G36*
X58700900Y11904000D02*
G01*
X58420900Y12184000D01*
X58700900Y12184000D01*
X58700900Y11904000D01*
G37*
%TO.C,PS1*%
X70010000Y51437500D02*
X70010000Y14517500D01*
X89870000Y51677500D02*
X92870000Y51677500D01*
X92630000Y51437500D02*
X70010000Y51437500D01*
X92630000Y51437500D02*
X92630000Y14517500D01*
X92630000Y14517500D02*
X70010000Y14517500D01*
X92870000Y51677500D02*
X92870000Y48677500D01*
%TO.C,C2*%
X51329000Y15601836D02*
X51329000Y15386164D01*
X52049000Y15601836D02*
X52049000Y15386164D01*
%TO.C,C8*%
X59711000Y18141836D02*
X59711000Y17926164D01*
X60431000Y18141836D02*
X60431000Y17926164D01*
%TD*%
M02*
